<?xml version="1.0" encoding="UTF-8" standalone="no"?>
<!DOCTYPE svg PUBLIC "-//W3C//DTD SVG 1.1//EN"
 "http://www.w3.org/Graphics/SVG/1.1/DTD/svg11.dtd">
<!-- Generated by graphviz version 12.2.1 (20241206.2353)
 -->
<!-- Title: Evolution Pages: 1 -->
<svg width="2316pt" height="358pt"
 viewBox="0.00 0.00 2315.62 357.70" xmlns="http://www.w3.org/2000/svg" xmlns:xlink="http://www.w3.org/1999/xlink">
<g id="graph0" class="graph" transform="scale(1 1) rotate(0) translate(72 285.7)">
<title>Evolution</title>
<polygon fill="#fafafa" stroke="none" points="-72,72 -72,-285.7 2243.62,-285.7 2243.62,72 -72,72"/>
<text text-anchor="middle" x="1085.81" y="-194.5" font-family="Helvetica,sans-Serif" font-size="16.00">Hypothesis Evolution Timeline</text>
<!-- h1_start -->
<g id="node1" class="node">
<title>h1_start</title>
<path fill="#3b82f6" stroke="black" stroke-width="1.5" d="M190,-189.2C190,-189.2 12,-189.2 12,-189.2 6,-189.2 0,-183.2 0,-177.2 0,-177.2 0,-158 0,-158 0,-152 6,-146 12,-146 12,-146 190,-146 190,-146 196,-146 202,-152 202,-158 202,-158 202,-177.2 202,-177.2 202,-183.2 196,-189.2 190,-189.2"/>
<text text-anchor="middle" x="101" y="-169.3" font-family="Helvetica,sans-Serif" font-size="14.00" fill="white">H1: Entropy Guided Sparse Att</text>
<text text-anchor="middle" x="101" y="-154.3" font-family="Helvetica,sans-Serif" font-size="14.00" fill="white">(start)</text>
</g>
<!-- h1_complete -->
<g id="node2" class="node">
<title>h1_complete</title>
<path fill="#ef4444" stroke="black" stroke-width="1.5" d="M132.2,-38C132.2,-38 69.8,-38 69.8,-38 63.8,-38 57.8,-32 57.8,-26 57.8,-26 57.8,-12 57.8,-12 57.8,-6 63.8,0 69.8,0 69.8,0 132.2,0 132.2,0 138.2,0 144.2,-6 144.2,-12 144.2,-12 144.2,-26 144.2,-26 144.2,-32 138.2,-38 132.2,-38"/>
<text text-anchor="middle" x="101" y="-20.7" font-family="Helvetica,sans-Serif" font-size="14.00" fill="white">REFUTED</text>
<text text-anchor="middle" x="101" y="-5.7" font-family="Helvetica,sans-Serif" font-size="14.00" fill="white">(35.2s)</text>
</g>
<!-- h1_start&#45;&gt;h1_complete -->
<g id="edge1" class="edge">
<title>h1_start&#45;&gt;h1_complete</title>
<path fill="none" stroke="#94a3b8" stroke-width="1.2" d="M101,-145.6C101,-119.59 101,-75.26 101,-46.82"/>
<polygon fill="#94a3b8" stroke="#94a3b8" stroke-width="1.2" points="103.45,-47.01 101,-40.01 98.55,-47.01 103.45,-47.01"/>
</g>
<!-- h2_start -->
<g id="node3" class="node">
<title>h2_start</title>
<path fill="#3b82f6" stroke="black" stroke-width="1.5" d="M402.62,-189.2C402.62,-189.2 243.38,-189.2 243.38,-189.2 237.38,-189.2 231.38,-183.2 231.38,-177.2 231.38,-177.2 231.38,-158 231.38,-158 231.38,-152 237.38,-146 243.38,-146 243.38,-146 402.62,-146 402.62,-146 408.62,-146 414.62,-152 414.62,-158 414.62,-158 414.62,-177.2 414.62,-177.2 414.62,-183.2 408.62,-189.2 402.62,-189.2"/>
<text text-anchor="middle" x="323" y="-169.3" font-family="Helvetica,sans-Serif" font-size="14.00" fill="white">H2: Differential Attention Ro</text>
<text text-anchor="middle" x="323" y="-154.3" font-family="Helvetica,sans-Serif" font-size="14.00" fill="white">(start)</text>
</g>
<!-- h1_complete&#45;&gt;h2_start -->
<g id="edge3" class="edge">
<title>h1_complete&#45;&gt;h2_start</title>
<path fill="none" stroke="#94a3b8" stroke-width="1.2" stroke-dasharray="5,2" stroke-opacity="0.376471" d="M128.89,-38.42C168.08,-64.3 239.61,-111.53 284.04,-140.87"/>
<polygon fill="#94a3b8" fill-opacity="0.376471" stroke="#94a3b8" stroke-width="1.2" stroke-opacity="0.376471" points="282.49,-142.78 289.68,-144.59 285.19,-138.69 282.49,-142.78"/>
</g>
<!-- h2_complete -->
<g id="node4" class="node">
<title>h2_complete</title>
<path fill="#ef4444" stroke="black" stroke-width="1.5" d="M354.2,-38C354.2,-38 291.8,-38 291.8,-38 285.8,-38 279.8,-32 279.8,-26 279.8,-26 279.8,-12 279.8,-12 279.8,-6 285.8,0 291.8,0 291.8,0 354.2,0 354.2,0 360.2,0 366.2,-6 366.2,-12 366.2,-12 366.2,-26 366.2,-26 366.2,-32 360.2,-38 354.2,-38"/>
<text text-anchor="middle" x="323" y="-20.7" font-family="Helvetica,sans-Serif" font-size="14.00" fill="white">REFUTED</text>
<text text-anchor="middle" x="323" y="-5.7" font-family="Helvetica,sans-Serif" font-size="14.00" fill="white">(40.8s)</text>
</g>
<!-- h2_start&#45;&gt;h2_complete -->
<g id="edge2" class="edge">
<title>h2_start&#45;&gt;h2_complete</title>
<path fill="none" stroke="#94a3b8" stroke-width="1.2" d="M323,-145.6C323,-119.59 323,-75.26 323,-46.82"/>
<polygon fill="#94a3b8" stroke="#94a3b8" stroke-width="1.2" points="325.45,-47.01 323,-40.01 320.55,-47.01 325.45,-47.01"/>
</g>
<!-- h3_start -->
<g id="node5" class="node">
<title>h3_start</title>
<path fill="#3b82f6" stroke="black" stroke-width="1.5" d="M636.12,-189.2C636.12,-189.2 455.88,-189.2 455.88,-189.2 449.88,-189.2 443.88,-183.2 443.88,-177.2 443.88,-177.2 443.88,-158 443.88,-158 443.88,-152 449.88,-146 455.88,-146 455.88,-146 636.12,-146 636.12,-146 642.12,-146 648.12,-152 648.12,-158 648.12,-158 648.12,-177.2 648.12,-177.2 648.12,-183.2 642.12,-189.2 636.12,-189.2"/>
<text text-anchor="middle" x="546" y="-169.3" font-family="Helvetica,sans-Serif" font-size="14.00" fill="white">H3: Gradient Guided Sparse At</text>
<text text-anchor="middle" x="546" y="-154.3" font-family="Helvetica,sans-Serif" font-size="14.00" fill="white">(start)</text>
</g>
<!-- h2_complete&#45;&gt;h3_start -->
<g id="edge5" class="edge">
<title>h2_complete&#45;&gt;h3_start</title>
<path fill="none" stroke="#94a3b8" stroke-width="1.2" stroke-dasharray="5,2" stroke-opacity="0.376471" d="M351.02,-38.42C390.38,-64.3 462.23,-111.53 506.86,-140.87"/>
<polygon fill="#94a3b8" fill-opacity="0.376471" stroke="#94a3b8" stroke-width="1.2" stroke-opacity="0.376471" points="505.34,-142.8 512.53,-144.6 508.03,-138.71 505.34,-142.8"/>
</g>
<!-- h3_complete -->
<g id="node6" class="node">
<title>h3_complete</title>
<path fill="#ef4444" stroke="black" stroke-width="1.5" d="M577.2,-38C577.2,-38 514.8,-38 514.8,-38 508.8,-38 502.8,-32 502.8,-26 502.8,-26 502.8,-12 502.8,-12 502.8,-6 508.8,0 514.8,0 514.8,0 577.2,0 577.2,0 583.2,0 589.2,-6 589.2,-12 589.2,-12 589.2,-26 589.2,-26 589.2,-32 583.2,-38 577.2,-38"/>
<text text-anchor="middle" x="546" y="-20.7" font-family="Helvetica,sans-Serif" font-size="14.00" fill="white">REFUTED</text>
<text text-anchor="middle" x="546" y="-5.7" font-family="Helvetica,sans-Serif" font-size="14.00" fill="white">(38.3s)</text>
</g>
<!-- h3_start&#45;&gt;h3_complete -->
<g id="edge4" class="edge">
<title>h3_start&#45;&gt;h3_complete</title>
<path fill="none" stroke="#94a3b8" stroke-width="1.2" d="M546,-145.6C546,-119.59 546,-75.26 546,-46.82"/>
<polygon fill="#94a3b8" stroke="#94a3b8" stroke-width="1.2" points="548.45,-47.01 546,-40.01 543.55,-47.01 548.45,-47.01"/>
</g>
<!-- h4_start -->
<g id="node7" class="node">
<title>h4_start</title>
<path fill="#3b82f6" stroke="black" stroke-width="1.5" d="M846.5,-189.2C846.5,-189.2 689.5,-189.2 689.5,-189.2 683.5,-189.2 677.5,-183.2 677.5,-177.2 677.5,-177.2 677.5,-158 677.5,-158 677.5,-152 683.5,-146 689.5,-146 689.5,-146 846.5,-146 846.5,-146 852.5,-146 858.5,-152 858.5,-158 858.5,-158 858.5,-177.2 858.5,-177.2 858.5,-183.2 852.5,-189.2 846.5,-189.2"/>
<text text-anchor="middle" x="768" y="-169.3" font-family="Helvetica,sans-Serif" font-size="14.00" fill="white">H4: Fourier Attention Gates</text>
<text text-anchor="middle" x="768" y="-154.3" font-family="Helvetica,sans-Serif" font-size="14.00" fill="white">(start)</text>
</g>
<!-- h3_complete&#45;&gt;h4_start -->
<g id="edge7" class="edge">
<title>h3_complete&#45;&gt;h4_start</title>
<path fill="none" stroke="#94a3b8" stroke-width="1.2" stroke-dasharray="5,2" stroke-opacity="0.376471" d="M573.89,-38.42C613.08,-64.3 684.61,-111.53 729.04,-140.87"/>
<polygon fill="#94a3b8" fill-opacity="0.376471" stroke="#94a3b8" stroke-width="1.2" stroke-opacity="0.376471" points="727.49,-142.78 734.68,-144.59 730.19,-138.69 727.49,-142.78"/>
</g>
<!-- h4_complete -->
<g id="node8" class="node">
<title>h4_complete</title>
<path fill="#ef4444" stroke="black" stroke-width="1.5" d="M799.2,-38C799.2,-38 736.8,-38 736.8,-38 730.8,-38 724.8,-32 724.8,-26 724.8,-26 724.8,-12 724.8,-12 724.8,-6 730.8,0 736.8,0 736.8,0 799.2,0 799.2,0 805.2,0 811.2,-6 811.2,-12 811.2,-12 811.2,-26 811.2,-26 811.2,-32 805.2,-38 799.2,-38"/>
<text text-anchor="middle" x="768" y="-20.7" font-family="Helvetica,sans-Serif" font-size="14.00" fill="white">REFUTED</text>
<text text-anchor="middle" x="768" y="-5.7" font-family="Helvetica,sans-Serif" font-size="14.00" fill="white">(32.2s)</text>
</g>
<!-- h4_start&#45;&gt;h4_complete -->
<g id="edge6" class="edge">
<title>h4_start&#45;&gt;h4_complete</title>
<path fill="none" stroke="#94a3b8" stroke-width="1.2" d="M768,-145.6C768,-119.59 768,-75.26 768,-46.82"/>
<polygon fill="#94a3b8" stroke="#94a3b8" stroke-width="1.2" points="770.45,-47.01 768,-40.01 765.55,-47.01 770.45,-47.01"/>
</g>
<!-- h5_start -->
<g id="node9" class="node">
<title>h5_start</title>
<path fill="#3b82f6" stroke="black" stroke-width="1.5" d="M1082.62,-189.2C1082.62,-189.2 899.38,-189.2 899.38,-189.2 893.38,-189.2 887.38,-183.2 887.38,-177.2 887.38,-177.2 887.38,-158 887.38,-158 887.38,-152 893.38,-146 899.38,-146 899.38,-146 1082.62,-146 1082.62,-146 1088.62,-146 1094.62,-152 1094.62,-158 1094.62,-158 1094.62,-177.2 1094.62,-177.2 1094.62,-183.2 1088.62,-189.2 1082.62,-189.2"/>
<text text-anchor="middle" x="991" y="-169.3" font-family="Helvetica,sans-Serif" font-size="14.00" fill="white">H5: Temporal Depth Modulation</text>
<text text-anchor="middle" x="991" y="-154.3" font-family="Helvetica,sans-Serif" font-size="14.00" fill="white">(start)</text>
</g>
<!-- h4_complete&#45;&gt;h5_start -->
<g id="edge9" class="edge">
<title>h4_complete&#45;&gt;h5_start</title>
<path fill="none" stroke="#94a3b8" stroke-width="1.2" stroke-dasharray="5,2" stroke-opacity="0.376471" d="M796.02,-38.42C835.38,-64.3 907.23,-111.53 951.86,-140.87"/>
<polygon fill="#94a3b8" fill-opacity="0.376471" stroke="#94a3b8" stroke-width="1.2" stroke-opacity="0.376471" points="950.34,-142.8 957.53,-144.6 953.03,-138.71 950.34,-142.8"/>
</g>
<!-- h5_complete -->
<g id="node10" class="node">
<title>h5_complete</title>
<path fill="#ef4444" stroke="black" stroke-width="1.5" d="M1022.2,-38C1022.2,-38 959.8,-38 959.8,-38 953.8,-38 947.8,-32 947.8,-26 947.8,-26 947.8,-12 947.8,-12 947.8,-6 953.8,0 959.8,0 959.8,0 1022.2,0 1022.2,0 1028.2,0 1034.2,-6 1034.2,-12 1034.2,-12 1034.2,-26 1034.2,-26 1034.2,-32 1028.2,-38 1022.2,-38"/>
<text text-anchor="middle" x="991" y="-20.7" font-family="Helvetica,sans-Serif" font-size="14.00" fill="white">REFUTED</text>
<text text-anchor="middle" x="991" y="-5.7" font-family="Helvetica,sans-Serif" font-size="14.00" fill="white">(35.8s)</text>
</g>
<!-- h5_start&#45;&gt;h5_complete -->
<g id="edge8" class="edge">
<title>h5_start&#45;&gt;h5_complete</title>
<path fill="none" stroke="#94a3b8" stroke-width="1.2" d="M991,-145.6C991,-119.59 991,-75.26 991,-46.82"/>
<polygon fill="#94a3b8" stroke="#94a3b8" stroke-width="1.2" points="993.45,-47.01 991,-40.01 988.55,-47.01 993.45,-47.01"/>
</g>
<!-- h6_start -->
<g id="node11" class="node">
<title>h6_start</title>
<path fill="#3b82f6" stroke="black" stroke-width="1.5" d="M1293.88,-189.2C1293.88,-189.2 1136.12,-189.2 1136.12,-189.2 1130.12,-189.2 1124.12,-183.2 1124.12,-177.2 1124.12,-177.2 1124.12,-158 1124.12,-158 1124.12,-152 1130.12,-146 1136.12,-146 1136.12,-146 1293.88,-146 1293.88,-146 1299.88,-146 1305.88,-152 1305.88,-158 1305.88,-158 1305.88,-177.2 1305.88,-177.2 1305.88,-183.2 1299.88,-189.2 1293.88,-189.2"/>
<text text-anchor="middle" x="1215" y="-169.3" font-family="Helvetica,sans-Serif" font-size="14.00" fill="white">H6: Adaptive Sparse Moe 6</text>
<text text-anchor="middle" x="1215" y="-154.3" font-family="Helvetica,sans-Serif" font-size="14.00" fill="white">(start)</text>
</g>
<!-- h5_complete&#45;&gt;h6_start -->
<g id="edge11" class="edge">
<title>h5_complete&#45;&gt;h6_start</title>
<path fill="none" stroke="#94a3b8" stroke-width="1.2" stroke-dasharray="5,2" stroke-opacity="0.376471" d="M1019.14,-38.42C1058.68,-64.3 1130.86,-111.53 1175.68,-140.87"/>
<polygon fill="#94a3b8" fill-opacity="0.376471" stroke="#94a3b8" stroke-width="1.2" stroke-opacity="0.376471" points="1174.19,-142.82 1181.39,-144.6 1176.87,-138.72 1174.19,-142.82"/>
</g>
<!-- h6_complete -->
<g id="node12" class="node">
<title>h6_complete</title>
<path fill="#ef4444" stroke="black" stroke-width="1.5" d="M1246.2,-38C1246.2,-38 1183.8,-38 1183.8,-38 1177.8,-38 1171.8,-32 1171.8,-26 1171.8,-26 1171.8,-12 1171.8,-12 1171.8,-6 1177.8,0 1183.8,0 1183.8,0 1246.2,0 1246.2,0 1252.2,0 1258.2,-6 1258.2,-12 1258.2,-12 1258.2,-26 1258.2,-26 1258.2,-32 1252.2,-38 1246.2,-38"/>
<text text-anchor="middle" x="1215" y="-20.7" font-family="Helvetica,sans-Serif" font-size="14.00" fill="white">REFUTED</text>
<text text-anchor="middle" x="1215" y="-5.7" font-family="Helvetica,sans-Serif" font-size="14.00" fill="white">(39.9s)</text>
</g>
<!-- h6_start&#45;&gt;h6_complete -->
<g id="edge10" class="edge">
<title>h6_start&#45;&gt;h6_complete</title>
<path fill="none" stroke="#94a3b8" stroke-width="1.2" d="M1215,-145.6C1215,-119.59 1215,-75.26 1215,-46.82"/>
<polygon fill="#94a3b8" stroke="#94a3b8" stroke-width="1.2" points="1217.45,-47.01 1215,-40.01 1212.55,-47.01 1217.45,-47.01"/>
</g>
<!-- h7_start -->
<g id="node13" class="node">
<title>h7_start</title>
<path fill="#3b82f6" stroke="black" stroke-width="1.5" d="M1515.5,-189.2C1515.5,-189.2 1346.5,-189.2 1346.5,-189.2 1340.5,-189.2 1334.5,-183.2 1334.5,-177.2 1334.5,-177.2 1334.5,-158 1334.5,-158 1334.5,-152 1340.5,-146 1346.5,-146 1346.5,-146 1515.5,-146 1515.5,-146 1521.5,-146 1527.5,-152 1527.5,-158 1527.5,-158 1527.5,-177.2 1527.5,-177.2 1527.5,-183.2 1521.5,-189.2 1515.5,-189.2"/>
<text text-anchor="middle" x="1431" y="-169.3" font-family="Helvetica,sans-Serif" font-size="14.00" fill="white">H7: Gradient Informed Attenti</text>
<text text-anchor="middle" x="1431" y="-154.3" font-family="Helvetica,sans-Serif" font-size="14.00" fill="white">(start)</text>
</g>
<!-- h6_complete&#45;&gt;h7_start -->
<g id="edge13" class="edge">
<title>h6_complete&#45;&gt;h7_start</title>
<path fill="none" stroke="#94a3b8" stroke-width="1.2" stroke-dasharray="5,2" stroke-opacity="0.376471" d="M1242.14,-38.42C1280.19,-64.24 1349.57,-111.34 1392.82,-140.69"/>
<polygon fill="#94a3b8" fill-opacity="0.376471" stroke="#94a3b8" stroke-width="1.2" stroke-opacity="0.376471" points="1391.38,-142.67 1398.55,-144.58 1394.13,-138.62 1391.38,-142.67"/>
</g>
<!-- h7_complete -->
<g id="node14" class="node">
<title>h7_complete</title>
<path fill="#ef4444" stroke="black" stroke-width="1.5" d="M1462.2,-38C1462.2,-38 1399.8,-38 1399.8,-38 1393.8,-38 1387.8,-32 1387.8,-26 1387.8,-26 1387.8,-12 1387.8,-12 1387.8,-6 1393.8,0 1399.8,0 1399.8,0 1462.2,0 1462.2,0 1468.2,0 1474.2,-6 1474.2,-12 1474.2,-12 1474.2,-26 1474.2,-26 1474.2,-32 1468.2,-38 1462.2,-38"/>
<text text-anchor="middle" x="1431" y="-20.7" font-family="Helvetica,sans-Serif" font-size="14.00" fill="white">REFUTED</text>
<text text-anchor="middle" x="1431" y="-5.7" font-family="Helvetica,sans-Serif" font-size="14.00" fill="white">(41.7s)</text>
</g>
<!-- h7_start&#45;&gt;h7_complete -->
<g id="edge12" class="edge">
<title>h7_start&#45;&gt;h7_complete</title>
<path fill="none" stroke="#94a3b8" stroke-width="1.2" d="M1431,-145.6C1431,-119.59 1431,-75.26 1431,-46.82"/>
<polygon fill="#94a3b8" stroke="#94a3b8" stroke-width="1.2" points="1433.45,-47.01 1431,-40.01 1428.55,-47.01 1433.45,-47.01"/>
</g>
<!-- h8_start -->
<g id="node15" class="node">
<title>h8_start</title>
<path fill="#3b82f6" stroke="black" stroke-width="1.5" d="M1741.38,-189.2C1741.38,-189.2 1568.62,-189.2 1568.62,-189.2 1562.62,-189.2 1556.62,-183.2 1556.62,-177.2 1556.62,-177.2 1556.62,-158 1556.62,-158 1556.62,-152 1562.62,-146 1568.62,-146 1568.62,-146 1741.38,-146 1741.38,-146 1747.38,-146 1753.38,-152 1753.38,-158 1753.38,-158 1753.38,-177.2 1753.38,-177.2 1753.38,-183.2 1747.38,-189.2 1741.38,-189.2"/>
<text text-anchor="middle" x="1655" y="-169.3" font-family="Helvetica,sans-Serif" font-size="14.00" fill="white">H8: Gradient Conditioned Atte</text>
<text text-anchor="middle" x="1655" y="-154.3" font-family="Helvetica,sans-Serif" font-size="14.00" fill="white">(start)</text>
</g>
<!-- h7_complete&#45;&gt;h8_start -->
<g id="edge15" class="edge">
<title>h7_complete&#45;&gt;h8_start</title>
<path fill="none" stroke="#94a3b8" stroke-width="1.2" stroke-dasharray="5,2" stroke-opacity="0.376471" d="M1459.14,-38.42C1498.68,-64.3 1570.86,-111.53 1615.68,-140.87"/>
<polygon fill="#94a3b8" fill-opacity="0.376471" stroke="#94a3b8" stroke-width="1.2" stroke-opacity="0.376471" points="1614.19,-142.82 1621.39,-144.6 1616.87,-138.72 1614.19,-142.82"/>
</g>
<!-- h8_complete -->
<g id="node16" class="node">
<title>h8_complete</title>
<path fill="#ef4444" stroke="black" stroke-width="1.5" d="M1686.2,-38C1686.2,-38 1623.8,-38 1623.8,-38 1617.8,-38 1611.8,-32 1611.8,-26 1611.8,-26 1611.8,-12 1611.8,-12 1611.8,-6 1617.8,0 1623.8,0 1623.8,0 1686.2,0 1686.2,0 1692.2,0 1698.2,-6 1698.2,-12 1698.2,-12 1698.2,-26 1698.2,-26 1698.2,-32 1692.2,-38 1686.2,-38"/>
<text text-anchor="middle" x="1655" y="-20.7" font-family="Helvetica,sans-Serif" font-size="14.00" fill="white">REFUTED</text>
<text text-anchor="middle" x="1655" y="-5.7" font-family="Helvetica,sans-Serif" font-size="14.00" fill="white">(37.9s)</text>
</g>
<!-- h8_start&#45;&gt;h8_complete -->
<g id="edge14" class="edge">
<title>h8_start&#45;&gt;h8_complete</title>
<path fill="none" stroke="#94a3b8" stroke-width="1.2" d="M1655,-145.6C1655,-119.59 1655,-75.26 1655,-46.82"/>
<polygon fill="#94a3b8" stroke="#94a3b8" stroke-width="1.2" points="1657.45,-47.01 1655,-40.01 1652.55,-47.01 1657.45,-47.01"/>
</g>
<!-- h9_start -->
<g id="node17" class="node">
<title>h9_start</title>
<path fill="#3b82f6" stroke="black" stroke-width="1.5" d="M1923.62,-189.2C1923.62,-189.2 1794.38,-189.2 1794.38,-189.2 1788.38,-189.2 1782.38,-183.2 1782.38,-177.2 1782.38,-177.2 1782.38,-158 1782.38,-158 1782.38,-152 1788.38,-146 1794.38,-146 1794.38,-146 1923.62,-146 1923.62,-146 1929.62,-146 1935.62,-152 1935.62,-158 1935.62,-158 1935.62,-177.2 1935.62,-177.2 1935.62,-183.2 1929.62,-189.2 1923.62,-189.2"/>
<text text-anchor="middle" x="1859" y="-169.3" font-family="Helvetica,sans-Serif" font-size="14.00" fill="white">H9: Spiral Attention H9</text>
<text text-anchor="middle" x="1859" y="-154.3" font-family="Helvetica,sans-Serif" font-size="14.00" fill="white">(start)</text>
</g>
<!-- h8_complete&#45;&gt;h9_start -->
<g id="edge17" class="edge">
<title>h8_complete&#45;&gt;h9_start</title>
<path fill="none" stroke="#94a3b8" stroke-width="1.2" stroke-dasharray="5,2" stroke-opacity="0.376471" d="M1680.63,-38.42C1716.49,-64.19 1781.83,-111.14 1822.69,-140.51"/>
<polygon fill="#94a3b8" fill-opacity="0.376471" stroke="#94a3b8" stroke-width="1.2" stroke-opacity="0.376471" points="1821.18,-142.44 1828.3,-144.54 1824.04,-138.46 1821.18,-142.44"/>
</g>
<!-- h9_complete -->
<g id="node18" class="node">
<title>h9_complete</title>
<path fill="#f59e0b" stroke="black" stroke-width="1.5" d="M1890.2,-38C1890.2,-38 1827.8,-38 1827.8,-38 1821.8,-38 1815.8,-32 1815.8,-26 1815.8,-26 1815.8,-12 1815.8,-12 1815.8,-6 1821.8,0 1827.8,0 1827.8,0 1890.2,0 1890.2,0 1896.2,0 1902.2,-6 1902.2,-12 1902.2,-12 1902.2,-26 1902.2,-26 1902.2,-32 1896.2,-38 1890.2,-38"/>
<text text-anchor="middle" x="1859" y="-20.7" font-family="Helvetica,sans-Serif" font-size="14.00" fill="white">None</text>
<text text-anchor="middle" x="1859" y="-5.7" font-family="Helvetica,sans-Serif" font-size="14.00" fill="white">(28.7s)</text>
</g>
<!-- h9_start&#45;&gt;h9_complete -->
<g id="edge16" class="edge">
<title>h9_start&#45;&gt;h9_complete</title>
<path fill="none" stroke="#94a3b8" stroke-width="1.2" d="M1859,-145.6C1859,-119.59 1859,-75.26 1859,-46.82"/>
<polygon fill="#94a3b8" stroke="#94a3b8" stroke-width="1.2" points="1861.45,-47.01 1859,-40.01 1856.55,-47.01 1861.45,-47.01"/>
</g>
<!-- h10_start -->
<g id="node19" class="node">
<title>h10_start</title>
<path fill="#3b82f6" stroke="black" stroke-width="1.5" d="M2159.62,-189.2C2159.62,-189.2 1976.38,-189.2 1976.38,-189.2 1970.38,-189.2 1964.38,-183.2 1964.38,-177.2 1964.38,-177.2 1964.38,-158 1964.38,-158 1964.38,-152 1970.38,-146 1976.38,-146 1976.38,-146 2159.62,-146 2159.62,-146 2165.62,-146 2171.62,-152 2171.62,-158 2171.62,-158 2171.62,-177.2 2171.62,-177.2 2171.62,-183.2 2165.62,-189.2 2159.62,-189.2"/>
<text text-anchor="middle" x="2068" y="-169.3" font-family="Helvetica,sans-Serif" font-size="14.00" fill="white">H10: Fractal Depth Transformer</text>
<text text-anchor="middle" x="2068" y="-154.3" font-family="Helvetica,sans-Serif" font-size="14.00" fill="white">(start)</text>
</g>
<!-- h9_complete&#45;&gt;h10_start -->
<g id="edge19" class="edge">
<title>h9_complete&#45;&gt;h10_start</title>
<path fill="none" stroke="#94a3b8" stroke-width="1.2" stroke-dasharray="5,2" stroke-opacity="0.376471" d="M1885.26,-38.42C1922.07,-64.24 1989.21,-111.34 2031.06,-140.69"/>
<polygon fill="#94a3b8" fill-opacity="0.376471" stroke="#94a3b8" stroke-width="1.2" stroke-opacity="0.376471" points="2029.43,-142.54 2036.57,-144.55 2032.24,-138.53 2029.43,-142.54"/>
</g>
<!-- h10_complete -->
<g id="node20" class="node">
<title>h10_complete</title>
<path fill="#f59e0b" stroke="black" stroke-width="1.5" d="M2099.2,-38C2099.2,-38 2036.8,-38 2036.8,-38 2030.8,-38 2024.8,-32 2024.8,-26 2024.8,-26 2024.8,-12 2024.8,-12 2024.8,-6 2030.8,0 2036.8,0 2036.8,0 2099.2,0 2099.2,0 2105.2,0 2111.2,-6 2111.2,-12 2111.2,-12 2111.2,-26 2111.2,-26 2111.2,-32 2105.2,-38 2099.2,-38"/>
<text text-anchor="middle" x="2068" y="-20.7" font-family="Helvetica,sans-Serif" font-size="14.00" fill="white">None</text>
<text text-anchor="middle" x="2068" y="-5.7" font-family="Helvetica,sans-Serif" font-size="14.00" fill="white">(40.2s)</text>
</g>
<!-- h10_start&#45;&gt;h10_complete -->
<g id="edge18" class="edge">
<title>h10_start&#45;&gt;h10_complete</title>
<path fill="none" stroke="#94a3b8" stroke-width="1.2" d="M2068,-145.6C2068,-119.59 2068,-75.26 2068,-46.82"/>
<polygon fill="#94a3b8" stroke="#94a3b8" stroke-width="1.2" points="2070.45,-47.01 2068,-40.01 2065.55,-47.01 2070.45,-47.01"/>
</g>
</g>
</svg>
