<?xml version="1.0" encoding="UTF-8" standalone="no"?>
<!DOCTYPE svg PUBLIC "-//W3C//DTD SVG 1.1//EN"
 "http://www.w3.org/Graphics/SVG/1.1/DTD/svg11.dtd">
<!-- Generated by graphviz version 12.2.1 (20241206.2353)
 -->
<!-- Title: StandupEvolution Pages: 1 -->
<svg width="4257pt" height="400pt"
 viewBox="28.80 28.80 4228.23 370.98" xmlns="http://www.w3.org/2000/svg" xmlns:xlink="http://www.w3.org/1999/xlink">
<g id="graph0" class="graph" transform="scale(1 1) rotate(0) translate(93.6 306.18)">
<title>StandupEvolution</title>
<polygon fill="#fafafa" stroke="none" points="-64.8,64.8 -64.8,-277.38 4134.63,-277.38 4134.63,64.8 -64.8,64.8"/>
<text text-anchor="middle" x="2034.92" y="-189.58" font-family="Helvetica Neue" font-size="20.00" fill="#0f172a">Knowledge evolution over time</text>
<text text-anchor="middle" x="2034.92" y="-165.58" font-family="Helvetica Neue" font-size="20.00" fill="#0f172a">Run: live_run_20260328_170317</text>
<text text-anchor="middle" x="2034.92" y="-141.58" font-family="Helvetica Neue" font-size="20.00" fill="#0f172a">10 steps • 8 refuted • 0 verified • 2 unknown • ~6.6 min wall</text>
<!-- baseline -->
<g id="node1" class="node">
<title>baseline</title>
<ellipse fill="#e2e8f0" stroke="#475569" stroke-width="3" cx="90" cy="-66.29" rx="90" ry="52.86"/>
<text text-anchor="start" x="86.62" y="-85.17" font-family="Helvetica Neue" font-size="10.00" fill="#64748b">t₀</text>
<text text-anchor="start" x="59.25" y="-62.42" font-family="Helvetica Neue" font-weight="bold" font-size="15.00" fill="#1e293b">Seed KG</text>
<text text-anchor="start" x="49.12" y="-40.42" font-family="Helvetica Neue" font-size="10.00" fill="#475569">Baseline concepts</text>
</g>
<!-- h0 -->
<g id="node2" class="node">
<title>h0</title>
<ellipse fill="#fef2f2" stroke="#b91c1c" stroke-width="3" cx="402.08" cy="-66.29" rx="150.08" ry="64.35"/>
<text text-anchor="start" x="376.21" y="-94.29" font-family="Helvetica Neue" font-size="10.00" fill="#64748b">t1 · Refuted</text>
<text text-anchor="start" x="391.21" y="-72.54" font-family="Helvetica Neue" font-weight="bold" font-size="15.00" fill="#b91c1c">✗ 1</text>
<text text-anchor="start" x="307.96" y="-50.64" font-family="Helvetica Neue" font-weight="bold" font-size="12.00" fill="#0f172a">entropy&#45;guided&#45;sparse&#45;attention</text>
<text text-anchor="start" x="382.21" y="-31.49" font-family="Helvetica Neue" font-size="9.00" fill="#b91c1c">REFUTED</text>
</g>
<!-- baseline&#45;&gt;h0 -->
<g id="edge1" class="edge">
<title>baseline&#45;&gt;h0</title>
<path fill="none" stroke="#94a3b8" stroke-width="5" d="M181.11,-66.29C197.81,-66.29 215.74,-66.29 233.89,-66.29"/>
<polygon fill="#94a3b8" stroke="#94a3b8" stroke-width="5" points="233.86,-70.89 244.36,-66.29 233.86,-61.7 233.86,-70.89"/>
</g>
<!-- h1 -->
<g id="node3" class="node">
<title>h1</title>
<ellipse fill="#fef2f2" stroke="#b91c1c" stroke-width="3" cx="755.69" cy="-66.29" rx="131.52" ry="64.35"/>
<text text-anchor="start" x="729.81" y="-94.29" font-family="Helvetica Neue" font-size="10.00" fill="#64748b">t2 · Refuted</text>
<text text-anchor="start" x="744.81" y="-72.54" font-family="Helvetica Neue" font-weight="bold" font-size="15.00" fill="#b91c1c">✗ 2</text>
<text text-anchor="start" x="674.69" y="-50.64" font-family="Helvetica Neue" font-weight="bold" font-size="12.00" fill="#0f172a">differential&#45;attention&#45;routing</text>
<text text-anchor="start" x="735.81" y="-31.49" font-family="Helvetica Neue" font-size="9.00" fill="#b91c1c">REFUTED</text>
</g>
<!-- h0&#45;&gt;h1 -->
<g id="edge2" class="edge">
<title>h0&#45;&gt;h1</title>
<path fill="none" stroke="#94a3b8" stroke-width="5" d="M553.47,-66.29C570.93,-66.29 588.73,-66.29 606.16,-66.29"/>
<polygon fill="#94a3b8" stroke="#94a3b8" stroke-width="5" points="606,-70.89 616.5,-66.29 606,-61.7 606,-70.89"/>
</g>
<!-- h2 -->
<g id="node4" class="node">
<title>h2</title>
<ellipse fill="#fef2f2" stroke="#b91c1c" stroke-width="3" cx="1111.95" cy="-66.29" rx="152.74" ry="64.35"/>
<text text-anchor="start" x="1086.07" y="-94.29" font-family="Helvetica Neue" font-size="10.00" fill="#64748b">t3 · Refuted</text>
<text text-anchor="start" x="1101.07" y="-72.54" font-family="Helvetica Neue" font-weight="bold" font-size="15.00" fill="#b91c1c">✗ 3</text>
<text text-anchor="start" x="1015.95" y="-50.64" font-family="Helvetica Neue" font-weight="bold" font-size="12.00" fill="#0f172a">gradient&#45;guided&#45;sparse&#45;attention</text>
<text text-anchor="start" x="1092.07" y="-31.49" font-family="Helvetica Neue" font-size="9.00" fill="#b91c1c">REFUTED</text>
</g>
<!-- h1&#45;&gt;h2 -->
<g id="edge3" class="edge">
<title>h1&#45;&gt;h2</title>
<path fill="none" stroke="#94a3b8" stroke-width="5" d="M888.6,-66.29C905.76,-66.29 923.52,-66.29 941.19,-66.29"/>
<polygon fill="#94a3b8" stroke="#94a3b8" stroke-width="5" points="940.98,-70.89 951.48,-66.29 940.98,-61.7 940.98,-70.89"/>
</g>
<!-- h3 -->
<g id="node5" class="node">
<title>h3</title>
<ellipse fill="#fef2f2" stroke="#b91c1c" stroke-width="3" cx="1445.4" cy="-66.29" rx="108.72" ry="64.35"/>
<text text-anchor="start" x="1419.52" y="-94.29" font-family="Helvetica Neue" font-size="10.00" fill="#64748b">t4 · Refuted</text>
<text text-anchor="start" x="1434.52" y="-72.54" font-family="Helvetica Neue" font-weight="bold" font-size="15.00" fill="#b91c1c">✗ 4</text>
<text text-anchor="start" x="1380.52" y="-50.64" font-family="Helvetica Neue" font-weight="bold" font-size="12.00" fill="#0f172a">fourier&#45;attention&#45;gates</text>
<text text-anchor="start" x="1425.52" y="-31.49" font-family="Helvetica Neue" font-size="9.00" fill="#b91c1c">REFUTED</text>
</g>
<!-- h2&#45;&gt;h3 -->
<g id="edge4" class="edge">
<title>h2&#45;&gt;h3</title>
<path fill="none" stroke="#94a3b8" stroke-width="5" d="M1266.06,-66.29C1283.71,-66.29 1301.55,-66.29 1318.77,-66.29"/>
<polygon fill="#94a3b8" stroke="#94a3b8" stroke-width="5" points="1318.68,-70.89 1329.18,-66.29 1318.68,-61.7 1318.68,-70.89"/>
</g>
<!-- h4 -->
<g id="node6" class="node">
<title>h4</title>
<ellipse fill="#fef2f2" stroke="#b91c1c" stroke-width="3" cx="1754.99" cy="-66.29" rx="128.87" ry="64.35"/>
<text text-anchor="start" x="1729.11" y="-94.29" font-family="Helvetica Neue" font-size="10.00" fill="#64748b">t5 · Refuted</text>
<text text-anchor="start" x="1744.11" y="-72.54" font-family="Helvetica Neue" font-weight="bold" font-size="15.00" fill="#b91c1c">✗ 5</text>
<text text-anchor="start" x="1675.86" y="-50.64" font-family="Helvetica Neue" font-weight="bold" font-size="12.00" fill="#0f172a">temporal&#45;depth&#45;modulation</text>
<text text-anchor="start" x="1735.11" y="-31.49" font-family="Helvetica Neue" font-size="9.00" fill="#b91c1c">REFUTED</text>
</g>
<!-- h3&#45;&gt;h4 -->
<g id="edge5" class="edge">
<title>h3&#45;&gt;h4</title>
<path fill="none" stroke="#94a3b8" stroke-width="5" d="M1555.28,-66.29C1572.39,-66.29 1590.31,-66.29 1608.1,-66.29"/>
<polygon fill="#94a3b8" stroke="#94a3b8" stroke-width="5" points="1607.98,-70.89 1618.48,-66.29 1607.98,-61.7 1607.98,-70.89"/>
</g>
<!-- h5 -->
<g id="node7" class="node">
<title>h5</title>
<ellipse fill="#fef2f2" stroke="#b91c1c" stroke-width="3" cx="2068.29" cy="-66.29" rx="112.43" ry="64.35"/>
<text text-anchor="start" x="2042.41" y="-94.29" font-family="Helvetica Neue" font-size="10.00" fill="#64748b">t6 · Refuted</text>
<text text-anchor="start" x="2057.41" y="-72.54" font-family="Helvetica Neue" font-weight="bold" font-size="15.00" fill="#b91c1c">✗ 6</text>
<text text-anchor="start" x="2000.79" y="-50.64" font-family="Helvetica Neue" font-weight="bold" font-size="12.00" fill="#0f172a">adaptive&#45;sparse&#45;moe&#45;6</text>
<text text-anchor="start" x="2048.41" y="-31.49" font-family="Helvetica Neue" font-size="9.00" fill="#b91c1c">REFUTED</text>
</g>
<!-- h4&#45;&gt;h5 -->
<g id="edge6" class="edge">
<title>h4&#45;&gt;h5</title>
<path fill="none" stroke="#94a3b8" stroke-width="5" d="M1885.3,-66.29C1902.77,-66.29 1920.7,-66.29 1938.16,-66.29"/>
<polygon fill="#94a3b8" stroke="#94a3b8" stroke-width="5" points="1938,-70.89 1948.5,-66.29 1938,-61.7 1938,-70.89"/>
</g>
<!-- h6 -->
<g id="node8" class="node">
<title>h6</title>
<ellipse fill="#fef2f2" stroke="#b91c1c" stroke-width="3" cx="2394.84" cy="-66.29" rx="142.13" ry="64.35"/>
<text text-anchor="start" x="2368.97" y="-94.29" font-family="Helvetica Neue" font-size="10.00" fill="#64748b">t7 · Refuted</text>
<text text-anchor="start" x="2383.97" y="-72.54" font-family="Helvetica Neue" font-weight="bold" font-size="15.00" fill="#b91c1c">✗ 7</text>
<text text-anchor="start" x="2306.34" y="-50.64" font-family="Helvetica Neue" font-weight="bold" font-size="12.00" fill="#0f172a">gradient&#45;informed&#45;attention&#45;v7</text>
<text text-anchor="start" x="2374.97" y="-31.49" font-family="Helvetica Neue" font-size="9.00" fill="#b91c1c">REFUTED</text>
</g>
<!-- h5&#45;&gt;h6 -->
<g id="edge7" class="edge">
<title>h5&#45;&gt;h6</title>
<path fill="none" stroke="#94a3b8" stroke-width="5" d="M2181.89,-66.29C2198.97,-66.29 2216.87,-66.29 2234.72,-66.29"/>
<polygon fill="#94a3b8" stroke="#94a3b8" stroke-width="5" points="2234.69,-70.89 2245.19,-66.29 2234.69,-61.7 2234.69,-70.89"/>
</g>
<!-- h7 -->
<g id="node9" class="node">
<title>h7</title>
<ellipse fill="#fef2f2" stroke="#b91c1c" stroke-width="3" cx="2763.3" cy="-66.29" rx="154.33" ry="64.35"/>
<text text-anchor="start" x="2737.42" y="-94.29" font-family="Helvetica Neue" font-size="10.00" fill="#64748b">t8 · Refuted</text>
<text text-anchor="start" x="2752.42" y="-72.54" font-family="Helvetica Neue" font-weight="bold" font-size="15.00" fill="#b91c1c">✗ 8</text>
<text text-anchor="start" x="2666.17" y="-50.64" font-family="Helvetica Neue" font-weight="bold" font-size="12.00" fill="#0f172a">gradient&#45;conditioned&#45;attention&#45;v8</text>
<text text-anchor="start" x="2743.42" y="-31.49" font-family="Helvetica Neue" font-size="9.00" fill="#b91c1c">REFUTED</text>
</g>
<!-- h6&#45;&gt;h7 -->
<g id="edge8" class="edge">
<title>h6&#45;&gt;h7</title>
<path fill="none" stroke="#94a3b8" stroke-width="5" d="M2538.31,-66.29C2555.62,-66.29 2573.44,-66.29 2591.11,-66.29"/>
<polygon fill="#94a3b8" stroke="#94a3b8" stroke-width="5" points="2590.89,-70.89 2601.39,-66.29 2590.89,-61.7 2590.89,-70.89"/>
</g>
<!-- h8 -->
<g id="node10" class="node">
<title>h8</title>
<ellipse fill="#f8fafc" stroke="#334155" stroke-width="3" cx="3081.9" cy="-66.29" rx="92.28" ry="52.15"/>
<text text-anchor="start" x="3052.28" y="-85.67" font-family="Helvetica Neue" font-size="10.00" fill="#64748b">t9 · Unknown</text>
<text text-anchor="start" x="3071.4" y="-63.92" font-family="Helvetica Neue" font-weight="bold" font-size="15.00" fill="#334155">? 9</text>
<text text-anchor="start" x="3028.65" y="-42.02" font-family="Helvetica Neue" font-weight="bold" font-size="12.00" fill="#0f172a">spiral&#45;attention&#45;h9</text>
</g>
<!-- h7&#45;&gt;h8 -->
<g id="edge9" class="edge">
<title>h7&#45;&gt;h8</title>
<path fill="none" stroke="#94a3b8" stroke-width="5" d="M2918.89,-66.29C2936.67,-66.29 2954.51,-66.29 2971.51,-66.29"/>
<polygon fill="#94a3b8" stroke="#94a3b8" stroke-width="5" points="2971.47,-70.89 2981.97,-66.29 2971.47,-61.7 2971.47,-70.89"/>
</g>
<!-- h9 -->
<g id="node11" class="node">
<title>h9</title>
<ellipse fill="#f8fafc" stroke="#334155" stroke-width="3" cx="3366.57" cy="-66.29" rx="120.38" ry="52.15"/>
<text text-anchor="start" x="3334.32" y="-85.67" font-family="Helvetica Neue" font-size="10.00" fill="#64748b">t10 · Unknown</text>
<text text-anchor="start" x="3351.94" y="-63.92" font-family="Helvetica Neue" font-weight="bold" font-size="15.00" fill="#334155">? 10</text>
<text text-anchor="start" x="3293.44" y="-42.02" font-family="Helvetica Neue" font-weight="bold" font-size="12.00" fill="#0f172a">fractal&#45;depth&#45;transformer</text>
</g>
<!-- h8&#45;&gt;h9 -->
<g id="edge10" class="edge">
<title>h8&#45;&gt;h9</title>
<path fill="none" stroke="#94a3b8" stroke-width="5" d="M3175.46,-66.29C3192.32,-66.29 3210.24,-66.29 3228.08,-66.29"/>
<polygon fill="#94a3b8" stroke="#94a3b8" stroke-width="5" points="3228.02,-70.89 3238.52,-66.29 3228.02,-61.7 3228.02,-70.89"/>
</g>
<!-- epilogue -->
<g id="node12" class="node">
<title>epilogue</title>
<ellipse fill="#eef2ff" stroke="#4338ca" stroke-width="3" cx="3814.39" cy="-66.29" rx="255.44" ry="66.29"/>
<text text-anchor="start" x="3802.02" y="-94.67" font-family="Helvetica Neue" font-size="10.00" fill="#64748b">t_end</text>
<text text-anchor="start" x="3746.52" y="-71.92" font-family="Helvetica Neue" font-weight="bold" font-size="15.00" fill="#312e81">Current knowledge</text>
<text text-anchor="start" x="3762.27" y="-49.92" font-family="Helvetica Neue" font-size="10.00" fill="#4338ca">10 probes accumulated</text>
<text text-anchor="start" x="3646.77" y="-30.92" font-family="Helvetica Neue" font-size="10.00" fill="#64748b">Legend: slate = baseline • red = refuted • green = verified • grey = unknown</text>
</g>
<!-- h9&#45;&gt;epilogue -->
<g id="edge11" class="edge">
<title>h9&#45;&gt;epilogue</title>
<path fill="none" stroke="#94a3b8" stroke-width="5" d="M3488.21,-66.29C3505.08,-66.29 3522.95,-66.29 3541.28,-66.29"/>
<polygon fill="#94a3b8" stroke="#94a3b8" stroke-width="5" points="3541.12,-70.89 3551.62,-66.29 3541.12,-61.7 3541.12,-70.89"/>
</g>
</g>
</svg>
