<?xml version="1.0" encoding="UTF-8" standalone="no"?>
<!DOCTYPE svg PUBLIC "-//W3C//DTD SVG 1.1//EN"
 "http://www.w3.org/Graphics/SVG/1.1/DTD/svg11.dtd">
<!-- Generated by graphviz version 12.2.1 (20241206.2353)
 -->
<!-- Title: GradedEvolution Pages: 1 -->
<svg width="3181pt" height="858pt"
 viewBox="28.80 28.80 3152.65 828.80" xmlns="http://www.w3.org/2000/svg" xmlns:xlink="http://www.w3.org/1999/xlink">
<g id="graph0" class="graph" transform="scale(1 1) rotate(0) translate(86.4 771.2)">
<title>GradedEvolution</title>
<polygon fill="#ffffff" stroke="none" points="-57.6,57.6 -57.6,-742.4 3066.25,-742.4 3066.25,57.6 -57.6,57.6"/>
<g id="clust2" class="cluster">
<title>cluster_baseline</title>
<path fill="#f9fafb" stroke="#6b7280" stroke-width="2" d="M157.65,-224.87C157.65,-224.87 851.65,-224.87 851.65,-224.87 857.65,-224.87 863.65,-230.87 863.65,-236.87 863.65,-236.87 863.65,-318.42 863.65,-318.42 863.65,-324.42 857.65,-330.42 851.65,-330.42 851.65,-330.42 157.65,-330.42 157.65,-330.42 151.65,-330.42 145.65,-324.42 145.65,-318.42 145.65,-318.42 145.65,-236.87 145.65,-236.87 145.65,-230.87 151.65,-224.87 157.65,-224.87"/>
<text text-anchor="middle" x="504.65" y="-312.17" font-family="Helvetica Neue" font-size="15.00">Baseline ideas (seed knowledge graph)</text>
</g>
<g id="clust4" class="cluster">
<title>cluster_new</title>
<path fill="#ffffff" stroke="#334155" stroke-width="2" d="M1758.65,-8C1758.65,-8 2988.65,-8 2988.65,-8 2994.65,-8 3000.65,-14 3000.65,-20 3000.65,-20 3000.65,-632.55 3000.65,-632.55 3000.65,-638.55 2994.65,-644.55 2988.65,-644.55 2988.65,-644.55 1758.65,-644.55 1758.65,-644.55 1752.65,-644.55 1746.65,-638.55 1746.65,-632.55 1746.65,-632.55 1746.65,-20 1746.65,-20 1746.65,-14 1752.65,-8 1758.65,-8"/>
<text text-anchor="middle" x="2373.65" y="-626.3" font-family="Helvetica Neue" font-size="15.00">New hypotheses (chronological order • colour = age × verdict)</text>
</g>
<!-- title_main -->
<g id="node1" class="node">
<title>title_main</title>
<text text-anchor="start" x="20.4" y="-559.23" font-family="Helvetica Neue" font-weight="bold" font-size="22.00">Knowledge evolution — baseline vs new ideas</text>
<text text-anchor="start" x="20.4" y="-530.83" font-family="Helvetica Neue" font-size="14.00" fill="#475569">10 new hypotheses &#160;• &#160;8 refuted &#160;• &#160;0 verified &#160;• &#160;2 unknown</text>
</g>
<!-- title_pad -->
<g id="node3" class="node">
<title>title_pad</title>
</g>
<!-- title_main&#45;&gt;title_pad -->
<!-- baseline_root_0 -->
<g id="node4" class="node">
<title>baseline_root_0</title>
<path fill="#e5e7eb" stroke="#6b7280" stroke-width="2" d="M351.45,-287.67C351.45,-287.67 173.85,-287.67 173.85,-287.67 167.85,-287.67 161.85,-281.67 161.85,-275.67 161.85,-275.67 161.85,-252.87 161.85,-252.87 161.85,-246.87 167.85,-240.87 173.85,-240.87 173.85,-240.87 351.45,-240.87 351.45,-240.87 357.45,-240.87 363.45,-246.87 363.45,-252.87 363.45,-252.87 363.45,-275.67 363.45,-275.67 363.45,-281.67 357.45,-287.67 351.45,-287.67"/>
<text text-anchor="middle" x="262.65" y="-259.22" font-family="Helvetica Neue" font-size="14.00" fill="#374151">Data Pipeline</text>
</g>
<!-- title_main&#45;&gt;baseline_root_0 -->
<!-- legend_box -->
<g id="node2" class="node">
<title>legend_box</title>
<polygon fill="#f8fafc" stroke="none" points="1350.9,-642.25 1350.9,-670 1708.4,-670 1708.4,-642.25 1350.9,-642.25"/>
<text text-anchor="start" x="1356.9" y="-652.65" font-family="Helvetica Neue" font-weight="bold" font-size="13.00">Legend</text>
<polygon fill="#e5e7eb" stroke="none" points="1350.9,-610.5 1350.9,-638.25 1378.9,-638.25 1378.9,-610.5 1350.9,-610.5"/>
<polygon fill="none" stroke="#6b7280" points="1350.9,-610.5 1350.9,-638.25 1378.9,-638.25 1378.9,-610.5 1350.9,-610.5"/>
<text text-anchor="start" x="1388.9" y="-619.9" font-family="Helvetica Neue" font-size="13.00"> Baseline (seed knowledge graph)</text>
<text text-anchor="start" x="1388.9" y="-591.05" font-family="Helvetica Neue" font-weight="bold" font-size="11.00">New hypotheses:</text>
<text text-anchor="start" x="1478.9" y="-591.05" font-family="Helvetica Neue" font-size="11.00"> run order → stronger fill (same verdict family)</text>
<polygon fill="#e8e2e6" stroke="none" points="1350.9,-562.25 1350.9,-576.25 1378.9,-576.25 1378.9,-562.25 1350.9,-562.25"/>
<polygon fill="none" stroke="#b91c1c" points="1350.9,-562.25 1350.9,-576.25 1378.9,-576.25 1378.9,-562.25 1350.9,-562.25"/>
<polygon fill="#f2d7d8" stroke="none" points="1382.9,-562.25 1382.9,-576.25 1543.65,-576.25 1543.65,-562.25 1382.9,-562.25"/>
<polygon fill="none" stroke="#b91c1c" points="1382.9,-562.25 1382.9,-576.25 1543.65,-576.25 1543.65,-562.25 1382.9,-562.25"/>
<polygon fill="#fecaca" stroke="none" points="1547.65,-562.25 1547.65,-576.25 1708.4,-576.25 1708.4,-562.25 1547.65,-562.25"/>
<polygon fill="none" stroke="#b91c1c" points="1547.65,-562.25 1547.65,-576.25 1708.4,-576.25 1708.4,-562.25 1547.65,-562.25"/>
<text text-anchor="start" x="1356.9" y="-542.75" font-family="Helvetica Neue" font-size="10.00">Early &#160;· &#160;mid&#45;run &#160;· &#160;latest (example: refuted family)</text>
<polygon fill="#fecaca" stroke="none" points="1350.9,-500.25 1350.9,-530.25 1378.9,-530.25 1378.9,-500.25 1350.9,-500.25"/>
<polygon fill="none" stroke="#b91c1c" points="1350.9,-500.25 1350.9,-530.25 1378.9,-530.25 1378.9,-500.25 1350.9,-500.25"/>
<text text-anchor="start" x="1388.9" y="-511.9" font-family="Helvetica Neue" font-size="13.00"> ❌ Refuted</text>
<polygon fill="#bbf7d0" stroke="none" points="1350.9,-468.5 1350.9,-496.25 1378.9,-496.25 1378.9,-468.5 1350.9,-468.5"/>
<polygon fill="none" stroke="#15803d" points="1350.9,-468.5 1350.9,-496.25 1378.9,-496.25 1378.9,-468.5 1350.9,-468.5"/>
<text text-anchor="start" x="1388.9" y="-477.9" font-family="Helvetica Neue" font-size="13.00"> ✓ Verified</text>
<polygon fill="#e2e8f0" stroke="none" points="1350.9,-436.75 1350.9,-464.5 1378.9,-464.5 1378.9,-436.75 1350.9,-436.75"/>
<polygon fill="none" stroke="#475569" points="1350.9,-436.75 1350.9,-464.5 1378.9,-464.5 1378.9,-436.75 1350.9,-436.75"/>
<text text-anchor="start" x="1388.9" y="-446.15" font-family="Helvetica Neue" font-size="13.00"> ? Unknown / failed</text>
</g>
<!-- title_pad&#45;&gt;legend_box -->
<!-- baseline_root_1 -->
<g id="node5" class="node">
<title>baseline_root_1</title>
<path fill="#e5e7eb" stroke="#6b7280" stroke-width="2" d="M593.45,-287.67C593.45,-287.67 415.85,-287.67 415.85,-287.67 409.85,-287.67 403.85,-281.67 403.85,-275.67 403.85,-275.67 403.85,-252.87 403.85,-252.87 403.85,-246.87 409.85,-240.87 415.85,-240.87 415.85,-240.87 593.45,-240.87 593.45,-240.87 599.45,-240.87 605.45,-246.87 605.45,-252.87 605.45,-252.87 605.45,-275.67 605.45,-275.67 605.45,-281.67 599.45,-287.67 593.45,-287.67"/>
<text text-anchor="middle" x="504.65" y="-259.22" font-family="Helvetica Neue" font-size="14.00" fill="#374151">Neural Network</text>
</g>
<!-- hyp_0 -->
<g id="node7" class="node">
<title>hyp_0</title>
<path fill="#e5e7eb" stroke="#6b7280" stroke-width="2.5" d="M2022.55,-597.8C2022.55,-597.8 1778.75,-597.8 1778.75,-597.8 1772.75,-597.8 1766.75,-591.8 1766.75,-585.8 1766.75,-585.8 1766.75,-520.95 1766.75,-520.95 1766.75,-514.95 1772.75,-508.95 1778.75,-508.95 1778.75,-508.95 2022.55,-508.95 2022.55,-508.95 2028.55,-508.95 2034.55,-514.95 2034.55,-520.95 2034.55,-520.95 2034.55,-585.8 2034.55,-585.8 2034.55,-591.8 2028.55,-597.8 2022.55,-597.8"/>
<text text-anchor="start" x="1785.15" y="-572.55" font-family="Helvetica Neue" font-size="11.00" fill="#475569">#1 · NN · run position 0%</text>
<text text-anchor="start" x="1785.15" y="-550.25" font-family="Helvetica Neue" font-weight="bold" font-size="15.00" fill="#0f172a">entropy&#45;guided&#45;sparse&#45;attention</text>
<text text-anchor="start" x="1785.15" y="-528.35" font-family="Helvetica Neue" font-weight="bold" font-size="12.00" fill="#6b7280">REFUTED • REFUTED</text>
</g>
<!-- baseline_root_1&#45;&gt;hyp_0 -->
<g id="edge17" class="edge">
<title>baseline_root_1&#45;&gt;hyp_0</title>
<path fill="none" stroke="#64748b" stroke-width="2" stroke-dasharray="5,2" d="M538.72,-288.57C562.09,-303.28 594.42,-321.18 625.65,-330.42 1104.99,-472.26 1284.7,-230.94 1746.65,-421.95 1788.59,-439.29 1827.51,-472.47 1855.73,-501.02"/>
<polygon fill="#64748b" stroke="#64748b" stroke-width="2" points="1853.93,-502.68 1860.56,-506 1857.45,-499.27 1853.93,-502.68"/>
<text text-anchor="middle" x="1611.79" y="-361.45" font-family="Times,serif" font-size="10.00" fill="#64748b">new ideas</text>
</g>
<!-- baseline_root_2 -->
<g id="node6" class="node">
<title>baseline_root_2</title>
<path fill="#e5e7eb" stroke="#6b7280" stroke-width="2" d="M835.45,-287.67C835.45,-287.67 657.85,-287.67 657.85,-287.67 651.85,-287.67 645.85,-281.67 645.85,-275.67 645.85,-275.67 645.85,-252.87 645.85,-252.87 645.85,-246.87 651.85,-240.87 657.85,-240.87 657.85,-240.87 835.45,-240.87 835.45,-240.87 841.45,-240.87 847.45,-246.87 847.45,-252.87 847.45,-252.87 847.45,-275.67 847.45,-275.67 847.45,-281.67 841.45,-287.67 835.45,-287.67"/>
<text text-anchor="middle" x="746.65" y="-259.22" font-family="Helvetica Neue" font-size="14.00" fill="#374151">Training &amp; Evaluation</text>
</g>
<!-- hyp_1 -->
<g id="node8" class="node">
<title>hyp_1</title>
<path fill="#e8e2e5" stroke="#776470" stroke-width="2.5" d="M2339.55,-597.8C2339.55,-597.8 2125.75,-597.8 2125.75,-597.8 2119.75,-597.8 2113.75,-591.8 2113.75,-585.8 2113.75,-585.8 2113.75,-520.95 2113.75,-520.95 2113.75,-514.95 2119.75,-508.95 2125.75,-508.95 2125.75,-508.95 2339.55,-508.95 2339.55,-508.95 2345.55,-508.95 2351.55,-514.95 2351.55,-520.95 2351.55,-520.95 2351.55,-585.8 2351.55,-585.8 2351.55,-591.8 2345.55,-597.8 2339.55,-597.8"/>
<text text-anchor="start" x="2132.15" y="-572.55" font-family="Helvetica Neue" font-size="11.00" fill="#475569">#2 · NN · run position 11%</text>
<text text-anchor="start" x="2132.15" y="-550.25" font-family="Helvetica Neue" font-weight="bold" font-size="15.00" fill="#0f172a">differential&#45;attention&#45;routing</text>
<text text-anchor="start" x="2132.15" y="-528.35" font-family="Helvetica Neue" font-weight="bold" font-size="12.00" fill="#776470">REFUTED • REFUTED</text>
</g>
<!-- hyp_0&#45;&gt;hyp_1 -->
<!-- hyp_4 -->
<g id="node11" class="node">
<title>hyp_4</title>
<path fill="#f1d8da" stroke="#92464d" stroke-width="2.5" d="M1997.55,-308.7C1997.55,-308.7 1789.75,-308.7 1789.75,-308.7 1783.75,-308.7 1777.75,-302.7 1777.75,-296.7 1777.75,-296.7 1777.75,-231.85 1777.75,-231.85 1777.75,-225.85 1783.75,-219.85 1789.75,-219.85 1789.75,-219.85 1997.55,-219.85 1997.55,-219.85 2003.55,-219.85 2009.55,-225.85 2009.55,-231.85 2009.55,-231.85 2009.55,-296.7 2009.55,-296.7 2009.55,-302.7 2003.55,-308.7 1997.55,-308.7"/>
<text text-anchor="start" x="1796.15" y="-283.45" font-family="Helvetica Neue" font-size="11.00" fill="#475569">#5 · NN · run position 44%</text>
<text text-anchor="start" x="1796.15" y="-261.15" font-family="Helvetica Neue" font-weight="bold" font-size="15.00" fill="#0f172a">temporal&#45;depth&#45;modulation</text>
<text text-anchor="start" x="1796.15" y="-239.25" font-family="Helvetica Neue" font-weight="bold" font-size="12.00" fill="#92464d">REFUTED • REFUTED</text>
</g>
<!-- hyp_0&#45;&gt;hyp_4 -->
<!-- hyp_2 -->
<g id="node9" class="node">
<title>hyp_2</title>
<path fill="#ebdee1" stroke="#805a64" stroke-width="2.5" d="M2691.8,-597.8C2691.8,-597.8 2443.5,-597.8 2443.5,-597.8 2437.5,-597.8 2431.5,-591.8 2431.5,-585.8 2431.5,-585.8 2431.5,-520.95 2431.5,-520.95 2431.5,-514.95 2437.5,-508.95 2443.5,-508.95 2443.5,-508.95 2691.8,-508.95 2691.8,-508.95 2697.8,-508.95 2703.8,-514.95 2703.8,-520.95 2703.8,-520.95 2703.8,-585.8 2703.8,-585.8 2703.8,-591.8 2697.8,-597.8 2691.8,-597.8"/>
<text text-anchor="start" x="2449.9" y="-572.55" font-family="Helvetica Neue" font-size="11.00" fill="#475569">#3 · NN · run position 22%</text>
<text text-anchor="start" x="2449.9" y="-550.25" font-family="Helvetica Neue" font-weight="bold" font-size="15.00" fill="#0f172a">gradient&#45;guided&#45;sparse&#45;attention</text>
<text text-anchor="start" x="2449.9" y="-528.35" font-family="Helvetica Neue" font-weight="bold" font-size="12.00" fill="#805a64">REFUTED • REFUTED</text>
</g>
<!-- hyp_1&#45;&gt;hyp_2 -->
<!-- hyp_5 -->
<g id="node12" class="node">
<title>hyp_5</title>
<path fill="#f4d5d6" stroke="#9a3d43" stroke-width="2.5" d="M2278.18,-308.7C2278.18,-308.7 2101.12,-308.7 2101.12,-308.7 2095.12,-308.7 2089.12,-302.7 2089.12,-296.7 2089.12,-296.7 2089.12,-231.85 2089.12,-231.85 2089.12,-225.85 2095.12,-219.85 2101.12,-219.85 2101.12,-219.85 2278.18,-219.85 2278.18,-219.85 2284.18,-219.85 2290.18,-225.85 2290.18,-231.85 2290.18,-231.85 2290.18,-296.7 2290.18,-296.7 2290.18,-302.7 2284.18,-308.7 2278.18,-308.7"/>
<text text-anchor="start" x="2107.53" y="-283.45" font-family="Helvetica Neue" font-size="11.00" fill="#475569">#6 · NN · run position 56%</text>
<text text-anchor="start" x="2107.53" y="-261.15" font-family="Helvetica Neue" font-weight="bold" font-size="15.00" fill="#0f172a">adaptive&#45;sparse&#45;moe&#45;6</text>
<text text-anchor="start" x="2107.53" y="-239.25" font-family="Helvetica Neue" font-weight="bold" font-size="12.00" fill="#9a3d43">REFUTED • REFUTED</text>
</g>
<!-- hyp_1&#45;&gt;hyp_5 -->
<!-- hyp_3 -->
<g id="node10" class="node">
<title>hyp_3</title>
<path fill="#eedbde" stroke="#895058" stroke-width="2.5" d="M2968.3,-597.8C2968.3,-597.8 2795,-597.8 2795,-597.8 2789,-597.8 2783,-591.8 2783,-585.8 2783,-585.8 2783,-520.95 2783,-520.95 2783,-514.95 2789,-508.95 2795,-508.95 2795,-508.95 2968.3,-508.95 2968.3,-508.95 2974.3,-508.95 2980.3,-514.95 2980.3,-520.95 2980.3,-520.95 2980.3,-585.8 2980.3,-585.8 2980.3,-591.8 2974.3,-597.8 2968.3,-597.8"/>
<text text-anchor="start" x="2801.4" y="-572.55" font-family="Helvetica Neue" font-size="11.00" fill="#475569">#4 · NN · run position 33%</text>
<text text-anchor="start" x="2801.4" y="-550.25" font-family="Helvetica Neue" font-weight="bold" font-size="15.00" fill="#0f172a">fourier&#45;attention&#45;gates</text>
<text text-anchor="start" x="2801.4" y="-528.35" font-family="Helvetica Neue" font-weight="bold" font-size="12.00" fill="#895058">REFUTED • REFUTED</text>
</g>
<!-- hyp_2&#45;&gt;hyp_3 -->
<!-- hyp_6 -->
<g id="node13" class="node">
<title>hyp_6</title>
<path fill="#f6d2d3" stroke="#a23539" stroke-width="2.5" d="M2613.55,-308.7C2613.55,-308.7 2381.75,-308.7 2381.75,-308.7 2375.75,-308.7 2369.75,-302.7 2369.75,-296.7 2369.75,-296.7 2369.75,-231.85 2369.75,-231.85 2369.75,-225.85 2375.75,-219.85 2381.75,-219.85 2381.75,-219.85 2613.55,-219.85 2613.55,-219.85 2619.55,-219.85 2625.55,-225.85 2625.55,-231.85 2625.55,-231.85 2625.55,-296.7 2625.55,-296.7 2625.55,-302.7 2619.55,-308.7 2613.55,-308.7"/>
<text text-anchor="start" x="2388.15" y="-283.45" font-family="Helvetica Neue" font-size="11.00" fill="#475569">#7 · NN · run position 67%</text>
<text text-anchor="start" x="2388.15" y="-261.15" font-family="Helvetica Neue" font-weight="bold" font-size="15.00" fill="#0f172a">gradient&#45;informed&#45;attention&#45;v7</text>
<text text-anchor="start" x="2388.15" y="-239.25" font-family="Helvetica Neue" font-weight="bold" font-size="12.00" fill="#a23539">REFUTED • REFUTED</text>
</g>
<!-- hyp_2&#45;&gt;hyp_6 -->
<!-- hyp_7 -->
<g id="node14" class="node">
<title>hyp_7</title>
<path fill="#f9cfd0" stroke="#a92c2f" stroke-width="2.5" d="M2968.3,-308.7C2968.3,-308.7 2717,-308.7 2717,-308.7 2711,-308.7 2705,-302.7 2705,-296.7 2705,-296.7 2705,-231.85 2705,-231.85 2705,-225.85 2711,-219.85 2717,-219.85 2717,-219.85 2968.3,-219.85 2968.3,-219.85 2974.3,-219.85 2980.3,-225.85 2980.3,-231.85 2980.3,-231.85 2980.3,-296.7 2980.3,-296.7 2980.3,-302.7 2974.3,-308.7 2968.3,-308.7"/>
<text text-anchor="start" x="2723.4" y="-283.45" font-family="Helvetica Neue" font-size="11.00" fill="#475569">#8 · NN · run position 78%</text>
<text text-anchor="start" x="2723.4" y="-261.15" font-family="Helvetica Neue" font-weight="bold" font-size="15.00" fill="#0f172a">gradient&#45;conditioned&#45;attention&#45;v8</text>
<text text-anchor="start" x="2723.4" y="-239.25" font-family="Helvetica Neue" font-weight="bold" font-size="12.00" fill="#a92c2f">REFUTED • REFUTED</text>
</g>
<!-- hyp_3&#45;&gt;hyp_7 -->
<!-- hyp_4&#45;&gt;hyp_5 -->
<!-- hyp_8 -->
<g id="node15" class="node">
<title>hyp_8</title>
<path fill="#e2e7ef" stroke="#4a576b" stroke-width="2.5" d="M1979.68,-116.85C1979.68,-116.85 1835.62,-116.85 1835.62,-116.85 1829.62,-116.85 1823.62,-110.85 1823.62,-104.85 1823.62,-104.85 1823.62,-40 1823.62,-40 1823.62,-34 1829.62,-28 1835.62,-28 1835.62,-28 1979.68,-28 1979.68,-28 1985.68,-28 1991.68,-34 1991.68,-40 1991.68,-40 1991.68,-104.85 1991.68,-104.85 1991.68,-110.85 1985.68,-116.85 1979.68,-116.85"/>
<text text-anchor="start" x="1842.03" y="-91.6" font-family="Helvetica Neue" font-size="11.00" fill="#475569">#9 · NN · run position 89%</text>
<text text-anchor="start" x="1842.03" y="-69.3" font-family="Helvetica Neue" font-weight="bold" font-size="15.00" fill="#0f172a">spiral&#45;attention&#45;h9</text>
<text text-anchor="start" x="1842.03" y="-47.4" font-family="Helvetica Neue" font-weight="bold" font-size="12.00" fill="#4a576b">UNKNOWN</text>
</g>
<!-- hyp_4&#45;&gt;hyp_8 -->
<!-- hyp_5&#45;&gt;hyp_6 -->
<!-- hyp_9 -->
<g id="node16" class="node">
<title>hyp_9</title>
<path fill="#e2e8f0" stroke="#475569" stroke-width="2.5" d="M2284.18,-116.85C2284.18,-116.85 2089.12,-116.85 2089.12,-116.85 2083.12,-116.85 2077.12,-110.85 2077.12,-104.85 2077.12,-104.85 2077.12,-40 2077.12,-40 2077.12,-34 2083.12,-28 2089.12,-28 2089.12,-28 2284.18,-28 2284.18,-28 2290.18,-28 2296.18,-34 2296.18,-40 2296.18,-40 2296.18,-104.85 2296.18,-104.85 2296.18,-110.85 2290.18,-116.85 2284.18,-116.85"/>
<text text-anchor="start" x="2095.53" y="-91.6" font-family="Helvetica Neue" font-size="11.00" fill="#475569">#10 · NN · run position 100%</text>
<text text-anchor="start" x="2095.53" y="-69.3" font-family="Helvetica Neue" font-weight="bold" font-size="15.00" fill="#0f172a">fractal&#45;depth&#45;transformer</text>
<text text-anchor="start" x="2095.53" y="-47.4" font-family="Helvetica Neue" font-weight="bold" font-size="12.00" fill="#475569">UNKNOWN</text>
</g>
<!-- hyp_5&#45;&gt;hyp_9 -->
<!-- hyp_6&#45;&gt;hyp_7 -->
<!-- hyp_8&#45;&gt;hyp_9 -->
</g>
</svg>
