<?xml version="1.0" encoding="UTF-8" standalone="no"?>
<!DOCTYPE svg PUBLIC "-//W3C//DTD SVG 1.1//EN"
 "http://www.w3.org/Graphics/SVG/1.1/DTD/svg11.dtd">
<!-- Generated by graphviz version 12.2.1 (20241206.2353)
 -->
<!-- Title: ExecutiveKG Pages: 1 -->
<svg width="9312pt" height="863pt"
 viewBox="0.00 0.00 9312.00 863.15" xmlns="http://www.w3.org/2000/svg" xmlns:xlink="http://www.w3.org/1999/xlink">
<g id="graph0" class="graph" transform="scale(1 1) rotate(0) translate(144 719.15)">
<title>ExecutiveKG</title>
<polygon fill="#ffffff" stroke="none" points="-144,144 -144,-719.15 9168,-719.15 9168,144 -144,144"/>
<text text-anchor="start" x="4203" y="-541.75" font-family="SF Pro Display,Inter,Helvetica" font-weight="bold" font-size="32.00" fill="#111827">Parameter Golf: Knowledge Architecture</text>
<g id="clust1" class="cluster">
<title>cluster_data</title>
<path fill="#eff6ff" stroke="#2563eb" stroke-width="2" stroke-opacity="0.250980" d="M20,-8C20,-8 5084,-8 5084,-8 5090,-8 5096,-14 5096,-20 5096,-20 5096,-514.9 5096,-514.9 5096,-520.9 5090,-526.9 5084,-526.9 5084,-526.9 20,-526.9 20,-526.9 14,-526.9 8,-520.9 8,-514.9 8,-514.9 8,-20 8,-20 8,-14 14,-8 20,-8"/>
<text text-anchor="start" x="2495.38" y="-506.8" font-family="SF Pro Display,Inter,Helvetica" font-weight="bold" font-size="18.00" fill="#2563eb">Data Pipeline</text>
</g>
<g id="clust2" class="cluster">
<title>cluster_nn</title>
<path fill="#fef2f2" stroke="#dc2626" stroke-width="2" stroke-opacity="0.250980" d="M5165,-8C5165,-8 6064,-8 6064,-8 6070,-8 6076,-14 6076,-20 6076,-20 6076,-514.9 6076,-514.9 6076,-520.9 6070,-526.9 6064,-526.9 6064,-526.9 5165,-526.9 5165,-526.9 5159,-526.9 5153,-520.9 5153,-514.9 5153,-514.9 5153,-20 5153,-20 5153,-14 5159,-8 5165,-8"/>
<text text-anchor="start" x="5548.88" y="-506.8" font-family="SF Pro Display,Inter,Helvetica" font-weight="bold" font-size="18.00" fill="#dc2626">Neural Network</text>
</g>
<g id="clust3" class="cluster">
<title>cluster_train</title>
<path fill="#f0fdf4" stroke="#16a34a" stroke-width="2" stroke-opacity="0.250980" d="M6145,-8C6145,-8 9004,-8 9004,-8 9010,-8 9016,-14 9016,-20 9016,-20 9016,-514.9 9016,-514.9 9016,-520.9 9010,-526.9 9004,-526.9 9004,-526.9 6145,-526.9 6145,-526.9 6139,-526.9 6133,-520.9 6133,-514.9 6133,-514.9 6133,-20 6133,-20 6133,-14 6139,-8 6145,-8"/>
<text text-anchor="start" x="7481.5" y="-506.8" font-family="SF Pro Display,Inter,Helvetica" font-weight="bold" font-size="18.00" fill="#16a34a">Training &amp; Evaluation</text>
</g>
<!-- node_root_data_pipeline -->
<g id="node1" class="node">
<title>node_root_data_pipeline</title>
<path fill="#2563eb" stroke="black" stroke-width="3" d="M3253,-500.15C3253,-500.15 3061,-500.15 3061,-500.15 3055,-500.15 3049,-494.15 3049,-488.15 3049,-488.15 3049,-454.55 3049,-454.55 3049,-448.55 3055,-442.55 3061,-442.55 3061,-442.55 3253,-442.55 3253,-442.55 3259,-442.55 3265,-448.55 3265,-454.55 3265,-454.55 3265,-488.15 3265,-488.15 3265,-494.15 3259,-500.15 3253,-500.15"/>
<text text-anchor="start" x="3114.62" y="-466.55" font-family="SF Pro Display,Inter,Helvetica" font-weight="bold" font-size="14.00" fill="#ffffff">Data Pipeline</text>
</g>
<!-- node_data_sources -->
<g id="node2" class="node">
<title>node_data_sources</title>
<path fill="#3b82f6" stroke="black" stroke-width="2" d="M680.8,-262.55C680.8,-262.55 503.2,-262.55 503.2,-262.55 497.2,-262.55 491.2,-256.55 491.2,-250.55 491.2,-250.55 491.2,-231.35 491.2,-231.35 491.2,-225.35 497.2,-219.35 503.2,-219.35 503.2,-219.35 680.8,-219.35 680.8,-219.35 686.8,-219.35 692.8,-225.35 692.8,-231.35 692.8,-231.35 692.8,-250.55 692.8,-250.55 692.8,-256.55 686.8,-262.55 680.8,-262.55"/>
<text text-anchor="middle" x="592" y="-236.5" font-family="SF Pro Display,Inter,Helvetica" font-size="11.00" fill="#ffffff">Data Sources</text>
</g>
<!-- node_root_data_pipeline&#45;&gt;node_data_sources -->
<g id="edge1" class="edge">
<title>node_root_data_pipeline&#45;&gt;node_data_sources</title>
<path fill="none" stroke="#2563eb" stroke-width="2" stroke-opacity="0.376471" d="M3047.61,-481C2558.02,-481 592,-481 592,-481 592,-481 592,-273.56 592,-273.56"/>
<polygon fill="#2563eb" fill-opacity="0.376471" stroke="#2563eb" stroke-width="2" stroke-opacity="0.376471" points="594.45,-273.56 592,-266.56 589.55,-273.56 594.45,-273.56"/>
</g>
<!-- node_data_cleaning -->
<g id="node7" class="node">
<title>node_data_cleaning</title>
<path fill="#3b82f6" stroke="black" stroke-width="2" d="M1660.8,-262.55C1660.8,-262.55 1483.2,-262.55 1483.2,-262.55 1477.2,-262.55 1471.2,-256.55 1471.2,-250.55 1471.2,-250.55 1471.2,-231.35 1471.2,-231.35 1471.2,-225.35 1477.2,-219.35 1483.2,-219.35 1483.2,-219.35 1660.8,-219.35 1660.8,-219.35 1666.8,-219.35 1672.8,-225.35 1672.8,-231.35 1672.8,-231.35 1672.8,-250.55 1672.8,-250.55 1672.8,-256.55 1666.8,-262.55 1660.8,-262.55"/>
<text text-anchor="middle" x="1572" y="-236.5" font-family="SF Pro Display,Inter,Helvetica" font-size="11.00" fill="#ffffff">Cleaning &amp; Filtering</text>
</g>
<!-- node_root_data_pipeline&#45;&gt;node_data_cleaning -->
<g id="edge6" class="edge">
<title>node_root_data_pipeline&#45;&gt;node_data_cleaning</title>
<path fill="none" stroke="#2563eb" stroke-width="2" stroke-opacity="0.376471" d="M3047.74,-462C2689.31,-462 1572,-462 1572,-462 1572,-462 1572,-273.39 1572,-273.39"/>
<polygon fill="#2563eb" fill-opacity="0.376471" stroke="#2563eb" stroke-width="2" stroke-opacity="0.376471" points="1574.45,-273.39 1572,-266.39 1569.55,-273.39 1574.45,-273.39"/>
</g>
<!-- node_data_tokenization -->
<g id="node12" class="node">
<title>node_data_tokenization</title>
<path fill="#3b82f6" stroke="black" stroke-width="2" d="M2640.8,-262.55C2640.8,-262.55 2463.2,-262.55 2463.2,-262.55 2457.2,-262.55 2451.2,-256.55 2451.2,-250.55 2451.2,-250.55 2451.2,-231.35 2451.2,-231.35 2451.2,-225.35 2457.2,-219.35 2463.2,-219.35 2463.2,-219.35 2640.8,-219.35 2640.8,-219.35 2646.8,-219.35 2652.8,-225.35 2652.8,-231.35 2652.8,-231.35 2652.8,-250.55 2652.8,-250.55 2652.8,-256.55 2646.8,-262.55 2640.8,-262.55"/>
<text text-anchor="middle" x="2552" y="-236.5" font-family="SF Pro Display,Inter,Helvetica" font-size="11.00" fill="#ffffff">Tokenization</text>
</g>
<!-- node_root_data_pipeline&#45;&gt;node_data_tokenization -->
<g id="edge11" class="edge">
<title>node_root_data_pipeline&#45;&gt;node_data_tokenization</title>
<path fill="none" stroke="#2563eb" stroke-width="2" stroke-opacity="0.376471" d="M3052.6,-441.24C3052.6,-378.8 3052.6,-241 3052.6,-241 3052.6,-241 2663.63,-241 2663.63,-241"/>
<polygon fill="#2563eb" fill-opacity="0.376471" stroke="#2563eb" stroke-width="2" stroke-opacity="0.376471" points="2663.63,-238.55 2656.63,-241 2663.63,-243.45 2663.63,-238.55"/>
</g>
<!-- node_data_sequence_construction -->
<g id="node17" class="node">
<title>node_data_sequence_construction</title>
<path fill="#3b82f6" stroke="black" stroke-width="2" d="M3245.8,-262.55C3245.8,-262.55 3068.2,-262.55 3068.2,-262.55 3062.2,-262.55 3056.2,-256.55 3056.2,-250.55 3056.2,-250.55 3056.2,-231.35 3056.2,-231.35 3056.2,-225.35 3062.2,-219.35 3068.2,-219.35 3068.2,-219.35 3245.8,-219.35 3245.8,-219.35 3251.8,-219.35 3257.8,-225.35 3257.8,-231.35 3257.8,-231.35 3257.8,-250.55 3257.8,-250.55 3257.8,-256.55 3251.8,-262.55 3245.8,-262.55"/>
<text text-anchor="middle" x="3157" y="-236.5" font-family="SF Pro Display,Inter,Helvetica" font-size="11.00" fill="#ffffff">Sequence Construction</text>
</g>
<!-- node_root_data_pipeline&#45;&gt;node_data_sequence_construction -->
<g id="edge16" class="edge">
<title>node_root_data_pipeline&#45;&gt;node_data_sequence_construction</title>
<path fill="none" stroke="#2563eb" stroke-width="2" stroke-opacity="0.376471" d="M3157,-441.23C3157,-441.23 3157,-273.49 3157,-273.49"/>
<polygon fill="#2563eb" fill-opacity="0.376471" stroke="#2563eb" stroke-width="2" stroke-opacity="0.376471" points="3159.45,-273.49 3157,-266.49 3154.55,-273.49 3159.45,-273.49"/>
</g>
<!-- node_data_sampling_batching -->
<g id="node20" class="node">
<title>node_data_sampling_batching</title>
<path fill="#3b82f6" stroke="black" stroke-width="2" d="M3620.8,-262.55C3620.8,-262.55 3443.2,-262.55 3443.2,-262.55 3437.2,-262.55 3431.2,-256.55 3431.2,-250.55 3431.2,-250.55 3431.2,-231.35 3431.2,-231.35 3431.2,-225.35 3437.2,-219.35 3443.2,-219.35 3443.2,-219.35 3620.8,-219.35 3620.8,-219.35 3626.8,-219.35 3632.8,-225.35 3632.8,-231.35 3632.8,-231.35 3632.8,-250.55 3632.8,-250.55 3632.8,-256.55 3626.8,-262.55 3620.8,-262.55"/>
<text text-anchor="middle" x="3532" y="-236.5" font-family="SF Pro Display,Inter,Helvetica" font-size="11.00" fill="#ffffff">Sampling &amp; Batching</text>
</g>
<!-- node_root_data_pipeline&#45;&gt;node_data_sampling_batching -->
<g id="edge19" class="edge">
<title>node_root_data_pipeline&#45;&gt;node_data_sampling_batching</title>
<path fill="none" stroke="#2563eb" stroke-width="2" stroke-opacity="0.376471" d="M3261.4,-441.24C3261.4,-378.8 3261.4,-241 3261.4,-241 3261.4,-241 3420.44,-241 3420.44,-241"/>
<polygon fill="#2563eb" fill-opacity="0.376471" stroke="#2563eb" stroke-width="2" stroke-opacity="0.376471" points="3420.44,-243.45 3427.44,-241 3420.44,-238.55 3420.44,-243.45"/>
</g>
<!-- node_data_augmentation -->
<g id="node23" class="node">
<title>node_data_augmentation</title>
<path fill="#3b82f6" stroke="black" stroke-width="2" d="M4232.8,-262.55C4232.8,-262.55 4055.2,-262.55 4055.2,-262.55 4049.2,-262.55 4043.2,-256.55 4043.2,-250.55 4043.2,-250.55 4043.2,-231.35 4043.2,-231.35 4043.2,-225.35 4049.2,-219.35 4055.2,-219.35 4055.2,-219.35 4232.8,-219.35 4232.8,-219.35 4238.8,-219.35 4244.8,-225.35 4244.8,-231.35 4244.8,-231.35 4244.8,-250.55 4244.8,-250.55 4244.8,-256.55 4238.8,-262.55 4232.8,-262.55"/>
<text text-anchor="middle" x="4144" y="-236.5" font-family="SF Pro Display,Inter,Helvetica" font-size="11.00" fill="#ffffff">Data Augmentation</text>
</g>
<!-- node_root_data_pipeline&#45;&gt;node_data_augmentation -->
<g id="edge22" class="edge">
<title>node_root_data_pipeline&#45;&gt;node_data_augmentation</title>
<path fill="none" stroke="#2563eb" stroke-width="2" stroke-opacity="0.376471" d="M3266.4,-462C3523.37,-462 4144,-462 4144,-462 4144,-462 4144,-273.39 4144,-273.39"/>
<polygon fill="#2563eb" fill-opacity="0.376471" stroke="#2563eb" stroke-width="2" stroke-opacity="0.376471" points="4146.45,-273.39 4144,-266.39 4141.55,-273.39 4146.45,-273.39"/>
</g>
<!-- node_data_curriculum_mixing -->
<g id="node27" class="node">
<title>node_data_curriculum_mixing</title>
<path fill="#3b82f6" stroke="black" stroke-width="2" d="M4845.8,-262.55C4845.8,-262.55 4668.2,-262.55 4668.2,-262.55 4662.2,-262.55 4656.2,-256.55 4656.2,-250.55 4656.2,-250.55 4656.2,-231.35 4656.2,-231.35 4656.2,-225.35 4662.2,-219.35 4668.2,-219.35 4668.2,-219.35 4845.8,-219.35 4845.8,-219.35 4851.8,-219.35 4857.8,-225.35 4857.8,-231.35 4857.8,-231.35 4857.8,-250.55 4857.8,-250.55 4857.8,-256.55 4851.8,-262.55 4845.8,-262.55"/>
<text text-anchor="middle" x="4757" y="-236.5" font-family="SF Pro Display,Inter,Helvetica" font-size="11.00" fill="#ffffff">Curriculum &amp; Mixing</text>
</g>
<!-- node_root_data_pipeline&#45;&gt;node_data_curriculum_mixing -->
<g id="edge26" class="edge">
<title>node_root_data_pipeline&#45;&gt;node_data_curriculum_mixing</title>
<path fill="none" stroke="#2563eb" stroke-width="2" stroke-opacity="0.376471" d="M3266.34,-481C3627.15,-481 4757,-481 4757,-481 4757,-481 4757,-273.56 4757,-273.56"/>
<polygon fill="#2563eb" fill-opacity="0.376471" stroke="#2563eb" stroke-width="2" stroke-opacity="0.376471" points="4759.45,-273.56 4757,-266.56 4754.55,-273.56 4759.45,-273.56"/>
</g>
<!-- node_data_source_web_text -->
<g id="node3" class="node">
<title>node_data_source_web_text</title>
<path fill="#dbeafe" stroke="black" d="M185.15,-39.35C185.15,-39.35 18.85,-39.35 18.85,-39.35 13.62,-39.35 8.4,-34.12 8.4,-28.9 8.4,-28.9 8.4,-18.45 8.4,-18.45 8.4,-13.22 13.62,-8 18.85,-8 18.85,-8 185.15,-8 185.15,-8 190.38,-8 195.6,-13.22 195.6,-18.45 195.6,-18.45 195.6,-28.9 195.6,-28.9 195.6,-34.12 190.38,-39.35 185.15,-39.35"/>
<text text-anchor="middle" x="102" y="-20" font-family="SF Pro Display,Inter,Helvetica" font-size="9.00" fill="#2563eb">Web Text</text>
</g>
<!-- node_data_sources&#45;&gt;node_data_source_web_text -->
<g id="edge2" class="edge">
<title>node_data_sources&#45;&gt;node_data_source_web_text</title>
<path fill="none" stroke="#3b82f6" stroke-opacity="0.250980" d="M490.47,-241C346.95,-241 102,-241 102,-241 102,-241 102,-48.17 102,-48.17"/>
<polygon fill="#3b82f6" fill-opacity="0.250980" stroke="#3b82f6" stroke-opacity="0.250980" points="104.45,-48.17 102,-41.17 99.55,-48.17 104.45,-48.17"/>
</g>
<!-- node_data_source_code -->
<g id="node4" class="node">
<title>node_data_source_code</title>
<path fill="#dbeafe" stroke="black" d="M430.15,-39.35C430.15,-39.35 263.85,-39.35 263.85,-39.35 258.62,-39.35 253.4,-34.12 253.4,-28.9 253.4,-28.9 253.4,-18.45 253.4,-18.45 253.4,-13.22 258.62,-8 263.85,-8 263.85,-8 430.15,-8 430.15,-8 435.38,-8 440.6,-13.22 440.6,-18.45 440.6,-18.45 440.6,-28.9 440.6,-28.9 440.6,-34.12 435.38,-39.35 430.15,-39.35"/>
<text text-anchor="middle" x="347" y="-20" font-family="SF Pro Display,Inter,Helvetica" font-size="9.00" fill="#2563eb">Code</text>
</g>
<!-- node_data_sources&#45;&gt;node_data_source_code -->
<g id="edge3" class="edge">
<title>node_data_sources&#45;&gt;node_data_source_code</title>
<path fill="none" stroke="#3b82f6" stroke-opacity="0.250980" d="M494.8,-218.55C494.8,-163.12 494.8,-24 494.8,-24 494.8,-24 449.54,-24 449.54,-24"/>
<polygon fill="#3b82f6" fill-opacity="0.250980" stroke="#3b82f6" stroke-opacity="0.250980" points="449.54,-21.55 442.54,-24 449.54,-26.45 449.54,-21.55"/>
</g>
<!-- node_data_source_books -->
<g id="node5" class="node">
<title>node_data_source_books</title>
<path fill="#dbeafe" stroke="black" d="M675.15,-39.35C675.15,-39.35 508.85,-39.35 508.85,-39.35 503.62,-39.35 498.4,-34.12 498.4,-28.9 498.4,-28.9 498.4,-18.45 498.4,-18.45 498.4,-13.22 503.62,-8 508.85,-8 508.85,-8 675.15,-8 675.15,-8 680.38,-8 685.6,-13.22 685.6,-18.45 685.6,-18.45 685.6,-28.9 685.6,-28.9 685.6,-34.12 680.38,-39.35 675.15,-39.35"/>
<text text-anchor="middle" x="592" y="-20" font-family="SF Pro Display,Inter,Helvetica" font-size="9.00" fill="#2563eb">Books / Long&#45;Form</text>
</g>
<!-- node_data_sources&#45;&gt;node_data_source_books -->
<g id="edge4" class="edge">
<title>node_data_sources&#45;&gt;node_data_source_books</title>
<path fill="none" stroke="#3b82f6" stroke-opacity="0.250980" d="M592,-218.52C592,-218.52 592,-48.12 592,-48.12"/>
<polygon fill="#3b82f6" fill-opacity="0.250980" stroke="#3b82f6" stroke-opacity="0.250980" points="594.45,-48.12 592,-41.12 589.55,-48.12 594.45,-48.12"/>
</g>
<!-- node_data_source_synthetic -->
<g id="node6" class="node">
<title>node_data_source_synthetic</title>
<path fill="#dbeafe" stroke="black" d="M920.15,-39.35C920.15,-39.35 753.85,-39.35 753.85,-39.35 748.62,-39.35 743.4,-34.12 743.4,-28.9 743.4,-28.9 743.4,-18.45 743.4,-18.45 743.4,-13.22 748.62,-8 753.85,-8 753.85,-8 920.15,-8 920.15,-8 925.38,-8 930.6,-13.22 930.6,-18.45 930.6,-18.45 930.6,-28.9 930.6,-28.9 930.6,-34.12 925.38,-39.35 920.15,-39.35"/>
<text text-anchor="middle" x="837" y="-20" font-family="SF Pro Display,Inter,Helvetica" font-size="9.00" fill="#2563eb">Synthetic / Generated Data</text>
</g>
<!-- node_data_sources&#45;&gt;node_data_source_synthetic -->
<g id="edge5" class="edge">
<title>node_data_sources&#45;&gt;node_data_source_synthetic</title>
<path fill="none" stroke="#3b82f6" stroke-opacity="0.250980" d="M689.2,-218.55C689.2,-163.12 689.2,-24 689.2,-24 689.2,-24 734.46,-24 734.46,-24"/>
<polygon fill="#3b82f6" fill-opacity="0.250980" stroke="#3b82f6" stroke-opacity="0.250980" points="734.46,-26.45 741.46,-24 734.46,-21.55 734.46,-26.45"/>
</g>
<!-- node_data_dedup -->
<g id="node8" class="node">
<title>node_data_dedup</title>
<path fill="#dbeafe" stroke="black" d="M1165.15,-39.35C1165.15,-39.35 998.85,-39.35 998.85,-39.35 993.62,-39.35 988.4,-34.12 988.4,-28.9 988.4,-28.9 988.4,-18.45 988.4,-18.45 988.4,-13.22 993.62,-8 998.85,-8 998.85,-8 1165.15,-8 1165.15,-8 1170.38,-8 1175.6,-13.22 1175.6,-18.45 1175.6,-18.45 1175.6,-28.9 1175.6,-28.9 1175.6,-34.12 1170.38,-39.35 1165.15,-39.35"/>
<text text-anchor="middle" x="1082" y="-20" font-family="SF Pro Display,Inter,Helvetica" font-size="9.00" fill="#2563eb">Deduplication</text>
</g>
<!-- node_data_cleaning&#45;&gt;node_data_dedup -->
<g id="edge7" class="edge">
<title>node_data_cleaning&#45;&gt;node_data_dedup</title>
<path fill="none" stroke="#3b82f6" stroke-opacity="0.250980" d="M1470.47,-241C1326.95,-241 1082,-241 1082,-241 1082,-241 1082,-48.17 1082,-48.17"/>
<polygon fill="#3b82f6" fill-opacity="0.250980" stroke="#3b82f6" stroke-opacity="0.250980" points="1084.45,-48.17 1082,-41.17 1079.55,-48.17 1084.45,-48.17"/>
</g>
<!-- node_data_language_id -->
<g id="node9" class="node">
<title>node_data_language_id</title>
<path fill="#dbeafe" stroke="black" d="M1410.15,-39.35C1410.15,-39.35 1243.85,-39.35 1243.85,-39.35 1238.62,-39.35 1233.4,-34.12 1233.4,-28.9 1233.4,-28.9 1233.4,-18.45 1233.4,-18.45 1233.4,-13.22 1238.62,-8 1243.85,-8 1243.85,-8 1410.15,-8 1410.15,-8 1415.38,-8 1420.6,-13.22 1420.6,-18.45 1420.6,-18.45 1420.6,-28.9 1420.6,-28.9 1420.6,-34.12 1415.38,-39.35 1410.15,-39.35"/>
<text text-anchor="middle" x="1327" y="-20" font-family="SF Pro Display,Inter,Helvetica" font-size="9.00" fill="#2563eb">Language ID Filter</text>
</g>
<!-- node_data_cleaning&#45;&gt;node_data_language_id -->
<g id="edge8" class="edge">
<title>node_data_cleaning&#45;&gt;node_data_language_id</title>
<path fill="none" stroke="#3b82f6" stroke-opacity="0.250980" d="M1474.8,-218.55C1474.8,-163.12 1474.8,-24 1474.8,-24 1474.8,-24 1429.54,-24 1429.54,-24"/>
<polygon fill="#3b82f6" fill-opacity="0.250980" stroke="#3b82f6" stroke-opacity="0.250980" points="1429.54,-21.55 1422.54,-24 1429.54,-26.45 1429.54,-21.55"/>
</g>
<!-- node_data_quality_filter -->
<g id="node10" class="node">
<title>node_data_quality_filter</title>
<path fill="#dbeafe" stroke="black" d="M1655.15,-39.35C1655.15,-39.35 1488.85,-39.35 1488.85,-39.35 1483.62,-39.35 1478.4,-34.12 1478.4,-28.9 1478.4,-28.9 1478.4,-18.45 1478.4,-18.45 1478.4,-13.22 1483.62,-8 1488.85,-8 1488.85,-8 1655.15,-8 1655.15,-8 1660.38,-8 1665.6,-13.22 1665.6,-18.45 1665.6,-18.45 1665.6,-28.9 1665.6,-28.9 1665.6,-34.12 1660.38,-39.35 1655.15,-39.35"/>
<text text-anchor="middle" x="1572" y="-20" font-family="SF Pro Display,Inter,Helvetica" font-size="9.00" fill="#2563eb">Quality Scoring Filter</text>
</g>
<!-- node_data_cleaning&#45;&gt;node_data_quality_filter -->
<g id="edge9" class="edge">
<title>node_data_cleaning&#45;&gt;node_data_quality_filter</title>
<path fill="none" stroke="#3b82f6" stroke-opacity="0.250980" d="M1572,-218.52C1572,-218.52 1572,-48.12 1572,-48.12"/>
<polygon fill="#3b82f6" fill-opacity="0.250980" stroke="#3b82f6" stroke-opacity="0.250980" points="1574.45,-48.12 1572,-41.12 1569.55,-48.12 1574.45,-48.12"/>
</g>
<!-- node_data_toxicity_filter -->
<g id="node11" class="node">
<title>node_data_toxicity_filter</title>
<path fill="#dbeafe" stroke="black" d="M1900.15,-39.35C1900.15,-39.35 1733.85,-39.35 1733.85,-39.35 1728.62,-39.35 1723.4,-34.12 1723.4,-28.9 1723.4,-28.9 1723.4,-18.45 1723.4,-18.45 1723.4,-13.22 1728.62,-8 1733.85,-8 1733.85,-8 1900.15,-8 1900.15,-8 1905.38,-8 1910.6,-13.22 1910.6,-18.45 1910.6,-18.45 1910.6,-28.9 1910.6,-28.9 1910.6,-34.12 1905.38,-39.35 1900.15,-39.35"/>
<text text-anchor="middle" x="1817" y="-20" font-family="SF Pro Display,Inter,Helvetica" font-size="9.00" fill="#2563eb">Safety / Toxicity Filter</text>
</g>
<!-- node_data_cleaning&#45;&gt;node_data_toxicity_filter -->
<g id="edge10" class="edge">
<title>node_data_cleaning&#45;&gt;node_data_toxicity_filter</title>
<path fill="none" stroke="#3b82f6" stroke-opacity="0.250980" d="M1669.2,-218.55C1669.2,-163.12 1669.2,-24 1669.2,-24 1669.2,-24 1714.46,-24 1714.46,-24"/>
<polygon fill="#3b82f6" fill-opacity="0.250980" stroke="#3b82f6" stroke-opacity="0.250980" points="1714.46,-26.45 1721.46,-24 1714.46,-21.55 1714.46,-26.45"/>
</g>
<!-- node_tokenizer_bpe -->
<g id="node13" class="node">
<title>node_tokenizer_bpe</title>
<path fill="#dbeafe" stroke="black" d="M2145.15,-39.35C2145.15,-39.35 1978.85,-39.35 1978.85,-39.35 1973.62,-39.35 1968.4,-34.12 1968.4,-28.9 1968.4,-28.9 1968.4,-18.45 1968.4,-18.45 1968.4,-13.22 1973.62,-8 1978.85,-8 1978.85,-8 2145.15,-8 2145.15,-8 2150.38,-8 2155.6,-13.22 2155.6,-18.45 2155.6,-18.45 2155.6,-28.9 2155.6,-28.9 2155.6,-34.12 2150.38,-39.35 2145.15,-39.35"/>
<text text-anchor="middle" x="2062" y="-20" font-family="SF Pro Display,Inter,Helvetica" font-size="9.00" fill="#2563eb">BPE (Subword)</text>
</g>
<!-- node_data_tokenization&#45;&gt;node_tokenizer_bpe -->
<g id="edge12" class="edge">
<title>node_data_tokenization&#45;&gt;node_tokenizer_bpe</title>
<path fill="none" stroke="#3b82f6" stroke-opacity="0.250980" d="M2450.47,-241C2306.95,-241 2062,-241 2062,-241 2062,-241 2062,-48.17 2062,-48.17"/>
<polygon fill="#3b82f6" fill-opacity="0.250980" stroke="#3b82f6" stroke-opacity="0.250980" points="2064.45,-48.17 2062,-41.17 2059.55,-48.17 2064.45,-48.17"/>
</g>
<!-- node_tokenizer_unigram -->
<g id="node14" class="node">
<title>node_tokenizer_unigram</title>
<path fill="#dbeafe" stroke="black" d="M2390.15,-39.35C2390.15,-39.35 2223.85,-39.35 2223.85,-39.35 2218.62,-39.35 2213.4,-34.12 2213.4,-28.9 2213.4,-28.9 2213.4,-18.45 2213.4,-18.45 2213.4,-13.22 2218.62,-8 2223.85,-8 2223.85,-8 2390.15,-8 2390.15,-8 2395.38,-8 2400.6,-13.22 2400.6,-18.45 2400.6,-18.45 2400.6,-28.9 2400.6,-28.9 2400.6,-34.12 2395.38,-39.35 2390.15,-39.35"/>
<text text-anchor="middle" x="2307" y="-20" font-family="SF Pro Display,Inter,Helvetica" font-size="9.00" fill="#2563eb">Unigram (SentencePiece)</text>
</g>
<!-- node_data_tokenization&#45;&gt;node_tokenizer_unigram -->
<g id="edge13" class="edge">
<title>node_data_tokenization&#45;&gt;node_tokenizer_unigram</title>
<path fill="none" stroke="#3b82f6" stroke-opacity="0.250980" d="M2454.8,-218.55C2454.8,-163.12 2454.8,-24 2454.8,-24 2454.8,-24 2409.54,-24 2409.54,-24"/>
<polygon fill="#3b82f6" fill-opacity="0.250980" stroke="#3b82f6" stroke-opacity="0.250980" points="2409.54,-21.55 2402.54,-24 2409.54,-26.45 2409.54,-21.55"/>
</g>
<!-- node_tokenizer_bytelevel_bpe -->
<g id="node15" class="node">
<title>node_tokenizer_bytelevel_bpe</title>
<path fill="#dbeafe" stroke="black" d="M2635.15,-39.35C2635.15,-39.35 2468.85,-39.35 2468.85,-39.35 2463.62,-39.35 2458.4,-34.12 2458.4,-28.9 2458.4,-28.9 2458.4,-18.45 2458.4,-18.45 2458.4,-13.22 2463.62,-8 2468.85,-8 2468.85,-8 2635.15,-8 2635.15,-8 2640.38,-8 2645.6,-13.22 2645.6,-18.45 2645.6,-18.45 2645.6,-28.9 2645.6,-28.9 2645.6,-34.12 2640.38,-39.35 2635.15,-39.35"/>
<text text-anchor="middle" x="2552" y="-20" font-family="SF Pro Display,Inter,Helvetica" font-size="9.00" fill="#2563eb">Byte&#45;level BPE</text>
</g>
<!-- node_data_tokenization&#45;&gt;node_tokenizer_bytelevel_bpe -->
<g id="edge14" class="edge">
<title>node_data_tokenization&#45;&gt;node_tokenizer_bytelevel_bpe</title>
<path fill="none" stroke="#3b82f6" stroke-opacity="0.250980" d="M2552,-218.52C2552,-218.52 2552,-48.12 2552,-48.12"/>
<polygon fill="#3b82f6" fill-opacity="0.250980" stroke="#3b82f6" stroke-opacity="0.250980" points="2554.45,-48.12 2552,-41.12 2549.55,-48.12 2554.45,-48.12"/>
</g>
<!-- node_tokenizer_character -->
<g id="node16" class="node">
<title>node_tokenizer_character</title>
<path fill="#dbeafe" stroke="black" d="M2880.15,-39.35C2880.15,-39.35 2713.85,-39.35 2713.85,-39.35 2708.62,-39.35 2703.4,-34.12 2703.4,-28.9 2703.4,-28.9 2703.4,-18.45 2703.4,-18.45 2703.4,-13.22 2708.62,-8 2713.85,-8 2713.85,-8 2880.15,-8 2880.15,-8 2885.38,-8 2890.6,-13.22 2890.6,-18.45 2890.6,-18.45 2890.6,-28.9 2890.6,-28.9 2890.6,-34.12 2885.38,-39.35 2880.15,-39.35"/>
<text text-anchor="middle" x="2797" y="-20" font-family="SF Pro Display,Inter,Helvetica" font-size="9.00" fill="#2563eb">Character&#45;level</text>
</g>
<!-- node_data_tokenization&#45;&gt;node_tokenizer_character -->
<g id="edge15" class="edge">
<title>node_data_tokenization&#45;&gt;node_tokenizer_character</title>
<path fill="none" stroke="#3b82f6" stroke-opacity="0.250980" d="M2649.2,-218.55C2649.2,-163.12 2649.2,-24 2649.2,-24 2649.2,-24 2694.46,-24 2694.46,-24"/>
<polygon fill="#3b82f6" fill-opacity="0.250980" stroke="#3b82f6" stroke-opacity="0.250980" points="2694.46,-26.45 2701.46,-24 2694.46,-21.55 2694.46,-26.45"/>
</g>
<!-- node_sequence_packing -->
<g id="node18" class="node">
<title>node_sequence_packing</title>
<path fill="#dbeafe" stroke="black" d="M3125.15,-39.35C3125.15,-39.35 2958.85,-39.35 2958.85,-39.35 2953.62,-39.35 2948.4,-34.12 2948.4,-28.9 2948.4,-28.9 2948.4,-18.45 2948.4,-18.45 2948.4,-13.22 2953.62,-8 2958.85,-8 2958.85,-8 3125.15,-8 3125.15,-8 3130.38,-8 3135.6,-13.22 3135.6,-18.45 3135.6,-18.45 3135.6,-28.9 3135.6,-28.9 3135.6,-34.12 3130.38,-39.35 3125.15,-39.35"/>
<text text-anchor="middle" x="3042" y="-20" font-family="SF Pro Display,Inter,Helvetica" font-size="9.00" fill="#2563eb">Packing Strategy</text>
</g>
<!-- node_data_sequence_construction&#45;&gt;node_sequence_packing -->
<g id="edge17" class="edge">
<title>node_data_sequence_construction&#45;&gt;node_sequence_packing</title>
<path fill="none" stroke="#3b82f6" stroke-opacity="0.250980" d="M3095.9,-218.52C3095.9,-218.52 3095.9,-48.12 3095.9,-48.12"/>
<polygon fill="#3b82f6" fill-opacity="0.250980" stroke="#3b82f6" stroke-opacity="0.250980" points="3098.35,-48.12 3095.9,-41.12 3093.45,-48.12 3098.35,-48.12"/>
</g>
<!-- node_context_length -->
<g id="node19" class="node">
<title>node_context_length</title>
<path fill="#dbeafe" stroke="black" d="M3370.15,-39.35C3370.15,-39.35 3203.85,-39.35 3203.85,-39.35 3198.62,-39.35 3193.4,-34.12 3193.4,-28.9 3193.4,-28.9 3193.4,-18.45 3193.4,-18.45 3193.4,-13.22 3198.62,-8 3203.85,-8 3203.85,-8 3370.15,-8 3370.15,-8 3375.38,-8 3380.6,-13.22 3380.6,-18.45 3380.6,-18.45 3380.6,-28.9 3380.6,-28.9 3380.6,-34.12 3375.38,-39.35 3370.15,-39.35"/>
<text text-anchor="middle" x="3287" y="-20" font-family="SF Pro Display,Inter,Helvetica" font-size="9.00" fill="#2563eb">Context Length</text>
</g>
<!-- node_data_sequence_construction&#45;&gt;node_context_length -->
<g id="edge18" class="edge">
<title>node_data_sequence_construction&#45;&gt;node_context_length</title>
<path fill="none" stroke="#3b82f6" stroke-opacity="0.250980" d="M3225.6,-218.52C3225.6,-218.52 3225.6,-48.12 3225.6,-48.12"/>
<polygon fill="#3b82f6" fill-opacity="0.250980" stroke="#3b82f6" stroke-opacity="0.250980" points="3228.05,-48.12 3225.6,-41.12 3223.15,-48.12 3228.05,-48.12"/>
</g>
<!-- node_batching_random -->
<g id="node21" class="node">
<title>node_batching_random</title>
<path fill="#dbeafe" stroke="black" d="M3615.15,-39.35C3615.15,-39.35 3448.85,-39.35 3448.85,-39.35 3443.62,-39.35 3438.4,-34.12 3438.4,-28.9 3438.4,-28.9 3438.4,-18.45 3438.4,-18.45 3438.4,-13.22 3443.62,-8 3448.85,-8 3448.85,-8 3615.15,-8 3615.15,-8 3620.38,-8 3625.6,-13.22 3625.6,-18.45 3625.6,-18.45 3625.6,-28.9 3625.6,-28.9 3625.6,-34.12 3620.38,-39.35 3615.15,-39.35"/>
<text text-anchor="middle" x="3532" y="-20" font-family="SF Pro Display,Inter,Helvetica" font-size="9.00" fill="#2563eb">Random Sampling</text>
</g>
<!-- node_data_sampling_batching&#45;&gt;node_batching_random -->
<g id="edge20" class="edge">
<title>node_data_sampling_batching&#45;&gt;node_batching_random</title>
<path fill="none" stroke="#3b82f6" stroke-opacity="0.250980" d="M3532,-218.52C3532,-218.52 3532,-48.12 3532,-48.12"/>
<polygon fill="#3b82f6" fill-opacity="0.250980" stroke="#3b82f6" stroke-opacity="0.250980" points="3534.45,-48.12 3532,-41.12 3529.55,-48.12 3534.45,-48.12"/>
</g>
<!-- node_batching_length_bucketed -->
<g id="node22" class="node">
<title>node_batching_length_bucketed</title>
<path fill="#dbeafe" stroke="black" d="M3860.15,-39.35C3860.15,-39.35 3693.85,-39.35 3693.85,-39.35 3688.62,-39.35 3683.4,-34.12 3683.4,-28.9 3683.4,-28.9 3683.4,-18.45 3683.4,-18.45 3683.4,-13.22 3688.62,-8 3693.85,-8 3693.85,-8 3860.15,-8 3860.15,-8 3865.38,-8 3870.6,-13.22 3870.6,-18.45 3870.6,-18.45 3870.6,-28.9 3870.6,-28.9 3870.6,-34.12 3865.38,-39.35 3860.15,-39.35"/>
<text text-anchor="middle" x="3777" y="-20" font-family="SF Pro Display,Inter,Helvetica" font-size="9.00" fill="#2563eb">Length&#45;bucketed Batching</text>
</g>
<!-- node_data_sampling_batching&#45;&gt;node_batching_length_bucketed -->
<g id="edge21" class="edge">
<title>node_data_sampling_batching&#45;&gt;node_batching_length_bucketed</title>
<path fill="none" stroke="#3b82f6" stroke-opacity="0.250980" d="M3629.2,-218.55C3629.2,-163.12 3629.2,-24 3629.2,-24 3629.2,-24 3674.46,-24 3674.46,-24"/>
<polygon fill="#3b82f6" fill-opacity="0.250980" stroke="#3b82f6" stroke-opacity="0.250980" points="3674.46,-26.45 3681.46,-24 3674.46,-21.55 3674.46,-26.45"/>
</g>
<!-- node_aug_span_corruption -->
<g id="node24" class="node">
<title>node_aug_span_corruption</title>
<path fill="#dbeafe" stroke="black" d="M4105.15,-39.35C4105.15,-39.35 3938.85,-39.35 3938.85,-39.35 3933.62,-39.35 3928.4,-34.12 3928.4,-28.9 3928.4,-28.9 3928.4,-18.45 3928.4,-18.45 3928.4,-13.22 3933.62,-8 3938.85,-8 3938.85,-8 4105.15,-8 4105.15,-8 4110.38,-8 4115.6,-13.22 4115.6,-18.45 4115.6,-18.45 4115.6,-28.9 4115.6,-28.9 4115.6,-34.12 4110.38,-39.35 4105.15,-39.35"/>
<text text-anchor="middle" x="4022" y="-20" font-family="SF Pro Display,Inter,Helvetica" font-size="9.00" fill="#2563eb">Span Corruption / Masking</text>
</g>
<!-- node_data_augmentation&#45;&gt;node_aug_span_corruption -->
<g id="edge23" class="edge">
<title>node_data_augmentation&#45;&gt;node_aug_span_corruption</title>
<path fill="none" stroke="#3b82f6" stroke-opacity="0.250980" d="M4079.4,-218.52C4079.4,-218.52 4079.4,-48.12 4079.4,-48.12"/>
<polygon fill="#3b82f6" fill-opacity="0.250980" stroke="#3b82f6" stroke-opacity="0.250980" points="4081.85,-48.12 4079.4,-41.12 4076.95,-48.12 4081.85,-48.12"/>
</g>
<!-- node_aug_token_dropout -->
<g id="node25" class="node">
<title>node_aug_token_dropout</title>
<path fill="#dbeafe" stroke="black" d="M4350.15,-39.35C4350.15,-39.35 4183.85,-39.35 4183.85,-39.35 4178.62,-39.35 4173.4,-34.12 4173.4,-28.9 4173.4,-28.9 4173.4,-18.45 4173.4,-18.45 4173.4,-13.22 4178.62,-8 4183.85,-8 4183.85,-8 4350.15,-8 4350.15,-8 4355.38,-8 4360.6,-13.22 4360.6,-18.45 4360.6,-18.45 4360.6,-28.9 4360.6,-28.9 4360.6,-34.12 4355.38,-39.35 4350.15,-39.35"/>
<text text-anchor="middle" x="4267" y="-20" font-family="SF Pro Display,Inter,Helvetica" font-size="9.00" fill="#2563eb">Token Dropout</text>
</g>
<!-- node_data_augmentation&#45;&gt;node_aug_token_dropout -->
<g id="edge24" class="edge">
<title>node_data_augmentation&#45;&gt;node_aug_token_dropout</title>
<path fill="none" stroke="#3b82f6" stroke-opacity="0.250980" d="M4209.1,-218.52C4209.1,-218.52 4209.1,-48.12 4209.1,-48.12"/>
<polygon fill="#3b82f6" fill-opacity="0.250980" stroke="#3b82f6" stroke-opacity="0.250980" points="4211.55,-48.12 4209.1,-41.12 4206.65,-48.12 4211.55,-48.12"/>
</g>
<!-- node_aug_contrastive_crop -->
<g id="node26" class="node">
<title>node_aug_contrastive_crop</title>
<path fill="#dbeafe" stroke="black" d="M4595.15,-39.35C4595.15,-39.35 4428.85,-39.35 4428.85,-39.35 4423.62,-39.35 4418.4,-34.12 4418.4,-28.9 4418.4,-28.9 4418.4,-18.45 4418.4,-18.45 4418.4,-13.22 4423.62,-8 4428.85,-8 4428.85,-8 4595.15,-8 4595.15,-8 4600.38,-8 4605.6,-13.22 4605.6,-18.45 4605.6,-18.45 4605.6,-28.9 4605.6,-28.9 4605.6,-34.12 4600.38,-39.35 4595.15,-39.35"/>
<text text-anchor="middle" x="4512" y="-20" font-family="SF Pro Display,Inter,Helvetica" font-size="9.00" fill="#2563eb">Contrastive Cropping</text>
</g>
<!-- node_data_augmentation&#45;&gt;node_aug_contrastive_crop -->
<g id="edge25" class="edge">
<title>node_data_augmentation&#45;&gt;node_aug_contrastive_crop</title>
<path fill="none" stroke="#3b82f6" stroke-opacity="0.250980" d="M4245.53,-241C4354.46,-241 4512,-241 4512,-241 4512,-241 4512,-48.17 4512,-48.17"/>
<polygon fill="#3b82f6" fill-opacity="0.250980" stroke="#3b82f6" stroke-opacity="0.250980" points="4514.45,-48.17 4512,-41.17 4509.55,-48.17 4514.45,-48.17"/>
</g>
<!-- node_curriculum_length -->
<g id="node28" class="node">
<title>node_curriculum_length</title>
<path fill="#dbeafe" stroke="black" d="M4840.15,-39.35C4840.15,-39.35 4673.85,-39.35 4673.85,-39.35 4668.62,-39.35 4663.4,-34.12 4663.4,-28.9 4663.4,-28.9 4663.4,-18.45 4663.4,-18.45 4663.4,-13.22 4668.62,-8 4673.85,-8 4673.85,-8 4840.15,-8 4840.15,-8 4845.38,-8 4850.6,-13.22 4850.6,-18.45 4850.6,-18.45 4850.6,-28.9 4850.6,-28.9 4850.6,-34.12 4845.38,-39.35 4840.15,-39.35"/>
<text text-anchor="middle" x="4757" y="-20" font-family="SF Pro Display,Inter,Helvetica" font-size="9.00" fill="#2563eb">Length Curriculum</text>
</g>
<!-- node_data_curriculum_mixing&#45;&gt;node_curriculum_length -->
<g id="edge27" class="edge">
<title>node_data_curriculum_mixing&#45;&gt;node_curriculum_length</title>
<path fill="none" stroke="#3b82f6" stroke-opacity="0.250980" d="M4757,-218.52C4757,-218.52 4757,-48.12 4757,-48.12"/>
<polygon fill="#3b82f6" fill-opacity="0.250980" stroke="#3b82f6" stroke-opacity="0.250980" points="4759.45,-48.12 4757,-41.12 4754.55,-48.12 4759.45,-48.12"/>
</g>
<!-- node_mix_dataset_sampling -->
<g id="node29" class="node">
<title>node_mix_dataset_sampling</title>
<path fill="#dbeafe" stroke="black" d="M5085.15,-39.35C5085.15,-39.35 4918.85,-39.35 4918.85,-39.35 4913.62,-39.35 4908.4,-34.12 4908.4,-28.9 4908.4,-28.9 4908.4,-18.45 4908.4,-18.45 4908.4,-13.22 4913.62,-8 4918.85,-8 4918.85,-8 5085.15,-8 5085.15,-8 5090.38,-8 5095.6,-13.22 5095.6,-18.45 5095.6,-18.45 5095.6,-28.9 5095.6,-28.9 5095.6,-34.12 5090.38,-39.35 5085.15,-39.35"/>
<text text-anchor="middle" x="5002" y="-20" font-family="SF Pro Display,Inter,Helvetica" font-size="9.00" fill="#2563eb">Dataset Mixing Weights</text>
</g>
<!-- node_data_curriculum_mixing&#45;&gt;node_mix_dataset_sampling -->
<g id="edge28" class="edge">
<title>node_data_curriculum_mixing&#45;&gt;node_mix_dataset_sampling</title>
<path fill="none" stroke="#3b82f6" stroke-opacity="0.250980" d="M4854.2,-218.55C4854.2,-163.12 4854.2,-24 4854.2,-24 4854.2,-24 4899.46,-24 4899.46,-24"/>
<polygon fill="#3b82f6" fill-opacity="0.250980" stroke="#3b82f6" stroke-opacity="0.250980" points="4899.46,-26.45 4906.46,-24 4899.46,-21.55 4899.46,-26.45"/>
</g>
<!-- node_root_neural_network -->
<g id="node30" class="node">
<title>node_root_neural_network</title>
<path fill="#dc2626" stroke="black" stroke-width="3" d="M5811,-500.15C5811,-500.15 5619,-500.15 5619,-500.15 5613,-500.15 5607,-494.15 5607,-488.15 5607,-488.15 5607,-454.55 5607,-454.55 5607,-448.55 5613,-442.55 5619,-442.55 5619,-442.55 5811,-442.55 5811,-442.55 5817,-442.55 5823,-448.55 5823,-454.55 5823,-454.55 5823,-488.15 5823,-488.15 5823,-494.15 5817,-500.15 5811,-500.15"/>
<text text-anchor="start" x="5665.12" y="-466.55" font-family="SF Pro Display,Inter,Helvetica" font-weight="bold" font-size="14.00" fill="#ffffff">Neural Network</text>
</g>
<!-- node_nn_embeddings -->
<g id="node31" class="node">
<title>node_nn_embeddings</title>
<path fill="#ef4444" stroke="black" stroke-width="2" d="M5543.8,-262.55C5543.8,-262.55 5366.2,-262.55 5366.2,-262.55 5360.2,-262.55 5354.2,-256.55 5354.2,-250.55 5354.2,-250.55 5354.2,-231.35 5354.2,-231.35 5354.2,-225.35 5360.2,-219.35 5366.2,-219.35 5366.2,-219.35 5543.8,-219.35 5543.8,-219.35 5549.8,-219.35 5555.8,-225.35 5555.8,-231.35 5555.8,-231.35 5555.8,-250.55 5555.8,-250.55 5555.8,-256.55 5549.8,-262.55 5543.8,-262.55"/>
<text text-anchor="middle" x="5455" y="-236.5" font-family="SF Pro Display,Inter,Helvetica" font-size="11.00" fill="#ffffff">Embeddings</text>
</g>
<!-- node_root_neural_network&#45;&gt;node_nn_embeddings -->
<g id="edge29" class="edge">
<title>node_root_neural_network&#45;&gt;node_nn_embeddings</title>
<path fill="none" stroke="#dc2626" stroke-width="2" stroke-opacity="0.376471" d="M5610.6,-441.24C5610.6,-378.8 5610.6,-241 5610.6,-241 5610.6,-241 5566.64,-241 5566.64,-241"/>
<polygon fill="#dc2626" fill-opacity="0.376471" stroke="#dc2626" stroke-width="2" stroke-opacity="0.376471" points="5566.64,-238.55 5559.64,-241 5566.64,-243.45 5566.64,-238.55"/>
</g>
<!-- node_nn_transformer -->
<g id="node34" class="node">
<title>node_nn_transformer</title>
<path fill="#ef4444" stroke="black" stroke-width="2" d="M5803.8,-262.55C5803.8,-262.55 5626.2,-262.55 5626.2,-262.55 5620.2,-262.55 5614.2,-256.55 5614.2,-250.55 5614.2,-250.55 5614.2,-231.35 5614.2,-231.35 5614.2,-225.35 5620.2,-219.35 5626.2,-219.35 5626.2,-219.35 5803.8,-219.35 5803.8,-219.35 5809.8,-219.35 5815.8,-225.35 5815.8,-231.35 5815.8,-231.35 5815.8,-250.55 5815.8,-250.55 5815.8,-256.55 5809.8,-262.55 5803.8,-262.55"/>
<text text-anchor="middle" x="5715" y="-236.5" font-family="SF Pro Display,Inter,Helvetica" font-size="11.00" fill="#ffffff">Transformer Backbone</text>
</g>
<!-- node_root_neural_network&#45;&gt;node_nn_transformer -->
<g id="edge32" class="edge">
<title>node_root_neural_network&#45;&gt;node_nn_transformer</title>
<path fill="none" stroke="#dc2626" stroke-width="2" stroke-opacity="0.376471" d="M5715,-441.23C5715,-441.23 5715,-273.49 5715,-273.49"/>
<polygon fill="#dc2626" fill-opacity="0.376471" stroke="#dc2626" stroke-width="2" stroke-opacity="0.376471" points="5717.45,-273.49 5715,-266.49 5712.55,-273.49 5717.45,-273.49"/>
</g>
<!-- node_nn_output_head -->
<g id="node36" class="node">
<title>node_nn_output_head</title>
<path fill="#ef4444" stroke="black" stroke-width="2" d="M6063.8,-262.55C6063.8,-262.55 5886.2,-262.55 5886.2,-262.55 5880.2,-262.55 5874.2,-256.55 5874.2,-250.55 5874.2,-250.55 5874.2,-231.35 5874.2,-231.35 5874.2,-225.35 5880.2,-219.35 5886.2,-219.35 5886.2,-219.35 6063.8,-219.35 6063.8,-219.35 6069.8,-219.35 6075.8,-225.35 6075.8,-231.35 6075.8,-231.35 6075.8,-250.55 6075.8,-250.55 6075.8,-256.55 6069.8,-262.55 6063.8,-262.55"/>
<text text-anchor="middle" x="5975" y="-236.5" font-family="SF Pro Display,Inter,Helvetica" font-size="11.00" fill="#ffffff">Output Head</text>
</g>
<!-- node_root_neural_network&#45;&gt;node_nn_output_head -->
<g id="edge34" class="edge">
<title>node_root_neural_network&#45;&gt;node_nn_output_head</title>
<path fill="none" stroke="#dc2626" stroke-width="2" stroke-opacity="0.376471" d="M5819.4,-441.24C5819.4,-378.8 5819.4,-241 5819.4,-241 5819.4,-241 5863.36,-241 5863.36,-241"/>
<polygon fill="#dc2626" fill-opacity="0.376471" stroke="#dc2626" stroke-width="2" stroke-opacity="0.376471" points="5863.36,-243.45 5870.36,-241 5863.36,-238.55 5863.36,-243.45"/>
</g>
<!-- node_nn_embedding_strategy -->
<g id="node32" class="node">
<title>node_nn_embedding_strategy</title>
<path fill="#fee2e2" stroke="black" d="M5330.15,-39.35C5330.15,-39.35 5163.85,-39.35 5163.85,-39.35 5158.62,-39.35 5153.4,-34.12 5153.4,-28.9 5153.4,-28.9 5153.4,-18.45 5153.4,-18.45 5153.4,-13.22 5158.62,-8 5163.85,-8 5163.85,-8 5330.15,-8 5330.15,-8 5335.38,-8 5340.6,-13.22 5340.6,-18.45 5340.6,-18.45 5340.6,-28.9 5340.6,-28.9 5340.6,-34.12 5335.38,-39.35 5330.15,-39.35"/>
<text text-anchor="middle" x="5247" y="-20" font-family="SF Pro Display,Inter,Helvetica" font-size="9.00" fill="#dc2626">Token Embedding Strategy</text>
</g>
<!-- node_nn_embeddings&#45;&gt;node_nn_embedding_strategy -->
<g id="edge30" class="edge">
<title>node_nn_embeddings&#45;&gt;node_nn_embedding_strategy</title>
<path fill="none" stroke="#ef4444" stroke-opacity="0.250980" d="M5376.3,-218.55C5376.3,-163.12 5376.3,-24 5376.3,-24 5376.3,-24 5349.48,-24 5349.48,-24"/>
<polygon fill="#ef4444" fill-opacity="0.250980" stroke="#ef4444" stroke-opacity="0.250980" points="5349.48,-21.55 5342.48,-24 5349.48,-26.45 5349.48,-21.55"/>
</g>
<!-- node_nn_positional_encoding -->
<g id="node33" class="node">
<title>node_nn_positional_encoding</title>
<path fill="#fee2e2" stroke="black" d="M5575.15,-39.35C5575.15,-39.35 5408.85,-39.35 5408.85,-39.35 5403.62,-39.35 5398.4,-34.12 5398.4,-28.9 5398.4,-28.9 5398.4,-18.45 5398.4,-18.45 5398.4,-13.22 5403.62,-8 5408.85,-8 5408.85,-8 5575.15,-8 5575.15,-8 5580.38,-8 5585.6,-13.22 5585.6,-18.45 5585.6,-18.45 5585.6,-28.9 5585.6,-28.9 5585.6,-34.12 5580.38,-39.35 5575.15,-39.35"/>
<text text-anchor="middle" x="5492" y="-20" font-family="SF Pro Display,Inter,Helvetica" font-size="9.00" fill="#dc2626">Positional Encoding</text>
</g>
<!-- node_nn_embeddings&#45;&gt;node_nn_positional_encoding -->
<g id="edge31" class="edge">
<title>node_nn_embeddings&#45;&gt;node_nn_positional_encoding</title>
<path fill="none" stroke="#ef4444" stroke-opacity="0.250980" d="M5477.1,-218.52C5477.1,-218.52 5477.1,-48.12 5477.1,-48.12"/>
<polygon fill="#ef4444" fill-opacity="0.250980" stroke="#ef4444" stroke-opacity="0.250980" points="5479.55,-48.12 5477.1,-41.12 5474.65,-48.12 5479.55,-48.12"/>
</g>
<!-- node_transformer_block -->
<g id="node35" class="node">
<title>node_transformer_block</title>
<path fill="#fee2e2" stroke="black" d="M5820.15,-39.35C5820.15,-39.35 5653.85,-39.35 5653.85,-39.35 5648.62,-39.35 5643.4,-34.12 5643.4,-28.9 5643.4,-28.9 5643.4,-18.45 5643.4,-18.45 5643.4,-13.22 5648.62,-8 5653.85,-8 5653.85,-8 5820.15,-8 5820.15,-8 5825.38,-8 5830.6,-13.22 5830.6,-18.45 5830.6,-18.45 5830.6,-28.9 5830.6,-28.9 5830.6,-34.12 5825.38,-39.35 5820.15,-39.35"/>
<text text-anchor="middle" x="5737" y="-20" font-family="SF Pro Display,Inter,Helvetica" font-size="9.00" fill="#dc2626">Transformer Block</text>
</g>
<!-- node_nn_transformer&#45;&gt;node_transformer_block -->
<g id="edge33" class="edge">
<title>node_nn_transformer&#45;&gt;node_transformer_block</title>
<path fill="none" stroke="#ef4444" stroke-opacity="0.250980" d="M5729.6,-218.52C5729.6,-218.52 5729.6,-48.12 5729.6,-48.12"/>
<polygon fill="#ef4444" fill-opacity="0.250980" stroke="#ef4444" stroke-opacity="0.250980" points="5732.05,-48.12 5729.6,-41.12 5727.15,-48.12 5732.05,-48.12"/>
</g>
<!-- node_head_strategy -->
<g id="node37" class="node">
<title>node_head_strategy</title>
<path fill="#fee2e2" stroke="black" d="M6065.15,-39.35C6065.15,-39.35 5898.85,-39.35 5898.85,-39.35 5893.62,-39.35 5888.4,-34.12 5888.4,-28.9 5888.4,-28.9 5888.4,-18.45 5888.4,-18.45 5888.4,-13.22 5893.62,-8 5898.85,-8 5898.85,-8 6065.15,-8 6065.15,-8 6070.38,-8 6075.6,-13.22 6075.6,-18.45 6075.6,-18.45 6075.6,-28.9 6075.6,-28.9 6075.6,-34.12 6070.38,-39.35 6065.15,-39.35"/>
<text text-anchor="middle" x="5982" y="-20" font-family="SF Pro Display,Inter,Helvetica" font-size="9.00" fill="#dc2626">LM Head Strategy</text>
</g>
<!-- node_nn_output_head&#45;&gt;node_head_strategy -->
<g id="edge35" class="edge">
<title>node_nn_output_head&#45;&gt;node_head_strategy</title>
<path fill="none" stroke="#ef4444" stroke-opacity="0.250980" d="M5982,-218.52C5982,-218.52 5982,-48.12 5982,-48.12"/>
<polygon fill="#ef4444" fill-opacity="0.250980" stroke="#ef4444" stroke-opacity="0.250980" points="5984.45,-48.12 5982,-41.12 5979.55,-48.12 5984.45,-48.12"/>
</g>
<!-- node_root_training_eval -->
<g id="node38" class="node">
<title>node_root_training_eval</title>
<path fill="#16a34a" stroke="black" stroke-width="3" d="M7850,-500.15C7850,-500.15 7658,-500.15 7658,-500.15 7652,-500.15 7646,-494.15 7646,-488.15 7646,-488.15 7646,-454.55 7646,-454.55 7646,-448.55 7652,-442.55 7658,-442.55 7658,-442.55 7850,-442.55 7850,-442.55 7856,-442.55 7862,-448.55 7862,-454.55 7862,-454.55 7862,-488.15 7862,-488.15 7862,-494.15 7856,-500.15 7850,-500.15"/>
<text text-anchor="start" x="7668.12" y="-466.55" font-family="SF Pro Display,Inter,Helvetica" font-weight="bold" font-size="14.00" fill="#ffffff">Training &amp;amp; Evaluation</text>
</g>
<!-- node_train_loss -->
<g id="node39" class="node">
<title>node_train_loss</title>
<path fill="#22c55e" stroke="black" stroke-width="2" d="M6683.8,-262.55C6683.8,-262.55 6506.2,-262.55 6506.2,-262.55 6500.2,-262.55 6494.2,-256.55 6494.2,-250.55 6494.2,-250.55 6494.2,-231.35 6494.2,-231.35 6494.2,-225.35 6500.2,-219.35 6506.2,-219.35 6506.2,-219.35 6683.8,-219.35 6683.8,-219.35 6689.8,-219.35 6695.8,-225.35 6695.8,-231.35 6695.8,-231.35 6695.8,-250.55 6695.8,-250.55 6695.8,-256.55 6689.8,-262.55 6683.8,-262.55"/>
<text text-anchor="middle" x="6595" y="-236.5" font-family="SF Pro Display,Inter,Helvetica" font-size="11.00" fill="#ffffff">Loss Function</text>
</g>
<!-- node_root_training_eval&#45;&gt;node_train_loss -->
<g id="edge36" class="edge">
<title>node_root_training_eval&#45;&gt;node_train_loss</title>
<path fill="none" stroke="#16a34a" stroke-width="2" stroke-opacity="0.376471" d="M7644.7,-481C7355.99,-481 6595,-481 6595,-481 6595,-481 6595,-273.56 6595,-273.56"/>
<polygon fill="#16a34a" fill-opacity="0.376471" stroke="#16a34a" stroke-width="2" stroke-opacity="0.376471" points="6597.45,-273.56 6595,-266.56 6592.55,-273.56 6597.45,-273.56"/>
</g>
<!-- node_train_optimizer -->
<g id="node43" class="node">
<title>node_train_optimizer</title>
<path fill="#22c55e" stroke="black" stroke-width="2" d="M7288.8,-262.55C7288.8,-262.55 7111.2,-262.55 7111.2,-262.55 7105.2,-262.55 7099.2,-256.55 7099.2,-250.55 7099.2,-250.55 7099.2,-231.35 7099.2,-231.35 7099.2,-225.35 7105.2,-219.35 7111.2,-219.35 7111.2,-219.35 7288.8,-219.35 7288.8,-219.35 7294.8,-219.35 7300.8,-225.35 7300.8,-231.35 7300.8,-231.35 7300.8,-250.55 7300.8,-250.55 7300.8,-256.55 7294.8,-262.55 7288.8,-262.55"/>
<text text-anchor="middle" x="7200" y="-236.5" font-family="SF Pro Display,Inter,Helvetica" font-size="11.00" fill="#ffffff">Optimizer &amp; State</text>
</g>
<!-- node_root_training_eval&#45;&gt;node_train_optimizer -->
<g id="edge40" class="edge">
<title>node_root_training_eval&#45;&gt;node_train_optimizer</title>
<path fill="none" stroke="#16a34a" stroke-width="2" stroke-opacity="0.376471" d="M7644.55,-462C7483.09,-462 7200,-462 7200,-462 7200,-462 7200,-273.39 7200,-273.39"/>
<polygon fill="#16a34a" fill-opacity="0.376471" stroke="#16a34a" stroke-width="2" stroke-opacity="0.376471" points="7202.45,-273.39 7200,-266.39 7197.55,-273.39 7202.45,-273.39"/>
</g>
<!-- node_train_precision -->
<g id="node45" class="node">
<title>node_train_precision</title>
<path fill="#22c55e" stroke="black" stroke-width="2" d="M7655.8,-262.55C7655.8,-262.55 7478.2,-262.55 7478.2,-262.55 7472.2,-262.55 7466.2,-256.55 7466.2,-250.55 7466.2,-250.55 7466.2,-231.35 7466.2,-231.35 7466.2,-225.35 7472.2,-219.35 7478.2,-219.35 7478.2,-219.35 7655.8,-219.35 7655.8,-219.35 7661.8,-219.35 7667.8,-225.35 7667.8,-231.35 7667.8,-231.35 7667.8,-250.55 7667.8,-250.55 7667.8,-256.55 7661.8,-262.55 7655.8,-262.55"/>
<text text-anchor="middle" x="7567" y="-236.5" font-family="SF Pro Display,Inter,Helvetica" font-size="11.00" fill="#ffffff">Numerical Precision</text>
</g>
<!-- node_root_training_eval&#45;&gt;node_train_precision -->
<g id="edge42" class="edge">
<title>node_root_training_eval&#45;&gt;node_train_precision</title>
<path fill="none" stroke="#16a34a" stroke-width="2" stroke-opacity="0.376471" d="M7656.9,-441.23C7656.9,-441.23 7656.9,-273.49 7656.9,-273.49"/>
<polygon fill="#16a34a" fill-opacity="0.376471" stroke="#16a34a" stroke-width="2" stroke-opacity="0.376471" points="7659.35,-273.49 7656.9,-266.49 7654.45,-273.49 7659.35,-273.49"/>
</g>
<!-- node_train_activation_storage -->
<g id="node49" class="node">
<title>node_train_activation_storage</title>
<path fill="#22c55e" stroke="black" stroke-width="2" d="M8030.8,-262.55C8030.8,-262.55 7853.2,-262.55 7853.2,-262.55 7847.2,-262.55 7841.2,-256.55 7841.2,-250.55 7841.2,-250.55 7841.2,-231.35 7841.2,-231.35 7841.2,-225.35 7847.2,-219.35 7853.2,-219.35 7853.2,-219.35 8030.8,-219.35 8030.8,-219.35 8036.8,-219.35 8042.8,-225.35 8042.8,-231.35 8042.8,-231.35 8042.8,-250.55 8042.8,-250.55 8042.8,-256.55 8036.8,-262.55 8030.8,-262.55"/>
<text text-anchor="middle" x="7942" y="-236.5" font-family="SF Pro Display,Inter,Helvetica" font-size="11.00" fill="#ffffff">Activation Storage Strategy</text>
</g>
<!-- node_root_training_eval&#45;&gt;node_train_activation_storage -->
<g id="edge46" class="edge">
<title>node_root_training_eval&#45;&gt;node_train_activation_storage</title>
<path fill="none" stroke="#16a34a" stroke-width="2" stroke-opacity="0.376471" d="M7851.6,-441.23C7851.6,-441.23 7851.6,-273.49 7851.6,-273.49"/>
<polygon fill="#16a34a" fill-opacity="0.376471" stroke="#16a34a" stroke-width="2" stroke-opacity="0.376471" points="7854.05,-273.49 7851.6,-266.49 7849.15,-273.49 7854.05,-273.49"/>
</g>
<!-- node_train_evaluation -->
<g id="node52" class="node">
<title>node_train_evaluation</title>
<path fill="#22c55e" stroke="black" stroke-width="2" d="M8398.8,-262.55C8398.8,-262.55 8221.2,-262.55 8221.2,-262.55 8215.2,-262.55 8209.2,-256.55 8209.2,-250.55 8209.2,-250.55 8209.2,-231.35 8209.2,-231.35 8209.2,-225.35 8215.2,-219.35 8221.2,-219.35 8221.2,-219.35 8398.8,-219.35 8398.8,-219.35 8404.8,-219.35 8410.8,-225.35 8410.8,-231.35 8410.8,-231.35 8410.8,-250.55 8410.8,-250.55 8410.8,-256.55 8404.8,-262.55 8398.8,-262.55"/>
<text text-anchor="middle" x="8310" y="-236.5" font-family="SF Pro Display,Inter,Helvetica" font-size="11.00" fill="#ffffff">Evaluation Harness</text>
</g>
<!-- node_root_training_eval&#45;&gt;node_train_evaluation -->
<g id="edge49" class="edge">
<title>node_root_training_eval&#45;&gt;node_train_evaluation</title>
<path fill="none" stroke="#16a34a" stroke-width="2" stroke-opacity="0.376471" d="M7863.18,-462C8025.11,-462 8310,-462 8310,-462 8310,-462 8310,-273.39 8310,-273.39"/>
<polygon fill="#16a34a" fill-opacity="0.376471" stroke="#16a34a" stroke-width="2" stroke-opacity="0.376471" points="8312.45,-273.39 8310,-266.39 8307.55,-273.39 8312.45,-273.39"/>
</g>
<!-- node_train_budget_accounting -->
<g id="node54" class="node">
<title>node_train_budget_accounting</title>
<path fill="#22c55e" stroke="black" stroke-width="2" d="M8765.8,-262.55C8765.8,-262.55 8588.2,-262.55 8588.2,-262.55 8582.2,-262.55 8576.2,-256.55 8576.2,-250.55 8576.2,-250.55 8576.2,-231.35 8576.2,-231.35 8576.2,-225.35 8582.2,-219.35 8588.2,-219.35 8588.2,-219.35 8765.8,-219.35 8765.8,-219.35 8771.8,-219.35 8777.8,-225.35 8777.8,-231.35 8777.8,-231.35 8777.8,-250.55 8777.8,-250.55 8777.8,-256.55 8771.8,-262.55 8765.8,-262.55"/>
<text text-anchor="middle" x="8677" y="-236.5" font-family="SF Pro Display,Inter,Helvetica" font-size="11.00" fill="#ffffff">Budget Accounting</text>
</g>
<!-- node_root_training_eval&#45;&gt;node_train_budget_accounting -->
<g id="edge51" class="edge">
<title>node_root_training_eval&#45;&gt;node_train_budget_accounting</title>
<path fill="none" stroke="#16a34a" stroke-width="2" stroke-opacity="0.376471" d="M7863.05,-481C8107.29,-481 8677,-481 8677,-481 8677,-481 8677,-273.56 8677,-273.56"/>
<polygon fill="#16a34a" fill-opacity="0.376471" stroke="#16a34a" stroke-width="2" stroke-opacity="0.376471" points="8679.45,-273.56 8677,-266.56 8674.55,-273.56 8679.45,-273.56"/>
</g>
<!-- node_loss_cross_entropy -->
<g id="node40" class="node">
<title>node_loss_cross_entropy</title>
<path fill="#dcfce7" stroke="black" d="M6310.15,-39.35C6310.15,-39.35 6143.85,-39.35 6143.85,-39.35 6138.62,-39.35 6133.4,-34.12 6133.4,-28.9 6133.4,-28.9 6133.4,-18.45 6133.4,-18.45 6133.4,-13.22 6138.62,-8 6143.85,-8 6143.85,-8 6310.15,-8 6310.15,-8 6315.38,-8 6320.6,-13.22 6320.6,-18.45 6320.6,-18.45 6320.6,-28.9 6320.6,-28.9 6320.6,-34.12 6315.38,-39.35 6310.15,-39.35"/>
<text text-anchor="middle" x="6227" y="-20" font-family="SF Pro Display,Inter,Helvetica" font-size="9.00" fill="#16a34a">Cross&#45;Entropy</text>
</g>
<!-- node_train_loss&#45;&gt;node_loss_cross_entropy -->
<g id="edge37" class="edge">
<title>node_train_loss&#45;&gt;node_loss_cross_entropy</title>
<path fill="none" stroke="#22c55e" stroke-opacity="0.250980" d="M6493.47,-241C6384.54,-241 6227,-241 6227,-241 6227,-241 6227,-48.17 6227,-48.17"/>
<polygon fill="#22c55e" fill-opacity="0.250980" stroke="#22c55e" stroke-opacity="0.250980" points="6229.45,-48.17 6227,-41.17 6224.55,-48.17 6229.45,-48.17"/>
</g>
<!-- node_loss_label_smoothing -->
<g id="node41" class="node">
<title>node_loss_label_smoothing</title>
<path fill="#dcfce7" stroke="black" d="M6555.15,-39.35C6555.15,-39.35 6388.85,-39.35 6388.85,-39.35 6383.62,-39.35 6378.4,-34.12 6378.4,-28.9 6378.4,-28.9 6378.4,-18.45 6378.4,-18.45 6378.4,-13.22 6383.62,-8 6388.85,-8 6388.85,-8 6555.15,-8 6555.15,-8 6560.38,-8 6565.6,-13.22 6565.6,-18.45 6565.6,-18.45 6565.6,-28.9 6565.6,-28.9 6565.6,-34.12 6560.38,-39.35 6555.15,-39.35"/>
<text text-anchor="middle" x="6472" y="-20" font-family="SF Pro Display,Inter,Helvetica" font-size="9.00" fill="#16a34a">Label Smoothing</text>
</g>
<!-- node_train_loss&#45;&gt;node_loss_label_smoothing -->
<g id="edge38" class="edge">
<title>node_train_loss&#45;&gt;node_loss_label_smoothing</title>
<path fill="none" stroke="#22c55e" stroke-opacity="0.250980" d="M6529.9,-218.52C6529.9,-218.52 6529.9,-48.12 6529.9,-48.12"/>
<polygon fill="#22c55e" fill-opacity="0.250980" stroke="#22c55e" stroke-opacity="0.250980" points="6532.35,-48.12 6529.9,-41.12 6527.45,-48.12 6532.35,-48.12"/>
</g>
<!-- node_loss_z_loss -->
<g id="node42" class="node">
<title>node_loss_z_loss</title>
<path fill="#dcfce7" stroke="black" d="M6800.15,-39.35C6800.15,-39.35 6633.85,-39.35 6633.85,-39.35 6628.62,-39.35 6623.4,-34.12 6623.4,-28.9 6623.4,-28.9 6623.4,-18.45 6623.4,-18.45 6623.4,-13.22 6628.62,-8 6633.85,-8 6633.85,-8 6800.15,-8 6800.15,-8 6805.38,-8 6810.6,-13.22 6810.6,-18.45 6810.6,-18.45 6810.6,-28.9 6810.6,-28.9 6810.6,-34.12 6805.38,-39.35 6800.15,-39.35"/>
<text text-anchor="middle" x="6717" y="-20" font-family="SF Pro Display,Inter,Helvetica" font-size="9.00" fill="#16a34a">Z&#45;loss / Logit Penalty</text>
</g>
<!-- node_train_loss&#45;&gt;node_loss_z_loss -->
<g id="edge39" class="edge">
<title>node_train_loss&#45;&gt;node_loss_z_loss</title>
<path fill="none" stroke="#22c55e" stroke-opacity="0.250980" d="M6659.6,-218.52C6659.6,-218.52 6659.6,-48.12 6659.6,-48.12"/>
<polygon fill="#22c55e" fill-opacity="0.250980" stroke="#22c55e" stroke-opacity="0.250980" points="6662.05,-48.12 6659.6,-41.12 6657.15,-48.12 6662.05,-48.12"/>
</g>
<!-- node_optimizer_state_strategy -->
<g id="node44" class="node">
<title>node_optimizer_state_strategy</title>
<path fill="#dcfce7" stroke="black" d="M7045.15,-39.35C7045.15,-39.35 6878.85,-39.35 6878.85,-39.35 6873.62,-39.35 6868.4,-34.12 6868.4,-28.9 6868.4,-28.9 6868.4,-18.45 6868.4,-18.45 6868.4,-13.22 6873.62,-8 6878.85,-8 6878.85,-8 7045.15,-8 7045.15,-8 7050.38,-8 7055.6,-13.22 7055.6,-18.45 7055.6,-18.45 7055.6,-28.9 7055.6,-28.9 7055.6,-34.12 7050.38,-39.35 7045.15,-39.35"/>
<text text-anchor="middle" x="6962" y="-20" font-family="SF Pro Display,Inter,Helvetica" font-size="9.00" fill="#16a34a">Optimizer State Strategy</text>
</g>
<!-- node_train_optimizer&#45;&gt;node_optimizer_state_strategy -->
<g id="edge41" class="edge">
<title>node_train_optimizer&#45;&gt;node_optimizer_state_strategy</title>
<path fill="none" stroke="#22c55e" stroke-opacity="0.250980" d="M7106.3,-218.55C7106.3,-163.12 7106.3,-24 7106.3,-24 7106.3,-24 7064.34,-24 7064.34,-24"/>
<polygon fill="#22c55e" fill-opacity="0.250980" stroke="#22c55e" stroke-opacity="0.250980" points="7064.34,-21.55 7057.34,-24 7064.34,-26.45 7064.34,-21.55"/>
</g>
<!-- node_precision_fp32 -->
<g id="node46" class="node">
<title>node_precision_fp32</title>
<path fill="#dcfce7" stroke="black" d="M7290.15,-39.35C7290.15,-39.35 7123.85,-39.35 7123.85,-39.35 7118.62,-39.35 7113.4,-34.12 7113.4,-28.9 7113.4,-28.9 7113.4,-18.45 7113.4,-18.45 7113.4,-13.22 7118.62,-8 7123.85,-8 7123.85,-8 7290.15,-8 7290.15,-8 7295.38,-8 7300.6,-13.22 7300.6,-18.45 7300.6,-18.45 7300.6,-28.9 7300.6,-28.9 7300.6,-34.12 7295.38,-39.35 7290.15,-39.35"/>
<text text-anchor="middle" x="7207" y="-20" font-family="SF Pro Display,Inter,Helvetica" font-size="9.00" fill="#16a34a">FP32 Training</text>
</g>
<!-- node_train_precision&#45;&gt;node_precision_fp32 -->
<g id="edge43" class="edge">
<title>node_train_precision&#45;&gt;node_precision_fp32</title>
<path fill="none" stroke="#22c55e" stroke-opacity="0.250980" d="M7465.29,-241C7400.85,-241 7329.6,-241 7329.6,-241 7329.6,-241 7329.6,-24 7329.6,-24 7329.6,-24 7309.37,-24 7309.37,-24"/>
<polygon fill="#22c55e" fill-opacity="0.250980" stroke="#22c55e" stroke-opacity="0.250980" points="7309.37,-21.55 7302.37,-24 7309.37,-26.45 7309.37,-21.55"/>
</g>
<!-- node_precision_fp16_bf16 -->
<g id="node47" class="node">
<title>node_precision_fp16_bf16</title>
<path fill="#dcfce7" stroke="black" d="M7535.15,-39.35C7535.15,-39.35 7368.85,-39.35 7368.85,-39.35 7363.62,-39.35 7358.4,-34.12 7358.4,-28.9 7358.4,-28.9 7358.4,-18.45 7358.4,-18.45 7358.4,-13.22 7363.62,-8 7368.85,-8 7368.85,-8 7535.15,-8 7535.15,-8 7540.38,-8 7545.6,-13.22 7545.6,-18.45 7545.6,-18.45 7545.6,-28.9 7545.6,-28.9 7545.6,-34.12 7540.38,-39.35 7535.15,-39.35"/>
<text text-anchor="middle" x="7452" y="-20" font-family="SF Pro Display,Inter,Helvetica" font-size="9.00" fill="#16a34a">FP16/BF16 Mixed Precision</text>
</g>
<!-- node_train_precision&#45;&gt;node_precision_fp16_bf16 -->
<g id="edge44" class="edge">
<title>node_train_precision&#45;&gt;node_precision_fp16_bf16</title>
<path fill="none" stroke="#22c55e" stroke-opacity="0.250980" d="M7505.9,-218.52C7505.9,-218.52 7505.9,-48.12 7505.9,-48.12"/>
<polygon fill="#22c55e" fill-opacity="0.250980" stroke="#22c55e" stroke-opacity="0.250980" points="7508.35,-48.12 7505.9,-41.12 7503.45,-48.12 7508.35,-48.12"/>
</g>
<!-- node_precision_fp8 -->
<g id="node48" class="node">
<title>node_precision_fp8</title>
<path fill="#dcfce7" stroke="black" d="M7780.15,-39.35C7780.15,-39.35 7613.85,-39.35 7613.85,-39.35 7608.62,-39.35 7603.4,-34.12 7603.4,-28.9 7603.4,-28.9 7603.4,-18.45 7603.4,-18.45 7603.4,-13.22 7608.62,-8 7613.85,-8 7613.85,-8 7780.15,-8 7780.15,-8 7785.38,-8 7790.6,-13.22 7790.6,-18.45 7790.6,-18.45 7790.6,-28.9 7790.6,-28.9 7790.6,-34.12 7785.38,-39.35 7780.15,-39.35"/>
<text text-anchor="middle" x="7697" y="-20" font-family="SF Pro Display,Inter,Helvetica" font-size="9.00" fill="#16a34a">FP8 Activations (Advanced)</text>
</g>
<!-- node_train_precision&#45;&gt;node_precision_fp8 -->
<g id="edge45" class="edge">
<title>node_train_precision&#45;&gt;node_precision_fp8</title>
<path fill="none" stroke="#22c55e" stroke-opacity="0.250980" d="M7635.6,-218.52C7635.6,-218.52 7635.6,-48.12 7635.6,-48.12"/>
<polygon fill="#22c55e" fill-opacity="0.250980" stroke="#22c55e" stroke-opacity="0.250980" points="7638.05,-48.12 7635.6,-41.12 7633.15,-48.12 7638.05,-48.12"/>
</g>
<!-- node_activations_store_all -->
<g id="node50" class="node">
<title>node_activations_store_all</title>
<path fill="#dcfce7" stroke="black" d="M8025.15,-39.35C8025.15,-39.35 7858.85,-39.35 7858.85,-39.35 7853.62,-39.35 7848.4,-34.12 7848.4,-28.9 7848.4,-28.9 7848.4,-18.45 7848.4,-18.45 7848.4,-13.22 7853.62,-8 7858.85,-8 7858.85,-8 8025.15,-8 8025.15,-8 8030.38,-8 8035.6,-13.22 8035.6,-18.45 8035.6,-18.45 8035.6,-28.9 8035.6,-28.9 8035.6,-34.12 8030.38,-39.35 8025.15,-39.35"/>
<text text-anchor="middle" x="7942" y="-20" font-family="SF Pro Display,Inter,Helvetica" font-size="9.00" fill="#16a34a">Store All Activations</text>
</g>
<!-- node_train_activation_storage&#45;&gt;node_activations_store_all -->
<g id="edge47" class="edge">
<title>node_train_activation_storage&#45;&gt;node_activations_store_all</title>
<path fill="none" stroke="#22c55e" stroke-opacity="0.250980" d="M7942,-218.52C7942,-218.52 7942,-48.12 7942,-48.12"/>
<polygon fill="#22c55e" fill-opacity="0.250980" stroke="#22c55e" stroke-opacity="0.250980" points="7944.45,-48.12 7942,-41.12 7939.55,-48.12 7944.45,-48.12"/>
</g>
<!-- node_activations_checkpoint -->
<g id="node51" class="node">
<title>node_activations_checkpoint</title>
<path fill="#dcfce7" stroke="black" d="M8270.15,-39.35C8270.15,-39.35 8103.85,-39.35 8103.85,-39.35 8098.62,-39.35 8093.4,-34.12 8093.4,-28.9 8093.4,-28.9 8093.4,-18.45 8093.4,-18.45 8093.4,-13.22 8098.62,-8 8103.85,-8 8103.85,-8 8270.15,-8 8270.15,-8 8275.38,-8 8280.6,-13.22 8280.6,-18.45 8280.6,-18.45 8280.6,-28.9 8280.6,-28.9 8280.6,-34.12 8275.38,-39.35 8270.15,-39.35"/>
<text text-anchor="middle" x="8187" y="-20" font-family="SF Pro Display,Inter,Helvetica" font-size="9.00" fill="#16a34a">Gradient Checkpointing</text>
</g>
<!-- node_train_activation_storage&#45;&gt;node_activations_checkpoint -->
<g id="edge48" class="edge">
<title>node_train_activation_storage&#45;&gt;node_activations_checkpoint</title>
<path fill="none" stroke="#22c55e" stroke-opacity="0.250980" d="M8039.2,-218.55C8039.2,-163.12 8039.2,-24 8039.2,-24 8039.2,-24 8084.46,-24 8084.46,-24"/>
<polygon fill="#22c55e" fill-opacity="0.250980" stroke="#22c55e" stroke-opacity="0.250980" points="8084.46,-26.45 8091.46,-24 8084.46,-21.55 8084.46,-26.45"/>
</g>
<!-- node_eval_param_golf -->
<g id="node53" class="node">
<title>node_eval_param_golf</title>
<path fill="#dcfce7" stroke="black" d="M8515.15,-39.35C8515.15,-39.35 8348.85,-39.35 8348.85,-39.35 8343.62,-39.35 8338.4,-34.12 8338.4,-28.9 8338.4,-28.9 8338.4,-18.45 8338.4,-18.45 8338.4,-13.22 8343.62,-8 8348.85,-8 8348.85,-8 8515.15,-8 8515.15,-8 8520.38,-8 8525.6,-13.22 8525.6,-18.45 8525.6,-18.45 8525.6,-28.9 8525.6,-28.9 8525.6,-34.12 8520.38,-39.35 8515.15,-39.35"/>
<text text-anchor="middle" x="8432" y="-20" font-family="SF Pro Display,Inter,Helvetica" font-size="9.00" fill="#16a34a">OpenAI Parameter Golf Benchmark</text>
</g>
<!-- node_train_evaluation&#45;&gt;node_eval_param_golf -->
<g id="edge50" class="edge">
<title>node_train_evaluation&#45;&gt;node_eval_param_golf</title>
<path fill="none" stroke="#22c55e" stroke-opacity="0.250980" d="M8374.6,-218.52C8374.6,-218.52 8374.6,-48.12 8374.6,-48.12"/>
<polygon fill="#22c55e" fill-opacity="0.250980" stroke="#22c55e" stroke-opacity="0.250980" points="8377.05,-48.12 8374.6,-41.12 8372.15,-48.12 8377.05,-48.12"/>
</g>
<!-- node_budget_parameters -->
<g id="node55" class="node">
<title>node_budget_parameters</title>
<path fill="#dcfce7" stroke="black" d="M8760.15,-39.35C8760.15,-39.35 8593.85,-39.35 8593.85,-39.35 8588.62,-39.35 8583.4,-34.12 8583.4,-28.9 8583.4,-28.9 8583.4,-18.45 8583.4,-18.45 8583.4,-13.22 8588.62,-8 8593.85,-8 8593.85,-8 8760.15,-8 8760.15,-8 8765.38,-8 8770.6,-13.22 8770.6,-18.45 8770.6,-18.45 8770.6,-28.9 8770.6,-28.9 8770.6,-34.12 8765.38,-39.35 8760.15,-39.35"/>
<text text-anchor="middle" x="8677" y="-20" font-family="SF Pro Display,Inter,Helvetica" font-size="9.00" fill="#16a34a">Parameter Counter</text>
</g>
<!-- node_train_budget_accounting&#45;&gt;node_budget_parameters -->
<g id="edge52" class="edge">
<title>node_train_budget_accounting&#45;&gt;node_budget_parameters</title>
<path fill="none" stroke="#22c55e" stroke-opacity="0.250980" d="M8677,-218.52C8677,-218.52 8677,-48.12 8677,-48.12"/>
<polygon fill="#22c55e" fill-opacity="0.250980" stroke="#22c55e" stroke-opacity="0.250980" points="8679.45,-48.12 8677,-41.12 8674.55,-48.12 8679.45,-48.12"/>
</g>
<!-- node_budget_memory -->
<g id="node56" class="node">
<title>node_budget_memory</title>
<path fill="#dcfce7" stroke="black" d="M9005.15,-39.35C9005.15,-39.35 8838.85,-39.35 8838.85,-39.35 8833.62,-39.35 8828.4,-34.12 8828.4,-28.9 8828.4,-28.9 8828.4,-18.45 8828.4,-18.45 8828.4,-13.22 8833.62,-8 8838.85,-8 8838.85,-8 9005.15,-8 9005.15,-8 9010.38,-8 9015.6,-13.22 9015.6,-18.45 9015.6,-18.45 9015.6,-28.9 9015.6,-28.9 9015.6,-34.12 9010.38,-39.35 9005.15,-39.35"/>
<text text-anchor="middle" x="8922" y="-20" font-family="SF Pro Display,Inter,Helvetica" font-size="9.00" fill="#16a34a">Peak Memory Estimator</text>
</g>
<!-- node_train_budget_accounting&#45;&gt;node_budget_memory -->
<g id="edge53" class="edge">
<title>node_train_budget_accounting&#45;&gt;node_budget_memory</title>
<path fill="none" stroke="#22c55e" stroke-opacity="0.250980" d="M8774.2,-218.55C8774.2,-163.12 8774.2,-24 8774.2,-24 8774.2,-24 8819.46,-24 8819.46,-24"/>
<polygon fill="#22c55e" fill-opacity="0.250980" stroke="#22c55e" stroke-opacity="0.250980" points="8819.46,-26.45 8826.46,-24 8819.46,-21.55 8819.46,-26.45"/>
</g>
</g>
</svg>
