<?xml version="1.0" encoding="UTF-8" standalone="no"?>
<!DOCTYPE svg PUBLIC "-//W3C//DTD SVG 1.1//EN"
 "http://www.w3.org/Graphics/SVG/1.1/DTD/svg11.dtd">
<!-- Generated by graphviz version 12.2.1 (20241206.2353)
 -->
<!-- Title: KGWithDeadEnds Pages: 1 -->
<svg width="5477pt" height="712pt"
 viewBox="0.00 0.00 5476.80 711.88" xmlns="http://www.w3.org/2000/svg" xmlns:xlink="http://www.w3.org/1999/xlink">
<g id="graph0" class="graph" transform="scale(1 1) rotate(0) translate(108 603.88)">
<title>KGWithDeadEnds</title>
<polygon fill="#fafafa" stroke="none" points="-108,108 -108,-603.88 5368.8,-603.88 5368.8,108 -108,108"/>
<text text-anchor="middle" x="2630.4" y="-474.77" font-family="Helvetica,sans-Serif" font-size="18.00">Knowledge Graph: Tried, Failed, and Untested</text>
<g id="clust1" class="cluster">
<title>cluster_legend</title>
<path fill="#fafafa" stroke="#9ca3af" d="M5190.8,-8C5190.8,-8 5240.8,-8 5240.8,-8 5246.8,-8 5252.8,-14 5252.8,-20 5252.8,-20 5252.8,-449.12 5252.8,-449.12 5252.8,-455.12 5246.8,-461.12 5240.8,-461.12 5240.8,-461.12 5190.8,-461.12 5190.8,-461.12 5184.8,-461.12 5178.8,-455.12 5178.8,-449.12 5178.8,-449.12 5178.8,-20 5178.8,-20 5178.8,-14 5184.8,-8 5190.8,-8"/>
<text text-anchor="middle" x="5215.8" y="-440.02" font-family="Helvetica,sans-Serif" font-size="18.00">Legend</text>
</g>
<!-- node_root_data_pipeline -->
<g id="node1" class="node">
<title>node_root_data_pipeline</title>
<path fill="#2563eb" stroke="black" stroke-width="3" d="M1546.8,-446.68C1546.8,-446.68 1390.8,-446.68 1390.8,-446.68 1384.8,-446.68 1378.8,-440.68 1378.8,-434.68 1378.8,-434.68 1378.8,-401.07 1378.8,-401.07 1378.8,-395.07 1384.8,-389.07 1390.8,-389.07 1390.8,-389.07 1546.8,-389.07 1546.8,-389.07 1552.8,-389.07 1558.8,-395.07 1558.8,-401.07 1558.8,-401.07 1558.8,-434.68 1558.8,-434.68 1558.8,-440.68 1552.8,-446.68 1546.8,-446.68"/>
<text text-anchor="middle" x="1468.8" y="-412.85" font-family="Helvetica,sans-Serif" font-size="12.00" fill="white">Data Pipeline</text>
</g>
<!-- node_data_sources -->
<g id="node2" class="node">
<title>node_data_sources</title>
<path fill="#60a5fa" stroke="black" stroke-width="2" d="M373.8,-292.27C373.8,-292.27 253.8,-292.27 253.8,-292.27 247.8,-292.27 241.8,-286.27 241.8,-280.27 241.8,-280.27 241.8,-268.27 241.8,-268.27 241.8,-262.27 247.8,-256.27 253.8,-256.27 253.8,-256.27 373.8,-256.27 373.8,-256.27 379.8,-256.27 385.8,-262.27 385.8,-268.27 385.8,-268.27 385.8,-280.27 385.8,-280.27 385.8,-286.27 379.8,-292.27 373.8,-292.27"/>
<text text-anchor="middle" x="313.8" y="-270.4" font-family="Helvetica,sans-Serif" font-size="10.00" fill="white">Data Sources</text>
</g>
<!-- node_root_data_pipeline&#45;&gt;node_data_sources -->
<g id="edge1" class="edge">
<title>node_root_data_pipeline&#45;&gt;node_data_sources</title>
<path fill="none" stroke="#94a3b8" stroke-width="1.5" d="M1377.69,-405.7C1158.68,-378.86 605.39,-311.02 395.9,-285.34"/>
<polygon fill="#94a3b8" stroke="#94a3b8" stroke-width="1.5" points="396.28,-282.92 389.04,-284.5 395.69,-287.78 396.28,-282.92"/>
</g>
<!-- node_data_cleaning -->
<g id="node6" class="node">
<title>node_data_cleaning</title>
<path fill="#60a5fa" stroke="black" stroke-width="2" d="M871.8,-292.27C871.8,-292.27 751.8,-292.27 751.8,-292.27 745.8,-292.27 739.8,-286.27 739.8,-280.27 739.8,-280.27 739.8,-268.27 739.8,-268.27 739.8,-262.27 745.8,-256.27 751.8,-256.27 751.8,-256.27 871.8,-256.27 871.8,-256.27 877.8,-256.27 883.8,-262.27 883.8,-268.27 883.8,-268.27 883.8,-280.27 883.8,-280.27 883.8,-286.27 877.8,-292.27 871.8,-292.27"/>
<text text-anchor="middle" x="811.8" y="-270.4" font-family="Helvetica,sans-Serif" font-size="10.00" fill="white">Cleaning &amp; Filtering</text>
</g>
<!-- node_root_data_pipeline&#45;&gt;node_data_cleaning -->
<g id="edge5" class="edge">
<title>node_root_data_pipeline&#45;&gt;node_data_cleaning</title>
<path fill="none" stroke="#94a3b8" stroke-width="1.5" d="M1377.45,-397.19C1248.97,-369.5 1016.87,-319.47 893.71,-292.93"/>
<polygon fill="#94a3b8" stroke="#94a3b8" stroke-width="1.5" points="894.25,-290.54 886.89,-291.46 893.22,-295.33 894.25,-290.54"/>
</g>
<!-- node_data_tokenization -->
<g id="node10" class="node">
<title>node_data_tokenization</title>
<path fill="#60a5fa" stroke="black" stroke-width="2" d="M1362.8,-292.27C1362.8,-292.27 1242.8,-292.27 1242.8,-292.27 1236.8,-292.27 1230.8,-286.27 1230.8,-280.27 1230.8,-280.27 1230.8,-268.27 1230.8,-268.27 1230.8,-262.27 1236.8,-256.27 1242.8,-256.27 1242.8,-256.27 1362.8,-256.27 1362.8,-256.27 1368.8,-256.27 1374.8,-262.27 1374.8,-268.27 1374.8,-268.27 1374.8,-280.27 1374.8,-280.27 1374.8,-286.27 1368.8,-292.27 1362.8,-292.27"/>
<text text-anchor="middle" x="1302.8" y="-270.4" font-family="Helvetica,sans-Serif" font-size="10.00" fill="white">Tokenization</text>
</g>
<!-- node_root_data_pipeline&#45;&gt;node_data_tokenization -->
<g id="edge9" class="edge">
<title>node_root_data_pipeline&#45;&gt;node_data_tokenization</title>
<path fill="none" stroke="#94a3b8" stroke-width="1.5" d="M1434.81,-387.88C1404.03,-361.62 1359.24,-323.42 1330.56,-298.95"/>
<polygon fill="#94a3b8" stroke="#94a3b8" stroke-width="1.5" points="1332.28,-297.2 1325.36,-294.52 1329.1,-300.93 1332.28,-297.2"/>
</g>
<!-- node_data_sequence_construction -->
<g id="node14" class="node">
<title>node_data_sequence_construction</title>
<path fill="#60a5fa" stroke="black" stroke-width="2" d="M1618.8,-292.27C1618.8,-292.27 1498.8,-292.27 1498.8,-292.27 1492.8,-292.27 1486.8,-286.27 1486.8,-280.27 1486.8,-280.27 1486.8,-268.27 1486.8,-268.27 1486.8,-262.27 1492.8,-256.27 1498.8,-256.27 1498.8,-256.27 1618.8,-256.27 1618.8,-256.27 1624.8,-256.27 1630.8,-262.27 1630.8,-268.27 1630.8,-268.27 1630.8,-280.27 1630.8,-280.27 1630.8,-286.27 1624.8,-292.27 1618.8,-292.27"/>
<text text-anchor="middle" x="1558.8" y="-270.4" font-family="Helvetica,sans-Serif" font-size="10.00" fill="white">Sequence Construction</text>
</g>
<!-- node_root_data_pipeline&#45;&gt;node_data_sequence_construction -->
<g id="edge13" class="edge">
<title>node_root_data_pipeline&#45;&gt;node_data_sequence_construction</title>
<path fill="none" stroke="#94a3b8" stroke-width="1.5" d="M1487.23,-387.88C1503.49,-362.29 1526.97,-325.35 1542.55,-300.85"/>
<polygon fill="#94a3b8" stroke="#94a3b8" stroke-width="1.5" points="1544.6,-302.19 1546.29,-294.96 1540.46,-299.56 1544.6,-302.19"/>
</g>
<!-- node_data_sampling_batching -->
<g id="node17" class="node">
<title>node_data_sampling_batching</title>
<path fill="#60a5fa" stroke="black" stroke-width="2" d="M1950.8,-292.27C1950.8,-292.27 1830.8,-292.27 1830.8,-292.27 1824.8,-292.27 1818.8,-286.27 1818.8,-280.27 1818.8,-280.27 1818.8,-268.27 1818.8,-268.27 1818.8,-262.27 1824.8,-256.27 1830.8,-256.27 1830.8,-256.27 1950.8,-256.27 1950.8,-256.27 1956.8,-256.27 1962.8,-262.27 1962.8,-268.27 1962.8,-268.27 1962.8,-280.27 1962.8,-280.27 1962.8,-286.27 1956.8,-292.27 1950.8,-292.27"/>
<text text-anchor="middle" x="1890.8" y="-270.4" font-family="Helvetica,sans-Serif" font-size="10.00" fill="white">Sampling &amp; Batching</text>
</g>
<!-- node_root_data_pipeline&#45;&gt;node_data_sampling_batching -->
<g id="edge16" class="edge">
<title>node_root_data_pipeline&#45;&gt;node_data_sampling_batching</title>
<path fill="none" stroke="#94a3b8" stroke-width="1.5" d="M1555.98,-387.62C1637.39,-360.31 1756.84,-320.22 1828.88,-296.05"/>
<polygon fill="#94a3b8" stroke="#94a3b8" stroke-width="1.5" points="1829.42,-298.45 1835.28,-293.91 1827.86,-293.81 1829.42,-298.45"/>
</g>
<!-- node_data_augmentation -->
<g id="node20" class="node">
<title>node_data_augmentation</title>
<path fill="#60a5fa" stroke="black" stroke-width="2" d="M2365.8,-292.27C2365.8,-292.27 2245.8,-292.27 2245.8,-292.27 2239.8,-292.27 2233.8,-286.27 2233.8,-280.27 2233.8,-280.27 2233.8,-268.27 2233.8,-268.27 2233.8,-262.27 2239.8,-256.27 2245.8,-256.27 2245.8,-256.27 2365.8,-256.27 2365.8,-256.27 2371.8,-256.27 2377.8,-262.27 2377.8,-268.27 2377.8,-268.27 2377.8,-280.27 2377.8,-280.27 2377.8,-286.27 2371.8,-292.27 2365.8,-292.27"/>
<text text-anchor="middle" x="2305.8" y="-270.4" font-family="Helvetica,sans-Serif" font-size="10.00" fill="white">Data Augmentation</text>
</g>
<!-- node_root_data_pipeline&#45;&gt;node_data_augmentation -->
<g id="edge19" class="edge">
<title>node_root_data_pipeline&#45;&gt;node_data_augmentation</title>
<path fill="none" stroke="#94a3b8" stroke-width="1.5" d="M1559.97,-401.45C1724.22,-373.66 2067.33,-315.62 2224.28,-289.07"/>
<polygon fill="#94a3b8" stroke="#94a3b8" stroke-width="1.5" points="2224.25,-291.56 2230.74,-287.97 2223.43,-286.73 2224.25,-291.56"/>
</g>
<!-- node_data_source_web_text -->
<g id="node3" class="node">
<title>node_data_source_web_text</title>
<path fill="#bfdbfe" stroke="black" stroke-width="2" d="M121.2,-154.07C121.2,-154.07 8.4,-154.07 8.4,-154.07 4.2,-154.07 0,-149.88 0,-145.67 0,-145.67 0,-137.28 0,-137.28 0,-133.07 4.2,-128.88 8.4,-128.88 8.4,-128.88 121.2,-128.88 121.2,-128.88 125.4,-128.88 129.6,-133.07 129.6,-137.28 129.6,-137.28 129.6,-145.67 129.6,-145.67 129.6,-149.88 125.4,-154.07 121.2,-154.07"/>
<text text-anchor="middle" x="64.8" y="-138.38" font-family="Helvetica,sans-Serif" font-size="8.00" fill="#1f2937">Web Text</text>
</g>
<!-- node_data_sources&#45;&gt;node_data_source_web_text -->
<g id="edge2" class="edge">
<title>node_data_sources&#45;&gt;node_data_source_web_text</title>
<path fill="none" stroke="#94a3b8" stroke-width="1.5" d="M279.7,-255.36C231.32,-229.95 143.44,-183.79 96.45,-159.1"/>
<polygon fill="#94a3b8" stroke="#94a3b8" stroke-width="1.5" points="97.79,-157.04 90.45,-155.95 95.51,-161.37 97.79,-157.04"/>
</g>
<!-- node_data_source_code -->
<g id="node4" class="node">
<title>node_data_source_code</title>
<path fill="#bfdbfe" stroke="black" stroke-width="2" d="M287.2,-154.07C287.2,-154.07 174.4,-154.07 174.4,-154.07 170.2,-154.07 166,-149.88 166,-145.67 166,-145.67 166,-137.28 166,-137.28 166,-133.07 170.2,-128.88 174.4,-128.88 174.4,-128.88 287.2,-128.88 287.2,-128.88 291.4,-128.88 295.6,-133.07 295.6,-137.28 295.6,-137.28 295.6,-145.67 295.6,-145.67 295.6,-149.88 291.4,-154.07 287.2,-154.07"/>
<text text-anchor="middle" x="230.8" y="-138.38" font-family="Helvetica,sans-Serif" font-size="8.00" fill="#1f2937">Code</text>
</g>
<!-- node_data_sources&#45;&gt;node_data_source_code -->
<g id="edge3" class="edge">
<title>node_data_sources&#45;&gt;node_data_source_code</title>
<path fill="none" stroke="#94a3b8" stroke-width="1.5" d="M302.43,-255.36C286.97,-230.99 259.39,-187.54 243.34,-162.24"/>
<polygon fill="#94a3b8" stroke="#94a3b8" stroke-width="1.5" points="245.6,-161.23 239.78,-156.63 241.46,-163.85 245.6,-161.23"/>
</g>
<!-- node_data_source_books -->
<g id="node5" class="node">
<title>node_data_source_books</title>
<path fill="#bfdbfe" stroke="black" stroke-width="2" d="M453.2,-154.07C453.2,-154.07 340.4,-154.07 340.4,-154.07 336.2,-154.07 332,-149.88 332,-145.67 332,-145.67 332,-137.28 332,-137.28 332,-133.07 336.2,-128.88 340.4,-128.88 340.4,-128.88 453.2,-128.88 453.2,-128.88 457.4,-128.88 461.6,-133.07 461.6,-137.28 461.6,-137.28 461.6,-145.67 461.6,-145.67 461.6,-149.88 457.4,-154.07 453.2,-154.07"/>
<text text-anchor="middle" x="396.8" y="-138.38" font-family="Helvetica,sans-Serif" font-size="8.00" fill="#1f2937">Books / Long&#45;Form</text>
</g>
<!-- node_data_sources&#45;&gt;node_data_source_books -->
<g id="edge4" class="edge">
<title>node_data_sources&#45;&gt;node_data_source_books</title>
<path fill="none" stroke="#94a3b8" stroke-width="1.5" d="M325.17,-255.36C340.63,-230.99 368.21,-187.54 384.26,-162.24"/>
<polygon fill="#94a3b8" stroke="#94a3b8" stroke-width="1.5" points="386.14,-163.85 387.82,-156.63 382,-161.23 386.14,-163.85"/>
</g>
<!-- node_data_dedup -->
<g id="node7" class="node">
<title>node_data_dedup</title>
<path fill="#bfdbfe" stroke="black" stroke-width="2" d="M619.2,-154.07C619.2,-154.07 506.4,-154.07 506.4,-154.07 502.2,-154.07 498,-149.88 498,-145.67 498,-145.67 498,-137.28 498,-137.28 498,-133.07 502.2,-128.88 506.4,-128.88 506.4,-128.88 619.2,-128.88 619.2,-128.88 623.4,-128.88 627.6,-133.07 627.6,-137.28 627.6,-137.28 627.6,-145.67 627.6,-145.67 627.6,-149.88 623.4,-154.07 619.2,-154.07"/>
<text text-anchor="middle" x="562.8" y="-138.38" font-family="Helvetica,sans-Serif" font-size="8.00" fill="#1f2937">Deduplication</text>
</g>
<!-- node_data_cleaning&#45;&gt;node_data_dedup -->
<g id="edge6" class="edge">
<title>node_data_cleaning&#45;&gt;node_data_dedup</title>
<path fill="none" stroke="#94a3b8" stroke-width="1.5" d="M777.7,-255.36C729.32,-229.95 641.44,-183.79 594.45,-159.1"/>
<polygon fill="#94a3b8" stroke="#94a3b8" stroke-width="1.5" points="595.79,-157.04 588.45,-155.95 593.51,-161.37 595.79,-157.04"/>
</g>
<!-- node_data_language_id -->
<g id="node8" class="node">
<title>node_data_language_id</title>
<path fill="#bfdbfe" stroke="black" stroke-width="2" d="M785.2,-154.07C785.2,-154.07 672.4,-154.07 672.4,-154.07 668.2,-154.07 664,-149.88 664,-145.67 664,-145.67 664,-137.28 664,-137.28 664,-133.07 668.2,-128.88 672.4,-128.88 672.4,-128.88 785.2,-128.88 785.2,-128.88 789.4,-128.88 793.6,-133.07 793.6,-137.28 793.6,-137.28 793.6,-145.67 793.6,-145.67 793.6,-149.88 789.4,-154.07 785.2,-154.07"/>
<text text-anchor="middle" x="728.8" y="-138.38" font-family="Helvetica,sans-Serif" font-size="8.00" fill="#1f2937">Language ID Filter</text>
</g>
<!-- node_data_cleaning&#45;&gt;node_data_language_id -->
<g id="edge7" class="edge">
<title>node_data_cleaning&#45;&gt;node_data_language_id</title>
<path fill="none" stroke="#94a3b8" stroke-width="1.5" d="M800.43,-255.36C784.97,-230.99 757.39,-187.54 741.34,-162.24"/>
<polygon fill="#94a3b8" stroke="#94a3b8" stroke-width="1.5" points="743.6,-161.23 737.78,-156.63 739.46,-163.85 743.6,-161.23"/>
</g>
<!-- node_data_quality_filter -->
<g id="node9" class="node">
<title>node_data_quality_filter</title>
<path fill="#bfdbfe" stroke="black" stroke-width="2" d="M951.2,-154.07C951.2,-154.07 838.4,-154.07 838.4,-154.07 834.2,-154.07 830,-149.88 830,-145.67 830,-145.67 830,-137.28 830,-137.28 830,-133.07 834.2,-128.88 838.4,-128.88 838.4,-128.88 951.2,-128.88 951.2,-128.88 955.4,-128.88 959.6,-133.07 959.6,-137.28 959.6,-137.28 959.6,-145.67 959.6,-145.67 959.6,-149.88 955.4,-154.07 951.2,-154.07"/>
<text text-anchor="middle" x="894.8" y="-138.38" font-family="Helvetica,sans-Serif" font-size="8.00" fill="#1f2937">Quality Scoring Filter</text>
</g>
<!-- node_data_cleaning&#45;&gt;node_data_quality_filter -->
<g id="edge8" class="edge">
<title>node_data_cleaning&#45;&gt;node_data_quality_filter</title>
<path fill="none" stroke="#94a3b8" stroke-width="1.5" d="M823.17,-255.36C838.63,-230.99 866.21,-187.54 882.26,-162.24"/>
<polygon fill="#94a3b8" stroke="#94a3b8" stroke-width="1.5" points="884.14,-163.85 885.82,-156.63 880,-161.23 884.14,-163.85"/>
</g>
<!-- node_tokenizer_bpe -->
<g id="node11" class="node">
<title>node_tokenizer_bpe</title>
<path fill="#bfdbfe" stroke="black" stroke-width="2" d="M1117.2,-154.07C1117.2,-154.07 1004.4,-154.07 1004.4,-154.07 1000.2,-154.07 996,-149.88 996,-145.67 996,-145.67 996,-137.28 996,-137.28 996,-133.07 1000.2,-128.88 1004.4,-128.88 1004.4,-128.88 1117.2,-128.88 1117.2,-128.88 1121.4,-128.88 1125.6,-133.07 1125.6,-137.28 1125.6,-137.28 1125.6,-145.67 1125.6,-145.67 1125.6,-149.88 1121.4,-154.07 1117.2,-154.07"/>
<text text-anchor="middle" x="1060.8" y="-138.38" font-family="Helvetica,sans-Serif" font-size="8.00" fill="#1f2937">BPE (Subword)</text>
</g>
<!-- node_data_tokenization&#45;&gt;node_tokenizer_bpe -->
<g id="edge10" class="edge">
<title>node_data_tokenization&#45;&gt;node_tokenizer_bpe</title>
<path fill="none" stroke="#94a3b8" stroke-width="1.5" d="M1269.66,-255.36C1222.74,-230 1137.59,-183.98 1091.84,-159.25"/>
<polygon fill="#94a3b8" stroke="#94a3b8" stroke-width="1.5" points="1093.1,-157.15 1085.77,-155.97 1090.77,-161.46 1093.1,-157.15"/>
</g>
<!-- node_tokenizer_unigram -->
<g id="node12" class="node">
<title>node_tokenizer_unigram</title>
<path fill="#bfdbfe" stroke="black" stroke-width="2" d="M1283.2,-154.07C1283.2,-154.07 1170.4,-154.07 1170.4,-154.07 1166.2,-154.07 1162,-149.88 1162,-145.67 1162,-145.67 1162,-137.28 1162,-137.28 1162,-133.07 1166.2,-128.88 1170.4,-128.88 1170.4,-128.88 1283.2,-128.88 1283.2,-128.88 1287.4,-128.88 1291.6,-133.07 1291.6,-137.28 1291.6,-137.28 1291.6,-145.67 1291.6,-145.67 1291.6,-149.88 1287.4,-154.07 1283.2,-154.07"/>
<text text-anchor="middle" x="1226.8" y="-138.38" font-family="Helvetica,sans-Serif" font-size="8.00" fill="#1f2937">Unigram (SentencePiece)</text>
</g>
<!-- node_data_tokenization&#45;&gt;node_tokenizer_unigram -->
<g id="edge11" class="edge">
<title>node_data_tokenization&#45;&gt;node_tokenizer_unigram</title>
<path fill="none" stroke="#94a3b8" stroke-width="1.5" d="M1292.39,-255.36C1278.29,-231.1 1253.2,-187.91 1238.48,-162.57"/>
<polygon fill="#94a3b8" stroke="#94a3b8" stroke-width="1.5" points="1240.69,-161.5 1235.05,-156.68 1236.45,-163.96 1240.69,-161.5"/>
</g>
<!-- node_tokenizer_bytelevel_bpe -->
<g id="node13" class="node">
<title>node_tokenizer_bytelevel_bpe</title>
<path fill="#bfdbfe" stroke="black" stroke-width="2" d="M1449.2,-154.07C1449.2,-154.07 1336.4,-154.07 1336.4,-154.07 1332.2,-154.07 1328,-149.88 1328,-145.67 1328,-145.67 1328,-137.28 1328,-137.28 1328,-133.07 1332.2,-128.88 1336.4,-128.88 1336.4,-128.88 1449.2,-128.88 1449.2,-128.88 1453.4,-128.88 1457.6,-133.07 1457.6,-137.28 1457.6,-137.28 1457.6,-145.67 1457.6,-145.67 1457.6,-149.88 1453.4,-154.07 1449.2,-154.07"/>
<text text-anchor="middle" x="1392.8" y="-138.38" font-family="Helvetica,sans-Serif" font-size="8.00" fill="#1f2937">Byte&#45;level BPE</text>
</g>
<!-- node_data_tokenization&#45;&gt;node_tokenizer_bytelevel_bpe -->
<g id="edge12" class="edge">
<title>node_data_tokenization&#45;&gt;node_tokenizer_bytelevel_bpe</title>
<path fill="none" stroke="#94a3b8" stroke-width="1.5" d="M1315.13,-255.36C1331.89,-230.99 1361.79,-187.54 1379.2,-162.24"/>
<polygon fill="#94a3b8" stroke="#94a3b8" stroke-width="1.5" points="1381.14,-163.74 1383.09,-156.58 1377.11,-160.96 1381.14,-163.74"/>
</g>
<!-- node_sequence_packing -->
<g id="node15" class="node">
<title>node_sequence_packing</title>
<path fill="#bfdbfe" stroke="black" stroke-width="2" d="M1615.2,-154.07C1615.2,-154.07 1502.4,-154.07 1502.4,-154.07 1498.2,-154.07 1494,-149.88 1494,-145.67 1494,-145.67 1494,-137.28 1494,-137.28 1494,-133.07 1498.2,-128.88 1502.4,-128.88 1502.4,-128.88 1615.2,-128.88 1615.2,-128.88 1619.4,-128.88 1623.6,-133.07 1623.6,-137.28 1623.6,-137.28 1623.6,-145.67 1623.6,-145.67 1623.6,-149.88 1619.4,-154.07 1615.2,-154.07"/>
<text text-anchor="middle" x="1558.8" y="-138.38" font-family="Helvetica,sans-Serif" font-size="8.00" fill="#1f2937">Packing Strategy</text>
</g>
<!-- node_data_sequence_construction&#45;&gt;node_sequence_packing -->
<g id="edge14" class="edge">
<title>node_data_sequence_construction&#45;&gt;node_sequence_packing</title>
<path fill="none" stroke="#94a3b8" stroke-width="1.5" d="M1558.8,-255.36C1558.8,-231.52 1558.8,-189.41 1558.8,-163.91"/>
<polygon fill="#94a3b8" stroke="#94a3b8" stroke-width="1.5" points="1561.25,-163.98 1558.8,-156.98 1556.35,-163.98 1561.25,-163.98"/>
</g>
<!-- node_context_length -->
<g id="node16" class="node">
<title>node_context_length</title>
<path fill="#bfdbfe" stroke="black" stroke-width="2" d="M1781.2,-154.07C1781.2,-154.07 1668.4,-154.07 1668.4,-154.07 1664.2,-154.07 1660,-149.88 1660,-145.67 1660,-145.67 1660,-137.28 1660,-137.28 1660,-133.07 1664.2,-128.88 1668.4,-128.88 1668.4,-128.88 1781.2,-128.88 1781.2,-128.88 1785.4,-128.88 1789.6,-133.07 1789.6,-137.28 1789.6,-137.28 1789.6,-145.67 1789.6,-145.67 1789.6,-149.88 1785.4,-154.07 1781.2,-154.07"/>
<text text-anchor="middle" x="1724.8" y="-138.38" font-family="Helvetica,sans-Serif" font-size="8.00" fill="#1f2937">Context Length</text>
</g>
<!-- node_data_sequence_construction&#45;&gt;node_context_length -->
<g id="edge15" class="edge">
<title>node_data_sequence_construction&#45;&gt;node_context_length</title>
<path fill="none" stroke="#94a3b8" stroke-width="1.5" d="M1581.53,-255.36C1613.26,-230.36 1670.49,-185.27 1702.17,-160.31"/>
<polygon fill="#94a3b8" stroke="#94a3b8" stroke-width="1.5" points="1703.5,-162.38 1707.48,-156.12 1700.47,-158.53 1703.5,-162.38"/>
</g>
<!-- node_batching_random -->
<g id="node18" class="node">
<title>node_batching_random</title>
<path fill="#bfdbfe" stroke="black" stroke-width="2" d="M1947.2,-154.07C1947.2,-154.07 1834.4,-154.07 1834.4,-154.07 1830.2,-154.07 1826,-149.88 1826,-145.67 1826,-145.67 1826,-137.28 1826,-137.28 1826,-133.07 1830.2,-128.88 1834.4,-128.88 1834.4,-128.88 1947.2,-128.88 1947.2,-128.88 1951.4,-128.88 1955.6,-133.07 1955.6,-137.28 1955.6,-137.28 1955.6,-145.67 1955.6,-145.67 1955.6,-149.88 1951.4,-154.07 1947.2,-154.07"/>
<text text-anchor="middle" x="1890.8" y="-138.38" font-family="Helvetica,sans-Serif" font-size="8.00" fill="#1f2937">Random Sampling</text>
</g>
<!-- node_data_sampling_batching&#45;&gt;node_batching_random -->
<g id="edge17" class="edge">
<title>node_data_sampling_batching&#45;&gt;node_batching_random</title>
<path fill="none" stroke="#94a3b8" stroke-width="1.5" d="M1890.8,-255.36C1890.8,-231.52 1890.8,-189.41 1890.8,-163.91"/>
<polygon fill="#94a3b8" stroke="#94a3b8" stroke-width="1.5" points="1893.25,-163.98 1890.8,-156.98 1888.35,-163.98 1893.25,-163.98"/>
</g>
<!-- node_batching_length_bucketed -->
<g id="node19" class="node">
<title>node_batching_length_bucketed</title>
<path fill="#bfdbfe" stroke="black" stroke-width="2" d="M2113.2,-154.07C2113.2,-154.07 2000.4,-154.07 2000.4,-154.07 1996.2,-154.07 1992,-149.88 1992,-145.67 1992,-145.67 1992,-137.28 1992,-137.28 1992,-133.07 1996.2,-128.88 2000.4,-128.88 2000.4,-128.88 2113.2,-128.88 2113.2,-128.88 2117.4,-128.88 2121.6,-133.07 2121.6,-137.28 2121.6,-137.28 2121.6,-145.67 2121.6,-145.67 2121.6,-149.88 2117.4,-154.07 2113.2,-154.07"/>
<text text-anchor="middle" x="2056.8" y="-138.38" font-family="Helvetica,sans-Serif" font-size="8.00" fill="#1f2937">Length&#45;bucketed Batching</text>
</g>
<!-- node_data_sampling_batching&#45;&gt;node_batching_length_bucketed -->
<g id="edge18" class="edge">
<title>node_data_sampling_batching&#45;&gt;node_batching_length_bucketed</title>
<path fill="none" stroke="#94a3b8" stroke-width="1.5" d="M1913.53,-255.36C1945.26,-230.36 2002.49,-185.27 2034.17,-160.31"/>
<polygon fill="#94a3b8" stroke="#94a3b8" stroke-width="1.5" points="2035.5,-162.38 2039.48,-156.12 2032.47,-158.53 2035.5,-162.38"/>
</g>
<!-- node_aug_span_corruption -->
<g id="node21" class="node">
<title>node_aug_span_corruption</title>
<path fill="#bfdbfe" stroke="black" stroke-width="2" d="M2279.2,-154.07C2279.2,-154.07 2166.4,-154.07 2166.4,-154.07 2162.2,-154.07 2158,-149.88 2158,-145.67 2158,-145.67 2158,-137.28 2158,-137.28 2158,-133.07 2162.2,-128.88 2166.4,-128.88 2166.4,-128.88 2279.2,-128.88 2279.2,-128.88 2283.4,-128.88 2287.6,-133.07 2287.6,-137.28 2287.6,-137.28 2287.6,-145.67 2287.6,-145.67 2287.6,-149.88 2283.4,-154.07 2279.2,-154.07"/>
<text text-anchor="middle" x="2222.8" y="-138.38" font-family="Helvetica,sans-Serif" font-size="8.00" fill="#1f2937">Span Corruption / Masking</text>
</g>
<!-- node_data_augmentation&#45;&gt;node_aug_span_corruption -->
<g id="edge20" class="edge">
<title>node_data_augmentation&#45;&gt;node_aug_span_corruption</title>
<path fill="none" stroke="#94a3b8" stroke-width="1.5" d="M2294.43,-255.36C2278.97,-230.99 2251.39,-187.54 2235.34,-162.24"/>
<polygon fill="#94a3b8" stroke="#94a3b8" stroke-width="1.5" points="2237.6,-161.23 2231.78,-156.63 2233.46,-163.85 2237.6,-161.23"/>
</g>
<!-- node_aug_token_dropout -->
<g id="node22" class="node">
<title>node_aug_token_dropout</title>
<path fill="#bfdbfe" stroke="black" stroke-width="2" d="M2445.2,-154.07C2445.2,-154.07 2332.4,-154.07 2332.4,-154.07 2328.2,-154.07 2324,-149.88 2324,-145.67 2324,-145.67 2324,-137.28 2324,-137.28 2324,-133.07 2328.2,-128.88 2332.4,-128.88 2332.4,-128.88 2445.2,-128.88 2445.2,-128.88 2449.4,-128.88 2453.6,-133.07 2453.6,-137.28 2453.6,-137.28 2453.6,-145.67 2453.6,-145.67 2453.6,-149.88 2449.4,-154.07 2445.2,-154.07"/>
<text text-anchor="middle" x="2388.8" y="-138.38" font-family="Helvetica,sans-Serif" font-size="8.00" fill="#1f2937">Token Dropout</text>
</g>
<!-- node_data_augmentation&#45;&gt;node_aug_token_dropout -->
<g id="edge21" class="edge">
<title>node_data_augmentation&#45;&gt;node_aug_token_dropout</title>
<path fill="none" stroke="#94a3b8" stroke-width="1.5" d="M2317.17,-255.36C2332.63,-230.99 2360.21,-187.54 2376.26,-162.24"/>
<polygon fill="#94a3b8" stroke="#94a3b8" stroke-width="1.5" points="2378.14,-163.85 2379.82,-156.63 2374,-161.23 2378.14,-163.85"/>
</g>
<!-- node_aug_contrastive_crop -->
<g id="node23" class="node">
<title>node_aug_contrastive_crop</title>
<path fill="#bfdbfe" stroke="black" stroke-width="2" d="M2611.2,-154.07C2611.2,-154.07 2498.4,-154.07 2498.4,-154.07 2494.2,-154.07 2490,-149.88 2490,-145.67 2490,-145.67 2490,-137.28 2490,-137.28 2490,-133.07 2494.2,-128.88 2498.4,-128.88 2498.4,-128.88 2611.2,-128.88 2611.2,-128.88 2615.4,-128.88 2619.6,-133.07 2619.6,-137.28 2619.6,-137.28 2619.6,-145.67 2619.6,-145.67 2619.6,-149.88 2615.4,-154.07 2611.2,-154.07"/>
<text text-anchor="middle" x="2554.8" y="-138.38" font-family="Helvetica,sans-Serif" font-size="8.00" fill="#1f2937">Contrastive Cropping</text>
</g>
<!-- node_data_augmentation&#45;&gt;node_aug_contrastive_crop -->
<g id="edge22" class="edge">
<title>node_data_augmentation&#45;&gt;node_aug_contrastive_crop</title>
<path fill="none" stroke="#94a3b8" stroke-width="1.5" d="M2339.9,-255.36C2388.28,-229.95 2476.16,-183.79 2523.15,-159.1"/>
<polygon fill="#94a3b8" stroke="#94a3b8" stroke-width="1.5" points="2524.09,-161.37 2529.15,-155.95 2521.81,-157.04 2524.09,-161.37"/>
</g>
<!-- node_root_neural_network -->
<g id="node24" class="node">
<title>node_root_neural_network</title>
<path fill="#dc2626" fill-opacity="0.501961" stroke="black" stroke-width="3" d="M2985.8,-303.07C2985.8,-303.07 2829.8,-303.07 2829.8,-303.07 2823.8,-303.07 2817.8,-297.07 2817.8,-291.07 2817.8,-291.07 2817.8,-257.47 2817.8,-257.47 2817.8,-251.47 2823.8,-245.47 2829.8,-245.47 2829.8,-245.47 2985.8,-245.47 2985.8,-245.47 2991.8,-245.47 2997.8,-251.47 2997.8,-257.47 2997.8,-257.47 2997.8,-291.07 2997.8,-291.07 2997.8,-297.07 2991.8,-303.07 2985.8,-303.07"/>
<text text-anchor="middle" x="2907.8" y="-275.62" font-family="Helvetica,sans-Serif" font-size="12.00" fill="white">Neural Network</text>
<text text-anchor="middle" x="2907.8" y="-262.88" font-family="Helvetica,sans-Serif" font-size="12.00" fill="white">(8 refuted)</text>
</g>
<!-- node_nn_embeddings -->
<g id="node25" class="node">
<title>node_nn_embeddings</title>
<path fill="#f87171" stroke="black" stroke-width="2" d="M2787.8,-159.47C2787.8,-159.47 2667.8,-159.47 2667.8,-159.47 2661.8,-159.47 2655.8,-153.47 2655.8,-147.47 2655.8,-147.47 2655.8,-135.47 2655.8,-135.47 2655.8,-129.47 2661.8,-123.47 2667.8,-123.47 2667.8,-123.47 2787.8,-123.47 2787.8,-123.47 2793.8,-123.47 2799.8,-129.47 2799.8,-135.47 2799.8,-135.47 2799.8,-147.47 2799.8,-147.47 2799.8,-153.47 2793.8,-159.47 2787.8,-159.47"/>
<text text-anchor="middle" x="2727.8" y="-137.6" font-family="Helvetica,sans-Serif" font-size="10.00" fill="white">Embeddings</text>
</g>
<!-- node_root_neural_network&#45;&gt;node_nn_embeddings -->
<g id="edge23" class="edge">
<title>node_root_neural_network&#45;&gt;node_nn_embeddings</title>
<path fill="none" stroke="#94a3b8" stroke-width="1.5" d="M2867.85,-244.25C2835.29,-220.59 2789.92,-187.61 2759.74,-165.69"/>
<polygon fill="#94a3b8" stroke="#94a3b8" stroke-width="1.5" points="2761.35,-163.83 2754.25,-161.69 2758.47,-167.79 2761.35,-163.83"/>
</g>
<!-- node_nn_transformer -->
<g id="node28" class="node">
<title>node_nn_transformer</title>
<path fill="#f87171" stroke="black" stroke-width="2" d="M2967.8,-159.47C2967.8,-159.47 2847.8,-159.47 2847.8,-159.47 2841.8,-159.47 2835.8,-153.47 2835.8,-147.47 2835.8,-147.47 2835.8,-135.47 2835.8,-135.47 2835.8,-129.47 2841.8,-123.47 2847.8,-123.47 2847.8,-123.47 2967.8,-123.47 2967.8,-123.47 2973.8,-123.47 2979.8,-129.47 2979.8,-135.47 2979.8,-135.47 2979.8,-147.47 2979.8,-147.47 2979.8,-153.47 2973.8,-159.47 2967.8,-159.47"/>
<text text-anchor="middle" x="2907.8" y="-137.6" font-family="Helvetica,sans-Serif" font-size="10.00" fill="white">Transformer Backbone</text>
</g>
<!-- node_root_neural_network&#45;&gt;node_nn_transformer -->
<g id="edge26" class="edge">
<title>node_root_neural_network&#45;&gt;node_nn_transformer</title>
<path fill="none" stroke="#94a3b8" stroke-width="1.5" d="M2907.8,-244.25C2907.8,-221.82 2907.8,-191.04 2907.8,-169.21"/>
<polygon fill="#94a3b8" stroke="#94a3b8" stroke-width="1.5" points="2910.25,-169.44 2907.8,-162.44 2905.35,-169.44 2910.25,-169.44"/>
</g>
<!-- node_nn_output_head -->
<g id="node30" class="node">
<title>node_nn_output_head</title>
<path fill="#f87171" stroke="black" stroke-width="2" d="M3147.8,-159.47C3147.8,-159.47 3027.8,-159.47 3027.8,-159.47 3021.8,-159.47 3015.8,-153.47 3015.8,-147.47 3015.8,-147.47 3015.8,-135.47 3015.8,-135.47 3015.8,-129.47 3021.8,-123.47 3027.8,-123.47 3027.8,-123.47 3147.8,-123.47 3147.8,-123.47 3153.8,-123.47 3159.8,-129.47 3159.8,-135.47 3159.8,-135.47 3159.8,-147.47 3159.8,-147.47 3159.8,-153.47 3153.8,-159.47 3147.8,-159.47"/>
<text text-anchor="middle" x="3087.8" y="-137.6" font-family="Helvetica,sans-Serif" font-size="10.00" fill="white">Output Head</text>
</g>
<!-- node_root_neural_network&#45;&gt;node_nn_output_head -->
<g id="edge28" class="edge">
<title>node_root_neural_network&#45;&gt;node_nn_output_head</title>
<path fill="none" stroke="#94a3b8" stroke-width="1.5" d="M2947.75,-244.25C2980.31,-220.59 3025.68,-187.61 3055.86,-165.69"/>
<polygon fill="#94a3b8" stroke="#94a3b8" stroke-width="1.5" points="3057.13,-167.79 3061.35,-161.69 3054.25,-163.83 3057.13,-167.79"/>
</g>
<!-- node_nn_embedding_strategy -->
<g id="node26" class="node">
<title>node_nn_embedding_strategy</title>
<path fill="#fecaca" stroke="black" stroke-width="2" d="M2625.2,-37.48C2625.2,-37.48 2512.4,-37.48 2512.4,-37.48 2508.2,-37.48 2504,-33.27 2504,-29.07 2504,-29.07 2504,-20.67 2504,-20.67 2504,-16.47 2508.2,-12.27 2512.4,-12.27 2512.4,-12.27 2625.2,-12.27 2625.2,-12.27 2629.4,-12.27 2633.6,-16.47 2633.6,-20.68 2633.6,-20.68 2633.6,-29.08 2633.6,-29.08 2633.6,-33.27 2629.4,-37.48 2625.2,-37.48"/>
<text text-anchor="middle" x="2568.8" y="-21.77" font-family="Helvetica,sans-Serif" font-size="8.00" fill="#1f2937">Token Embedding Strategy</text>
</g>
<!-- node_nn_embeddings&#45;&gt;node_nn_embedding_strategy -->
<g id="edge24" class="edge">
<title>node_nn_embeddings&#45;&gt;node_nn_embedding_strategy</title>
<path fill="none" stroke="#94a3b8" stroke-width="1.5" d="M2702.96,-122.57C2673.13,-101.07 2623.41,-65.24 2593.6,-43.75"/>
<polygon fill="#94a3b8" stroke="#94a3b8" stroke-width="1.5" points="2595.07,-41.79 2587.96,-39.68 2592.21,-45.77 2595.07,-41.79"/>
</g>
<!-- node_nn_positional_encoding -->
<g id="node27" class="node">
<title>node_nn_positional_encoding</title>
<path fill="#fecaca" stroke="black" stroke-width="2" d="M2791.2,-37.48C2791.2,-37.48 2678.4,-37.48 2678.4,-37.48 2674.2,-37.48 2670,-33.27 2670,-29.07 2670,-29.07 2670,-20.67 2670,-20.67 2670,-16.47 2674.2,-12.27 2678.4,-12.27 2678.4,-12.27 2791.2,-12.27 2791.2,-12.27 2795.4,-12.27 2799.6,-16.47 2799.6,-20.68 2799.6,-20.68 2799.6,-29.08 2799.6,-29.08 2799.6,-33.27 2795.4,-37.48 2791.2,-37.48"/>
<text text-anchor="middle" x="2734.8" y="-21.77" font-family="Helvetica,sans-Serif" font-size="8.00" fill="#1f2937">Positional Encoding</text>
</g>
<!-- node_nn_embeddings&#45;&gt;node_nn_positional_encoding -->
<g id="edge25" class="edge">
<title>node_nn_embeddings&#45;&gt;node_nn_positional_encoding</title>
<path fill="none" stroke="#94a3b8" stroke-width="1.5" d="M2728.89,-122.57C2730.13,-102.26 2732.16,-69.16 2733.48,-47.45"/>
<polygon fill="#94a3b8" stroke="#94a3b8" stroke-width="1.5" points="2735.92,-47.76 2733.9,-40.62 2731.03,-47.46 2735.92,-47.76"/>
</g>
<!-- node_transformer_block -->
<g id="node29" class="node">
<title>node_transformer_block</title>
<path fill="#fecaca" stroke="black" stroke-width="2" d="M2964.2,-37.48C2964.2,-37.48 2851.4,-37.48 2851.4,-37.48 2847.2,-37.48 2843,-33.27 2843,-29.07 2843,-29.07 2843,-20.67 2843,-20.67 2843,-16.47 2847.2,-12.27 2851.4,-12.27 2851.4,-12.27 2964.2,-12.27 2964.2,-12.27 2968.4,-12.27 2972.6,-16.47 2972.6,-20.68 2972.6,-20.68 2972.6,-29.08 2972.6,-29.08 2972.6,-33.27 2968.4,-37.48 2964.2,-37.48"/>
<text text-anchor="middle" x="2907.8" y="-21.77" font-family="Helvetica,sans-Serif" font-size="8.00" fill="#1f2937">Transformer Block</text>
</g>
<!-- node_nn_transformer&#45;&gt;node_transformer_block -->
<g id="edge27" class="edge">
<title>node_nn_transformer&#45;&gt;node_transformer_block</title>
<path fill="none" stroke="#94a3b8" stroke-width="1.5" d="M2907.8,-122.57C2907.8,-102.26 2907.8,-69.16 2907.8,-47.45"/>
<polygon fill="#94a3b8" stroke="#94a3b8" stroke-width="1.5" points="2910.25,-47.63 2907.8,-40.63 2905.35,-47.63 2910.25,-47.63"/>
</g>
<!-- node_head_strategy -->
<g id="node31" class="node">
<title>node_head_strategy</title>
<path fill="#fecaca" stroke="black" stroke-width="2" d="M3144.2,-37.48C3144.2,-37.48 3031.4,-37.48 3031.4,-37.48 3027.2,-37.48 3023,-33.27 3023,-29.07 3023,-29.07 3023,-20.67 3023,-20.67 3023,-16.47 3027.2,-12.27 3031.4,-12.27 3031.4,-12.27 3144.2,-12.27 3144.2,-12.27 3148.4,-12.27 3152.6,-16.47 3152.6,-20.68 3152.6,-20.68 3152.6,-29.08 3152.6,-29.08 3152.6,-33.27 3148.4,-37.48 3144.2,-37.48"/>
<text text-anchor="middle" x="3087.8" y="-21.77" font-family="Helvetica,sans-Serif" font-size="8.00" fill="#1f2937">LM Head Strategy</text>
</g>
<!-- node_nn_output_head&#45;&gt;node_head_strategy -->
<g id="edge29" class="edge">
<title>node_nn_output_head&#45;&gt;node_head_strategy</title>
<path fill="none" stroke="#94a3b8" stroke-width="1.5" d="M3087.8,-122.57C3087.8,-102.26 3087.8,-69.16 3087.8,-47.45"/>
<polygon fill="#94a3b8" stroke="#94a3b8" stroke-width="1.5" points="3090.25,-47.63 3087.8,-40.63 3085.35,-47.63 3090.25,-47.63"/>
</g>
<!-- node_root_training_eval -->
<g id="node32" class="node">
<title>node_root_training_eval</title>
<path fill="#16a34a" stroke="black" stroke-width="3" d="M4410.8,-446.68C4410.8,-446.68 4254.8,-446.68 4254.8,-446.68 4248.8,-446.68 4242.8,-440.68 4242.8,-434.68 4242.8,-434.68 4242.8,-401.07 4242.8,-401.07 4242.8,-395.07 4248.8,-389.07 4254.8,-389.07 4254.8,-389.07 4410.8,-389.07 4410.8,-389.07 4416.8,-389.07 4422.8,-395.07 4422.8,-401.07 4422.8,-401.07 4422.8,-434.68 4422.8,-434.68 4422.8,-440.68 4416.8,-446.68 4410.8,-446.68"/>
<text text-anchor="middle" x="4332.8" y="-412.85" font-family="Helvetica,sans-Serif" font-size="12.00" fill="white">Training &amp; Evaluation</text>
</g>
<!-- node_train_loss -->
<g id="node33" class="node">
<title>node_train_loss</title>
<path fill="#4ade80" stroke="black" stroke-width="2" d="M3569.8,-292.27C3569.8,-292.27 3449.8,-292.27 3449.8,-292.27 3443.8,-292.27 3437.8,-286.27 3437.8,-280.27 3437.8,-280.27 3437.8,-268.27 3437.8,-268.27 3437.8,-262.27 3443.8,-256.27 3449.8,-256.27 3449.8,-256.27 3569.8,-256.27 3569.8,-256.27 3575.8,-256.27 3581.8,-262.27 3581.8,-268.27 3581.8,-268.27 3581.8,-280.27 3581.8,-280.27 3581.8,-286.27 3575.8,-292.27 3569.8,-292.27"/>
<text text-anchor="middle" x="3509.8" y="-270.4" font-family="Helvetica,sans-Serif" font-size="10.00" fill="white">Loss Function</text>
</g>
<!-- node_root_training_eval&#45;&gt;node_train_loss -->
<g id="edge30" class="edge">
<title>node_root_training_eval&#45;&gt;node_train_loss</title>
<path fill="none" stroke="#94a3b8" stroke-width="1.5" d="M4241.58,-401.18C4080.11,-373.4 3746.47,-315.99 3591.81,-289.39"/>
<polygon fill="#94a3b8" stroke="#94a3b8" stroke-width="1.5" points="3592.34,-286.99 3585.03,-288.22 3591.51,-291.82 3592.34,-286.99"/>
</g>
<!-- node_train_optimizer -->
<g id="node37" class="node">
<title>node_train_optimizer</title>
<path fill="#4ade80" stroke="black" stroke-width="2" d="M3970.8,-292.27C3970.8,-292.27 3850.8,-292.27 3850.8,-292.27 3844.8,-292.27 3838.8,-286.27 3838.8,-280.27 3838.8,-280.27 3838.8,-268.27 3838.8,-268.27 3838.8,-262.27 3844.8,-256.27 3850.8,-256.27 3850.8,-256.27 3970.8,-256.27 3970.8,-256.27 3976.8,-256.27 3982.8,-262.27 3982.8,-268.27 3982.8,-268.27 3982.8,-280.27 3982.8,-280.27 3982.8,-286.27 3976.8,-292.27 3970.8,-292.27"/>
<text text-anchor="middle" x="3910.8" y="-270.4" font-family="Helvetica,sans-Serif" font-size="10.00" fill="white">Optimizer &amp; State</text>
</g>
<!-- node_root_training_eval&#45;&gt;node_train_optimizer -->
<g id="edge34" class="edge">
<title>node_root_training_eval&#45;&gt;node_train_optimizer</title>
<path fill="none" stroke="#94a3b8" stroke-width="1.5" d="M4245.62,-387.62C4164.21,-360.31 4044.76,-320.22 3972.72,-296.05"/>
<polygon fill="#94a3b8" stroke="#94a3b8" stroke-width="1.5" points="3973.74,-293.81 3966.32,-293.91 3972.18,-298.45 3973.74,-293.81"/>
</g>
<!-- node_train_precision -->
<g id="node39" class="node">
<title>node_train_precision</title>
<path fill="#4ade80" stroke="black" stroke-width="2" d="M4226.8,-292.27C4226.8,-292.27 4106.8,-292.27 4106.8,-292.27 4100.8,-292.27 4094.8,-286.27 4094.8,-280.27 4094.8,-280.27 4094.8,-268.27 4094.8,-268.27 4094.8,-262.27 4100.8,-256.27 4106.8,-256.27 4106.8,-256.27 4226.8,-256.27 4226.8,-256.27 4232.8,-256.27 4238.8,-262.27 4238.8,-268.27 4238.8,-268.27 4238.8,-280.27 4238.8,-280.27 4238.8,-286.27 4232.8,-292.27 4226.8,-292.27"/>
<text text-anchor="middle" x="4166.8" y="-270.4" font-family="Helvetica,sans-Serif" font-size="10.00" fill="white">Numerical Precision</text>
</g>
<!-- node_root_training_eval&#45;&gt;node_train_precision -->
<g id="edge36" class="edge">
<title>node_root_training_eval&#45;&gt;node_train_precision</title>
<path fill="none" stroke="#94a3b8" stroke-width="1.5" d="M4298.81,-387.88C4268.03,-361.62 4223.24,-323.42 4194.56,-298.95"/>
<polygon fill="#94a3b8" stroke="#94a3b8" stroke-width="1.5" points="4196.28,-297.2 4189.36,-294.52 4193.1,-300.93 4196.28,-297.2"/>
</g>
<!-- node_train_activation_storage -->
<g id="node43" class="node">
<title>node_train_activation_storage</title>
<path fill="#4ade80" stroke="black" stroke-width="2" d="M4482.8,-292.27C4482.8,-292.27 4362.8,-292.27 4362.8,-292.27 4356.8,-292.27 4350.8,-286.27 4350.8,-280.27 4350.8,-280.27 4350.8,-268.27 4350.8,-268.27 4350.8,-262.27 4356.8,-256.27 4362.8,-256.27 4362.8,-256.27 4482.8,-256.27 4482.8,-256.27 4488.8,-256.27 4494.8,-262.27 4494.8,-268.27 4494.8,-268.27 4494.8,-280.27 4494.8,-280.27 4494.8,-286.27 4488.8,-292.27 4482.8,-292.27"/>
<text text-anchor="middle" x="4422.8" y="-270.4" font-family="Helvetica,sans-Serif" font-size="10.00" fill="white">Activation Storage Strategy</text>
</g>
<!-- node_root_training_eval&#45;&gt;node_train_activation_storage -->
<g id="edge40" class="edge">
<title>node_root_training_eval&#45;&gt;node_train_activation_storage</title>
<path fill="none" stroke="#94a3b8" stroke-width="1.5" d="M4351.23,-387.88C4367.49,-362.29 4390.97,-325.35 4406.55,-300.85"/>
<polygon fill="#94a3b8" stroke="#94a3b8" stroke-width="1.5" points="4408.6,-302.19 4410.29,-294.96 4404.46,-299.56 4408.6,-302.19"/>
</g>
<!-- node_train_evaluation -->
<g id="node46" class="node">
<title>node_train_evaluation</title>
<path fill="#4ade80" stroke="black" stroke-width="2" d="M4737.8,-292.27C4737.8,-292.27 4617.8,-292.27 4617.8,-292.27 4611.8,-292.27 4605.8,-286.27 4605.8,-280.27 4605.8,-280.27 4605.8,-268.27 4605.8,-268.27 4605.8,-262.27 4611.8,-256.27 4617.8,-256.27 4617.8,-256.27 4737.8,-256.27 4737.8,-256.27 4743.8,-256.27 4749.8,-262.27 4749.8,-268.27 4749.8,-268.27 4749.8,-280.27 4749.8,-280.27 4749.8,-286.27 4743.8,-292.27 4737.8,-292.27"/>
<text text-anchor="middle" x="4677.8" y="-270.4" font-family="Helvetica,sans-Serif" font-size="10.00" fill="white">Evaluation Harness</text>
</g>
<!-- node_root_training_eval&#45;&gt;node_train_evaluation -->
<g id="edge43" class="edge">
<title>node_root_training_eval&#45;&gt;node_train_evaluation</title>
<path fill="none" stroke="#94a3b8" stroke-width="1.5" d="M4403.87,-387.71C4469.86,-360.62 4566.56,-320.93 4625.67,-296.67"/>
<polygon fill="#94a3b8" stroke="#94a3b8" stroke-width="1.5" points="4626.47,-298.99 4632.01,-294.07 4624.61,-294.46 4626.47,-298.99"/>
</g>
<!-- node_train_budget_accounting -->
<g id="node48" class="node">
<title>node_train_budget_accounting</title>
<path fill="#4ade80" stroke="black" stroke-width="2" d="M4992.8,-292.27C4992.8,-292.27 4872.8,-292.27 4872.8,-292.27 4866.8,-292.27 4860.8,-286.27 4860.8,-280.27 4860.8,-280.27 4860.8,-268.27 4860.8,-268.27 4860.8,-262.27 4866.8,-256.27 4872.8,-256.27 4872.8,-256.27 4992.8,-256.27 4992.8,-256.27 4998.8,-256.27 5004.8,-262.27 5004.8,-268.27 5004.8,-268.27 5004.8,-280.27 5004.8,-280.27 5004.8,-286.27 4998.8,-292.27 4992.8,-292.27"/>
<text text-anchor="middle" x="4932.8" y="-270.4" font-family="Helvetica,sans-Serif" font-size="10.00" fill="white">Budget Accounting</text>
</g>
<!-- node_root_training_eval&#45;&gt;node_train_budget_accounting -->
<g id="edge45" class="edge">
<title>node_root_training_eval&#45;&gt;node_train_budget_accounting</title>
<path fill="none" stroke="#94a3b8" stroke-width="1.5" d="M4424.25,-395.29C4540.52,-367.85 4739.49,-320.9 4850.96,-294.59"/>
<polygon fill="#94a3b8" stroke="#94a3b8" stroke-width="1.5" points="4851.36,-297.01 4857.61,-293.02 4850.24,-292.24 4851.36,-297.01"/>
</g>
<!-- node_loss_cross_entropy -->
<g id="node34" class="node">
<title>node_loss_cross_entropy</title>
<path fill="#bbf7d0" stroke="black" stroke-width="2" d="M3317.2,-154.07C3317.2,-154.07 3204.4,-154.07 3204.4,-154.07 3200.2,-154.07 3196,-149.88 3196,-145.67 3196,-145.67 3196,-137.28 3196,-137.28 3196,-133.07 3200.2,-128.88 3204.4,-128.88 3204.4,-128.88 3317.2,-128.88 3317.2,-128.88 3321.4,-128.88 3325.6,-133.07 3325.6,-137.28 3325.6,-137.28 3325.6,-145.67 3325.6,-145.67 3325.6,-149.88 3321.4,-154.07 3317.2,-154.07"/>
<text text-anchor="middle" x="3260.8" y="-138.38" font-family="Helvetica,sans-Serif" font-size="8.00" fill="#1f2937">Cross&#45;Entropy</text>
</g>
<!-- node_train_loss&#45;&gt;node_loss_cross_entropy -->
<g id="edge31" class="edge">
<title>node_train_loss&#45;&gt;node_loss_cross_entropy</title>
<path fill="none" stroke="#94a3b8" stroke-width="1.5" d="M3475.7,-255.36C3427.32,-229.95 3339.44,-183.79 3292.45,-159.1"/>
<polygon fill="#94a3b8" stroke="#94a3b8" stroke-width="1.5" points="3293.79,-157.04 3286.45,-155.95 3291.51,-161.37 3293.79,-157.04"/>
</g>
<!-- node_loss_label_smoothing -->
<g id="node35" class="node">
<title>node_loss_label_smoothing</title>
<path fill="#bbf7d0" stroke="black" stroke-width="2" d="M3483.2,-154.07C3483.2,-154.07 3370.4,-154.07 3370.4,-154.07 3366.2,-154.07 3362,-149.88 3362,-145.67 3362,-145.67 3362,-137.28 3362,-137.28 3362,-133.07 3366.2,-128.88 3370.4,-128.88 3370.4,-128.88 3483.2,-128.88 3483.2,-128.88 3487.4,-128.88 3491.6,-133.07 3491.6,-137.28 3491.6,-137.28 3491.6,-145.67 3491.6,-145.67 3491.6,-149.88 3487.4,-154.07 3483.2,-154.07"/>
<text text-anchor="middle" x="3426.8" y="-138.38" font-family="Helvetica,sans-Serif" font-size="8.00" fill="#1f2937">Label Smoothing</text>
</g>
<!-- node_train_loss&#45;&gt;node_loss_label_smoothing -->
<g id="edge32" class="edge">
<title>node_train_loss&#45;&gt;node_loss_label_smoothing</title>
<path fill="none" stroke="#94a3b8" stroke-width="1.5" d="M3498.43,-255.36C3482.97,-230.99 3455.39,-187.54 3439.34,-162.24"/>
<polygon fill="#94a3b8" stroke="#94a3b8" stroke-width="1.5" points="3441.6,-161.23 3435.78,-156.63 3437.46,-163.85 3441.6,-161.23"/>
</g>
<!-- node_loss_z_loss -->
<g id="node36" class="node">
<title>node_loss_z_loss</title>
<path fill="#bbf7d0" stroke="black" stroke-width="2" d="M3649.2,-154.07C3649.2,-154.07 3536.4,-154.07 3536.4,-154.07 3532.2,-154.07 3528,-149.88 3528,-145.67 3528,-145.67 3528,-137.28 3528,-137.28 3528,-133.07 3532.2,-128.88 3536.4,-128.88 3536.4,-128.88 3649.2,-128.88 3649.2,-128.88 3653.4,-128.88 3657.6,-133.07 3657.6,-137.28 3657.6,-137.28 3657.6,-145.67 3657.6,-145.67 3657.6,-149.88 3653.4,-154.07 3649.2,-154.07"/>
<text text-anchor="middle" x="3592.8" y="-138.38" font-family="Helvetica,sans-Serif" font-size="8.00" fill="#1f2937">Z&#45;loss / Logit Penalty</text>
</g>
<!-- node_train_loss&#45;&gt;node_loss_z_loss -->
<g id="edge33" class="edge">
<title>node_train_loss&#45;&gt;node_loss_z_loss</title>
<path fill="none" stroke="#94a3b8" stroke-width="1.5" d="M3521.17,-255.36C3536.63,-230.99 3564.21,-187.54 3580.26,-162.24"/>
<polygon fill="#94a3b8" stroke="#94a3b8" stroke-width="1.5" points="3582.14,-163.85 3583.82,-156.63 3578,-161.23 3582.14,-163.85"/>
</g>
<!-- node_optimizer_state_strategy -->
<g id="node38" class="node">
<title>node_optimizer_state_strategy</title>
<path fill="#bbf7d0" stroke="black" stroke-width="2" d="M3815.2,-154.07C3815.2,-154.07 3702.4,-154.07 3702.4,-154.07 3698.2,-154.07 3694,-149.88 3694,-145.67 3694,-145.67 3694,-137.28 3694,-137.28 3694,-133.07 3698.2,-128.88 3702.4,-128.88 3702.4,-128.88 3815.2,-128.88 3815.2,-128.88 3819.4,-128.88 3823.6,-133.07 3823.6,-137.28 3823.6,-137.28 3823.6,-145.67 3823.6,-145.67 3823.6,-149.88 3819.4,-154.07 3815.2,-154.07"/>
<text text-anchor="middle" x="3758.8" y="-138.38" font-family="Helvetica,sans-Serif" font-size="8.00" fill="#1f2937">Optimizer State Strategy</text>
</g>
<!-- node_train_optimizer&#45;&gt;node_optimizer_state_strategy -->
<g id="edge35" class="edge">
<title>node_train_optimizer&#45;&gt;node_optimizer_state_strategy</title>
<path fill="none" stroke="#94a3b8" stroke-width="1.5" d="M3889.98,-255.36C3861.05,-230.46 3808.97,-185.65 3779.89,-160.62"/>
<polygon fill="#94a3b8" stroke="#94a3b8" stroke-width="1.5" points="3781.65,-158.9 3774.74,-156.19 3778.45,-162.62 3781.65,-158.9"/>
</g>
<!-- node_precision_fp32 -->
<g id="node40" class="node">
<title>node_precision_fp32</title>
<path fill="#bbf7d0" stroke="black" stroke-width="2" d="M3981.2,-154.07C3981.2,-154.07 3868.4,-154.07 3868.4,-154.07 3864.2,-154.07 3860,-149.88 3860,-145.67 3860,-145.67 3860,-137.28 3860,-137.28 3860,-133.07 3864.2,-128.88 3868.4,-128.88 3868.4,-128.88 3981.2,-128.88 3981.2,-128.88 3985.4,-128.88 3989.6,-133.07 3989.6,-137.28 3989.6,-137.28 3989.6,-145.67 3989.6,-145.67 3989.6,-149.88 3985.4,-154.07 3981.2,-154.07"/>
<text text-anchor="middle" x="3924.8" y="-138.38" font-family="Helvetica,sans-Serif" font-size="8.00" fill="#1f2937">FP32 Training</text>
</g>
<!-- node_train_precision&#45;&gt;node_precision_fp32 -->
<g id="edge37" class="edge">
<title>node_train_precision&#45;&gt;node_precision_fp32</title>
<path fill="none" stroke="#94a3b8" stroke-width="1.5" d="M4133.66,-255.36C4086.74,-230 4001.59,-183.98 3955.84,-159.25"/>
<polygon fill="#94a3b8" stroke="#94a3b8" stroke-width="1.5" points="3957.1,-157.15 3949.77,-155.97 3954.77,-161.46 3957.1,-157.15"/>
</g>
<!-- node_precision_fp16_bf16 -->
<g id="node41" class="node">
<title>node_precision_fp16_bf16</title>
<path fill="#bbf7d0" stroke="black" stroke-width="2" d="M4147.2,-154.07C4147.2,-154.07 4034.4,-154.07 4034.4,-154.07 4030.2,-154.07 4026,-149.88 4026,-145.67 4026,-145.67 4026,-137.28 4026,-137.28 4026,-133.07 4030.2,-128.88 4034.4,-128.88 4034.4,-128.88 4147.2,-128.88 4147.2,-128.88 4151.4,-128.88 4155.6,-133.07 4155.6,-137.28 4155.6,-137.28 4155.6,-145.67 4155.6,-145.67 4155.6,-149.88 4151.4,-154.07 4147.2,-154.07"/>
<text text-anchor="middle" x="4090.8" y="-138.38" font-family="Helvetica,sans-Serif" font-size="8.00" fill="#1f2937">FP16/BF16 Mixed Precision</text>
</g>
<!-- node_train_precision&#45;&gt;node_precision_fp16_bf16 -->
<g id="edge38" class="edge">
<title>node_train_precision&#45;&gt;node_precision_fp16_bf16</title>
<path fill="none" stroke="#94a3b8" stroke-width="1.5" d="M4156.39,-255.36C4142.29,-231.1 4117.2,-187.91 4102.48,-162.57"/>
<polygon fill="#94a3b8" stroke="#94a3b8" stroke-width="1.5" points="4104.69,-161.5 4099.05,-156.68 4100.45,-163.96 4104.69,-161.5"/>
</g>
<!-- node_precision_fp8 -->
<g id="node42" class="node">
<title>node_precision_fp8</title>
<path fill="#bbf7d0" stroke="black" stroke-width="2" d="M4313.2,-154.07C4313.2,-154.07 4200.4,-154.07 4200.4,-154.07 4196.2,-154.07 4192,-149.88 4192,-145.67 4192,-145.67 4192,-137.28 4192,-137.28 4192,-133.07 4196.2,-128.88 4200.4,-128.88 4200.4,-128.88 4313.2,-128.88 4313.2,-128.88 4317.4,-128.88 4321.6,-133.07 4321.6,-137.28 4321.6,-137.28 4321.6,-145.67 4321.6,-145.67 4321.6,-149.88 4317.4,-154.07 4313.2,-154.07"/>
<text text-anchor="middle" x="4256.8" y="-138.38" font-family="Helvetica,sans-Serif" font-size="8.00" fill="#1f2937">FP8 Activations (Advanced)</text>
</g>
<!-- node_train_precision&#45;&gt;node_precision_fp8 -->
<g id="edge39" class="edge">
<title>node_train_precision&#45;&gt;node_precision_fp8</title>
<path fill="none" stroke="#94a3b8" stroke-width="1.5" d="M4179.13,-255.36C4195.89,-230.99 4225.79,-187.54 4243.2,-162.24"/>
<polygon fill="#94a3b8" stroke="#94a3b8" stroke-width="1.5" points="4245.14,-163.74 4247.09,-156.58 4241.11,-160.96 4245.14,-163.74"/>
</g>
<!-- node_activations_store_all -->
<g id="node44" class="node">
<title>node_activations_store_all</title>
<path fill="#bbf7d0" stroke="black" stroke-width="2" d="M4479.2,-154.07C4479.2,-154.07 4366.4,-154.07 4366.4,-154.07 4362.2,-154.07 4358,-149.88 4358,-145.67 4358,-145.67 4358,-137.28 4358,-137.28 4358,-133.07 4362.2,-128.88 4366.4,-128.88 4366.4,-128.88 4479.2,-128.88 4479.2,-128.88 4483.4,-128.88 4487.6,-133.07 4487.6,-137.28 4487.6,-137.28 4487.6,-145.67 4487.6,-145.67 4487.6,-149.88 4483.4,-154.07 4479.2,-154.07"/>
<text text-anchor="middle" x="4422.8" y="-138.38" font-family="Helvetica,sans-Serif" font-size="8.00" fill="#1f2937">Store All Activations</text>
</g>
<!-- node_train_activation_storage&#45;&gt;node_activations_store_all -->
<g id="edge41" class="edge">
<title>node_train_activation_storage&#45;&gt;node_activations_store_all</title>
<path fill="none" stroke="#94a3b8" stroke-width="1.5" d="M4422.8,-255.36C4422.8,-231.52 4422.8,-189.41 4422.8,-163.91"/>
<polygon fill="#94a3b8" stroke="#94a3b8" stroke-width="1.5" points="4425.25,-163.98 4422.8,-156.98 4420.35,-163.98 4425.25,-163.98"/>
</g>
<!-- node_activations_checkpoint -->
<g id="node45" class="node">
<title>node_activations_checkpoint</title>
<path fill="#bbf7d0" stroke="black" stroke-width="2" d="M4645.2,-154.07C4645.2,-154.07 4532.4,-154.07 4532.4,-154.07 4528.2,-154.07 4524,-149.88 4524,-145.67 4524,-145.67 4524,-137.28 4524,-137.28 4524,-133.07 4528.2,-128.88 4532.4,-128.88 4532.4,-128.88 4645.2,-128.88 4645.2,-128.88 4649.4,-128.88 4653.6,-133.07 4653.6,-137.28 4653.6,-137.28 4653.6,-145.67 4653.6,-145.67 4653.6,-149.88 4649.4,-154.07 4645.2,-154.07"/>
<text text-anchor="middle" x="4588.8" y="-138.38" font-family="Helvetica,sans-Serif" font-size="8.00" fill="#1f2937">Gradient Checkpointing</text>
</g>
<!-- node_train_activation_storage&#45;&gt;node_activations_checkpoint -->
<g id="edge42" class="edge">
<title>node_train_activation_storage&#45;&gt;node_activations_checkpoint</title>
<path fill="none" stroke="#94a3b8" stroke-width="1.5" d="M4445.53,-255.36C4477.26,-230.36 4534.49,-185.27 4566.17,-160.31"/>
<polygon fill="#94a3b8" stroke="#94a3b8" stroke-width="1.5" points="4567.5,-162.38 4571.48,-156.12 4564.47,-158.53 4567.5,-162.38"/>
</g>
<!-- node_eval_param_golf -->
<g id="node47" class="node">
<title>node_eval_param_golf</title>
<path fill="#bbf7d0" stroke="black" stroke-width="2" d="M4823.78,-154.07C4823.78,-154.07 4697.82,-154.07 4697.82,-154.07 4693.62,-154.07 4689.43,-149.88 4689.43,-145.67 4689.43,-145.67 4689.43,-137.28 4689.43,-137.28 4689.43,-133.07 4693.62,-128.88 4697.82,-128.88 4697.82,-128.88 4823.78,-128.88 4823.78,-128.88 4827.98,-128.88 4832.18,-133.07 4832.18,-137.28 4832.18,-137.28 4832.18,-145.67 4832.18,-145.67 4832.18,-149.88 4827.98,-154.07 4823.78,-154.07"/>
<text text-anchor="middle" x="4760.8" y="-138.38" font-family="Helvetica,sans-Serif" font-size="8.00" fill="#1f2937">OpenAI Parameter Golf Benchmark</text>
</g>
<!-- node_train_evaluation&#45;&gt;node_eval_param_golf -->
<g id="edge44" class="edge">
<title>node_train_evaluation&#45;&gt;node_eval_param_golf</title>
<path fill="none" stroke="#94a3b8" stroke-width="1.5" d="M4689.17,-255.36C4704.63,-230.99 4732.21,-187.54 4748.26,-162.24"/>
<polygon fill="#94a3b8" stroke="#94a3b8" stroke-width="1.5" points="4750.14,-163.85 4751.82,-156.63 4746,-161.23 4750.14,-163.85"/>
</g>
<!-- node_budget_parameters -->
<g id="node49" class="node">
<title>node_budget_parameters</title>
<path fill="#bbf7d0" stroke="black" stroke-width="2" d="M4989.2,-154.07C4989.2,-154.07 4876.4,-154.07 4876.4,-154.07 4872.2,-154.07 4868,-149.88 4868,-145.67 4868,-145.67 4868,-137.28 4868,-137.28 4868,-133.07 4872.2,-128.88 4876.4,-128.88 4876.4,-128.88 4989.2,-128.88 4989.2,-128.88 4993.4,-128.88 4997.6,-133.07 4997.6,-137.28 4997.6,-137.28 4997.6,-145.67 4997.6,-145.67 4997.6,-149.88 4993.4,-154.07 4989.2,-154.07"/>
<text text-anchor="middle" x="4932.8" y="-138.38" font-family="Helvetica,sans-Serif" font-size="8.00" fill="#1f2937">Parameter Counter</text>
</g>
<!-- node_train_budget_accounting&#45;&gt;node_budget_parameters -->
<g id="edge46" class="edge">
<title>node_train_budget_accounting&#45;&gt;node_budget_parameters</title>
<path fill="none" stroke="#94a3b8" stroke-width="1.5" d="M4932.8,-255.36C4932.8,-231.52 4932.8,-189.41 4932.8,-163.91"/>
<polygon fill="#94a3b8" stroke="#94a3b8" stroke-width="1.5" points="4935.25,-163.98 4932.8,-156.98 4930.35,-163.98 4935.25,-163.98"/>
</g>
<!-- node_budget_memory -->
<g id="node50" class="node">
<title>node_budget_memory</title>
<path fill="#bbf7d0" stroke="black" stroke-width="2" d="M5155.2,-154.07C5155.2,-154.07 5042.4,-154.07 5042.4,-154.07 5038.2,-154.07 5034,-149.88 5034,-145.67 5034,-145.67 5034,-137.28 5034,-137.28 5034,-133.07 5038.2,-128.88 5042.4,-128.88 5042.4,-128.88 5155.2,-128.88 5155.2,-128.88 5159.4,-128.88 5163.6,-133.07 5163.6,-137.28 5163.6,-137.28 5163.6,-145.67 5163.6,-145.67 5163.6,-149.88 5159.4,-154.07 5155.2,-154.07"/>
<text text-anchor="middle" x="5098.8" y="-138.38" font-family="Helvetica,sans-Serif" font-size="8.00" fill="#1f2937">Peak Memory Estimator</text>
</g>
<!-- node_train_budget_accounting&#45;&gt;node_budget_memory -->
<g id="edge47" class="edge">
<title>node_train_budget_accounting&#45;&gt;node_budget_memory</title>
<path fill="none" stroke="#94a3b8" stroke-width="1.5" d="M4955.53,-255.36C4987.26,-230.36 5044.49,-185.27 5076.17,-160.31"/>
<polygon fill="#94a3b8" stroke="#94a3b8" stroke-width="1.5" points="5077.5,-162.38 5081.48,-156.12 5074.47,-158.53 5077.5,-162.38"/>
</g>
<!-- dead_entropy&#45;guided&#45;sparse&#45;attention -->
<g id="node51" class="node">
<title>dead_entropy&#45;guided&#45;sparse&#45;attention</title>
<path fill="#7f1d1d" stroke="black" stroke-width="2" stroke-dasharray="5,2" d="M2447.08,-432.27C2447.08,-432.27 2356.53,-432.27 2356.53,-432.27 2351.73,-432.27 2346.93,-427.47 2346.93,-422.68 2346.93,-422.68 2346.93,-413.07 2346.93,-413.07 2346.93,-408.28 2351.73,-403.48 2356.53,-403.48 2356.53,-403.48 2447.08,-403.48 2447.08,-403.48 2451.88,-403.48 2456.68,-408.28 2456.68,-413.07 2456.68,-413.07 2456.68,-422.68 2456.68,-422.68 2456.68,-427.47 2451.88,-432.27 2447.08,-432.27"/>
<text text-anchor="middle" x="2401.8" y="-414.95" font-family="Helvetica,sans-Serif" font-size="9.00" fill="white">✗ entropy guided spars</text>
</g>
<!-- dead_entropy&#45;guided&#45;sparse&#45;attention&#45;&gt;node_root_neural_network -->
<g id="edge48" class="edge">
<title>dead_entropy&#45;guided&#45;sparse&#45;attention&#45;&gt;node_root_neural_network</title>
<path fill="none" stroke="#7f1d1d" stroke-width="1.5" stroke-dasharray="5,2" stroke-opacity="0.376471" d="M2437.17,-402.53C2449.04,-397.96 2462.4,-393.05 2474.8,-389.07 2587.5,-352.92 2719.32,-319.51 2807.65,-298.38"/>
<polygon fill="#7f1d1d" fill-opacity="0.376471" stroke="#7f1d1d" stroke-width="1.5" stroke-opacity="0.376471" points="2808.14,-300.78 2814.38,-296.77 2807.01,-296.01 2808.14,-300.78"/>
</g>
<!-- dead_differential&#45;attention&#45;routing -->
<g id="node52" class="node">
<title>dead_differential&#45;attention&#45;routing</title>
<path fill="#7f1d1d" stroke="black" stroke-width="2" stroke-dasharray="5,2" d="M2591.2,-432.27C2591.2,-432.27 2502.4,-432.27 2502.4,-432.27 2497.6,-432.27 2492.8,-427.47 2492.8,-422.68 2492.8,-422.68 2492.8,-413.07 2492.8,-413.07 2492.8,-408.28 2497.6,-403.48 2502.4,-403.48 2502.4,-403.48 2591.2,-403.48 2591.2,-403.48 2596,-403.48 2600.8,-408.28 2600.8,-413.07 2600.8,-413.07 2600.8,-422.68 2600.8,-422.68 2600.8,-427.47 2596,-432.27 2591.2,-432.27"/>
<text text-anchor="middle" x="2546.8" y="-414.95" font-family="Helvetica,sans-Serif" font-size="9.00" fill="white">✗ differential attenti</text>
</g>
<!-- dead_differential&#45;attention&#45;routing&#45;&gt;node_root_neural_network -->
<g id="edge49" class="edge">
<title>dead_differential&#45;attention&#45;routing&#45;&gt;node_root_neural_network</title>
<path fill="none" stroke="#7f1d1d" stroke-width="1.5" stroke-dasharray="5,2" stroke-opacity="0.376471" d="M2583.4,-402.52C2639.7,-380.44 2748.98,-337.57 2825.07,-307.72"/>
<polygon fill="#7f1d1d" fill-opacity="0.376471" stroke="#7f1d1d" stroke-width="1.5" stroke-opacity="0.376471" points="2825.52,-310.18 2831.14,-305.34 2823.73,-305.62 2825.52,-310.18"/>
</g>
<!-- dead_gradient&#45;guided&#45;sparse&#45;attention -->
<g id="node53" class="node">
<title>dead_gradient&#45;guided&#45;sparse&#45;attention</title>
<path fill="#7f1d1d" stroke="black" stroke-width="2" stroke-dasharray="5,2" d="M2735.33,-432.27C2735.33,-432.27 2646.28,-432.27 2646.28,-432.27 2641.48,-432.27 2636.68,-427.47 2636.68,-422.68 2636.68,-422.68 2636.68,-413.07 2636.68,-413.07 2636.68,-408.28 2641.48,-403.48 2646.28,-403.48 2646.28,-403.48 2735.33,-403.48 2735.33,-403.48 2740.12,-403.48 2744.93,-408.28 2744.93,-413.07 2744.93,-413.07 2744.93,-422.68 2744.93,-422.68 2744.93,-427.47 2740.12,-432.27 2735.33,-432.27"/>
<text text-anchor="middle" x="2690.8" y="-414.95" font-family="Helvetica,sans-Serif" font-size="9.00" fill="white">✗ gradient guided spar</text>
</g>
<!-- dead_gradient&#45;guided&#45;sparse&#45;attention&#45;&gt;node_root_neural_network -->
<g id="edge50" class="edge">
<title>dead_gradient&#45;guided&#45;sparse&#45;attention&#45;&gt;node_root_neural_network</title>
<path fill="none" stroke="#7f1d1d" stroke-width="1.5" stroke-dasharray="5,2" stroke-opacity="0.376471" d="M2712.8,-402.52C2746.01,-380.85 2809.88,-339.17 2855.48,-309.42"/>
<polygon fill="#7f1d1d" fill-opacity="0.376471" stroke="#7f1d1d" stroke-width="1.5" stroke-opacity="0.376471" points="2856.78,-311.5 2861.3,-305.62 2854.1,-307.39 2856.78,-311.5"/>
</g>
<!-- dead_fourier&#45;attention&#45;gates -->
<g id="node54" class="node">
<title>dead_fourier&#45;attention&#45;gates</title>
<path fill="#7f1d1d" stroke="black" stroke-width="2" stroke-dasharray="5,2" d="M2879.2,-432.27C2879.2,-432.27 2790.4,-432.27 2790.4,-432.27 2785.6,-432.27 2780.8,-427.47 2780.8,-422.68 2780.8,-422.68 2780.8,-413.07 2780.8,-413.07 2780.8,-408.28 2785.6,-403.48 2790.4,-403.48 2790.4,-403.48 2879.2,-403.48 2879.2,-403.48 2884,-403.48 2888.8,-408.28 2888.8,-413.07 2888.8,-413.07 2888.8,-422.68 2888.8,-422.68 2888.8,-427.47 2884,-432.27 2879.2,-432.27"/>
<text text-anchor="middle" x="2834.8" y="-414.95" font-family="Helvetica,sans-Serif" font-size="9.00" fill="white">✗ fourier attention ga</text>
</g>
<!-- dead_fourier&#45;attention&#45;gates&#45;&gt;node_root_neural_network -->
<g id="edge51" class="edge">
<title>dead_fourier&#45;attention&#45;gates&#45;&gt;node_root_neural_network</title>
<path fill="none" stroke="#7f1d1d" stroke-width="1.5" stroke-dasharray="5,2" stroke-opacity="0.376471" d="M2842.2,-402.52C2853,-381.57 2873.45,-341.9 2888.66,-312.4"/>
<polygon fill="#7f1d1d" fill-opacity="0.376471" stroke="#7f1d1d" stroke-width="1.5" stroke-opacity="0.376471" points="2890.73,-313.74 2891.76,-306.4 2886.37,-311.49 2890.73,-313.74"/>
</g>
<!-- dead_temporal&#45;depth&#45;modulation -->
<g id="node55" class="node">
<title>dead_temporal&#45;depth&#45;modulation</title>
<path fill="#7f1d1d" stroke="black" stroke-width="2" stroke-dasharray="5,2" d="M3027.58,-432.27C3027.58,-432.27 2934.03,-432.27 2934.03,-432.27 2929.23,-432.27 2924.43,-427.47 2924.43,-422.68 2924.43,-422.68 2924.43,-413.07 2924.43,-413.07 2924.43,-408.28 2929.23,-403.48 2934.03,-403.48 2934.03,-403.48 3027.58,-403.48 3027.58,-403.48 3032.38,-403.48 3037.18,-408.28 3037.18,-413.07 3037.18,-413.07 3037.18,-422.68 3037.18,-422.68 3037.18,-427.47 3032.38,-432.27 3027.58,-432.27"/>
<text text-anchor="middle" x="2980.8" y="-414.95" font-family="Helvetica,sans-Serif" font-size="9.00" fill="white">✗ temporal depth modul</text>
</g>
<!-- dead_temporal&#45;depth&#45;modulation&#45;&gt;node_root_neural_network -->
<g id="edge52" class="edge">
<title>dead_temporal&#45;depth&#45;modulation&#45;&gt;node_root_neural_network</title>
<path fill="none" stroke="#7f1d1d" stroke-width="1.5" stroke-dasharray="5,2" stroke-opacity="0.376471" d="M2973.4,-402.52C2962.6,-381.57 2942.15,-341.9 2926.94,-312.4"/>
<polygon fill="#7f1d1d" fill-opacity="0.376471" stroke="#7f1d1d" stroke-width="1.5" stroke-opacity="0.376471" points="2929.23,-311.49 2923.84,-306.4 2924.87,-313.74 2929.23,-311.49"/>
</g>
<!-- dead_adaptive&#45;sparse&#45;moe&#45;6 -->
<g id="node56" class="node">
<title>dead_adaptive&#45;sparse&#45;moe&#45;6</title>
<path fill="#7f1d1d" stroke="black" stroke-width="2" stroke-dasharray="5,2" d="M3174.83,-432.27C3174.83,-432.27 3082.78,-432.27 3082.78,-432.27 3077.98,-432.27 3073.18,-427.47 3073.18,-422.68 3073.18,-422.68 3073.18,-413.07 3073.18,-413.07 3073.18,-408.28 3077.98,-403.48 3082.78,-403.48 3082.78,-403.48 3174.83,-403.48 3174.83,-403.48 3179.62,-403.48 3184.43,-408.28 3184.43,-413.07 3184.43,-413.07 3184.43,-422.68 3184.43,-422.68 3184.43,-427.47 3179.62,-432.27 3174.83,-432.27"/>
<text text-anchor="middle" x="3128.8" y="-414.95" font-family="Helvetica,sans-Serif" font-size="9.00" fill="white">✗ adaptive sparse moe </text>
</g>
<!-- dead_adaptive&#45;sparse&#45;moe&#45;6&#45;&gt;node_root_neural_network -->
<g id="edge53" class="edge">
<title>dead_adaptive&#45;sparse&#45;moe&#45;6&#45;&gt;node_root_neural_network</title>
<path fill="none" stroke="#7f1d1d" stroke-width="1.5" stroke-dasharray="5,2" stroke-opacity="0.376471" d="M3106.39,-402.52C3072.51,-380.81 3007.25,-339 2960.8,-309.23"/>
<polygon fill="#7f1d1d" fill-opacity="0.376471" stroke="#7f1d1d" stroke-width="1.5" stroke-opacity="0.376471" points="2962.35,-307.32 2955.13,-305.6 2959.7,-311.44 2962.35,-307.32"/>
</g>
<!-- dead_gradient&#45;informed&#45;attention&#45;v7 -->
<g id="node57" class="node">
<title>dead_gradient&#45;informed&#45;attention&#45;v7</title>
<path fill="#7f1d1d" stroke="black" stroke-width="2" stroke-dasharray="5,2" d="M3319.2,-432.27C3319.2,-432.27 3230.4,-432.27 3230.4,-432.27 3225.6,-432.27 3220.8,-427.47 3220.8,-422.68 3220.8,-422.68 3220.8,-413.07 3220.8,-413.07 3220.8,-408.28 3225.6,-403.48 3230.4,-403.48 3230.4,-403.48 3319.2,-403.48 3319.2,-403.48 3324,-403.48 3328.8,-408.28 3328.8,-413.07 3328.8,-413.07 3328.8,-422.68 3328.8,-422.68 3328.8,-427.47 3324,-432.27 3319.2,-432.27"/>
<text text-anchor="middle" x="3274.8" y="-414.95" font-family="Helvetica,sans-Serif" font-size="9.00" fill="white">✗ gradient informed at</text>
</g>
<!-- dead_gradient&#45;informed&#45;attention&#45;v7&#45;&gt;node_root_neural_network -->
<g id="edge54" class="edge">
<title>dead_gradient&#45;informed&#45;attention&#45;v7&#45;&gt;node_root_neural_network</title>
<path fill="none" stroke="#7f1d1d" stroke-width="1.5" stroke-dasharray="5,2" stroke-opacity="0.376471" d="M3237.8,-402.59C3226.56,-398.25 3214.18,-393.47 3202.8,-389.07 3131.78,-361.67 3051.13,-330.56 2992.13,-307.8"/>
<polygon fill="#7f1d1d" fill-opacity="0.376471" stroke="#7f1d1d" stroke-width="1.5" stroke-opacity="0.376471" points="2993.12,-305.56 2985.71,-305.32 2991.36,-310.13 2993.12,-305.56"/>
</g>
<!-- dead_gradient&#45;conditioned&#45;attention&#45;v8 -->
<g id="node58" class="node">
<title>dead_gradient&#45;conditioned&#45;attention&#45;v8</title>
<path fill="#7f1d1d" stroke="black" stroke-width="2" stroke-dasharray="5,2" d="M3463.2,-432.27C3463.2,-432.27 3374.4,-432.27 3374.4,-432.27 3369.6,-432.27 3364.8,-427.47 3364.8,-422.68 3364.8,-422.68 3364.8,-413.07 3364.8,-413.07 3364.8,-408.28 3369.6,-403.48 3374.4,-403.48 3374.4,-403.48 3463.2,-403.48 3463.2,-403.48 3468,-403.48 3472.8,-408.28 3472.8,-413.07 3472.8,-413.07 3472.8,-422.68 3472.8,-422.68 3472.8,-427.47 3468,-432.27 3463.2,-432.27"/>
<text text-anchor="middle" x="3418.8" y="-414.95" font-family="Helvetica,sans-Serif" font-size="9.00" fill="white">✗ gradient conditioned</text>
</g>
<!-- dead_gradient&#45;conditioned&#45;attention&#45;v8&#45;&gt;node_root_neural_network -->
<g id="edge55" class="edge">
<title>dead_gradient&#45;conditioned&#45;attention&#45;v8&#45;&gt;node_root_neural_network</title>
<path fill="none" stroke="#7f1d1d" stroke-width="1.5" stroke-dasharray="5,2" stroke-opacity="0.376471" d="M3383.93,-402.48C3372.23,-397.91 3359.05,-393.01 3346.8,-389.07 3232,-352.17 3097.44,-318.69 3007.85,-297.75"/>
<polygon fill="#7f1d1d" fill-opacity="0.376471" stroke="#7f1d1d" stroke-width="1.5" stroke-opacity="0.376471" points="3008.64,-295.42 3001.27,-296.21 3007.53,-300.19 3008.64,-295.42"/>
</g>
<!-- leg_root -->
<g id="node59" class="node">
<title>leg_root</title>
<path fill="#dc2626" stroke="black" stroke-width="2" d="M5226.76,-426.38C5226.76,-426.38 5204.84,-426.38 5204.84,-426.38 5202.01,-426.38 5199.18,-423.54 5199.18,-420.71 5199.18,-420.71 5199.18,-415.04 5199.18,-415.04 5199.18,-412.21 5202.01,-409.38 5204.84,-409.38 5204.84,-409.38 5226.76,-409.38 5226.76,-409.38 5229.59,-409.38 5232.43,-412.21 5232.43,-415.04 5232.43,-415.04 5232.43,-420.71 5232.43,-420.71 5232.43,-423.54 5229.59,-426.38 5226.76,-426.38"/>
<text text-anchor="middle" x="5215.8" y="-414.77" font-family="Helvetica,sans-Serif" font-size="8.00" fill="white">Root</text>
</g>
<!-- leg_branch -->
<g id="node60" class="node">
<title>leg_branch</title>
<path fill="#f87171" stroke="black" stroke-width="2" d="M5230.88,-282.77C5230.88,-282.77 5200.72,-282.77 5200.72,-282.77 5197.88,-282.77 5195.05,-279.94 5195.05,-277.11 5195.05,-277.11 5195.05,-271.44 5195.05,-271.44 5195.05,-268.61 5197.88,-265.77 5200.72,-265.77 5200.72,-265.77 5230.88,-265.77 5230.88,-265.77 5233.72,-265.77 5236.55,-268.61 5236.55,-271.44 5236.55,-271.44 5236.55,-277.11 5236.55,-277.11 5236.55,-279.94 5233.72,-282.77 5230.88,-282.77"/>
<text text-anchor="middle" x="5215.8" y="-271.17" font-family="Helvetica,sans-Serif" font-size="8.00" fill="white">Branch</text>
</g>
<!-- leg_root&#45;&gt;leg_branch -->
<!-- leg_leaf -->
<g id="node61" class="node">
<title>leg_leaf</title>
<path fill="#fecaca" stroke="black" stroke-width="2" d="M5226.01,-149.97C5226.01,-149.97 5205.59,-149.97 5205.59,-149.97 5202.76,-149.97 5199.93,-147.14 5199.93,-144.31 5199.93,-144.31 5199.93,-138.64 5199.93,-138.64 5199.93,-135.81 5202.76,-132.97 5205.59,-132.97 5205.59,-132.97 5226.01,-132.97 5226.01,-132.97 5228.84,-132.97 5231.68,-135.81 5231.68,-138.64 5231.68,-138.64 5231.68,-144.31 5231.68,-144.31 5231.68,-147.14 5228.84,-149.97 5226.01,-149.97"/>
<text text-anchor="middle" x="5215.8" y="-138.38" font-family="Helvetica,sans-Serif" font-size="8.00" fill="#1f2937">Leaf</text>
</g>
<!-- leg_branch&#45;&gt;leg_leaf -->
<!-- leg_dead -->
<g id="node62" class="node">
<title>leg_dead</title>
<polygon fill="none" stroke="black" stroke-width="2" stroke-dasharray="5,2" points="5245.18,-33.75 5186.43,-33.75 5186.43,-16 5245.18,-16 5245.18,-33.75"/>
<text text-anchor="middle" x="5215.8" y="-22.15" font-family="Helvetica,sans-Serif" font-size="8.00" fill="white">✗ Dead End</text>
</g>
<!-- leg_leaf&#45;&gt;leg_dead -->
</g>
</svg>
