<?xml version="1.0" encoding="UTF-8" standalone="no"?>
<!DOCTYPE svg PUBLIC "-//W3C//DTD SVG 1.1//EN"
 "http://www.w3.org/Graphics/SVG/1.1/DTD/svg11.dtd">
<!-- Generated by graphviz version 14.1.2 (20260124.0452)
 -->
<!-- Title: KnowledgeGraph Pages: 1 -->
<svg width="536pt" height="1010pt"
 viewBox="0.00 0.00 536.00 1010.00" xmlns="http://www.w3.org/2000/svg" xmlns:xlink="http://www.w3.org/1999/xlink">
<g id="graph0" class="graph" transform="scale(1 1) rotate(0) translate(7.2 1002.45)">
<title>KnowledgeGraph</title>
<polygon fill="#ffffff" stroke="none" points="-7.2,7.2 -7.2,-1002.45 529.05,-1002.45 529.05,7.2 -7.2,7.2"/>
<text xml:space="preserve" text-anchor="middle" x="37.25" y="-981.75" font-family="Helvetica,sans-Serif" font-size="10.00">Data Pipeline</text>
<!-- node_root_data_pipeline -->
<g id="node1" class="node">
<title>node_root_data_pipeline</title>
<g id="a_node1"><a xlink:title="Controls how raw text/code becomes token sequences presented to the model. Choices here shape distribution, context construction, and the effective learning signal under a fixed compute budget.">
<path fill="#fff9db" stroke="#e67700" stroke-width="2" d="M64.65,-388C64.65,-388 12,-388 12,-388 6,-388 0,-382 0,-376 0,-376 0,-364 0,-364 0,-358 6,-352 12,-352 12,-352 64.65,-352 64.65,-352 70.65,-352 76.65,-358 76.65,-364 76.65,-364 76.65,-376 76.65,-376 76.65,-382 70.65,-388 64.65,-388"/>
<text xml:space="preserve" text-anchor="start" x="7.2" y="-367.12" font-family="Helvetica,sans-Serif" font-weight="bold" font-size="10.00" fill="#212529">Data Pipeline</text>
</a>
</g>
</g>
<!-- node_data_sources -->
<g id="node2" class="node">
<title>node_data_sources</title>
<g id="a_node2"><a xlink:title="Determines the domains and genres the model observes during training. Source composition controls coverage, bias, and the kind of generalization the model can learn.">
<path fill="#e7f5ff" stroke="#1971c2" stroke-width="1.4" d="M182.93,-882C182.93,-882 130.28,-882 130.28,-882 124.28,-882 118.28,-876 118.28,-870 118.28,-870 118.28,-858 118.28,-858 118.28,-852 124.28,-846 130.28,-846 130.28,-846 182.93,-846 182.93,-846 188.93,-846 194.93,-852 194.93,-858 194.93,-858 194.93,-870 194.93,-870 194.93,-876 188.93,-882 182.93,-882"/>
<text xml:space="preserve" text-anchor="start" x="125.48" y="-861.12" font-family="Helvetica,sans-Serif" font-weight="bold" font-size="10.00" fill="#212529">Data Sources</text>
</a>
</g>
</g>
<!-- node_root_data_pipeline&#45;&gt;node_data_sources -->
<g id="edge1" class="edge">
<title>node_root_data_pipeline&#45;&gt;node_data_sources</title>
<path fill="none" stroke="#adb5bd" d="M18.85,-388.76C18.85,-479 18.85,-864 18.85,-864 18.85,-864 110.35,-864 110.35,-864"/>
<polygon fill="#adb5bd" stroke="#adb5bd" points="110.35,-866.1 116.35,-864 110.35,-861.9 110.35,-866.1"/>
</g>
<!-- node_data_cleaning -->
<g id="node7" class="node">
<title>node_data_cleaning</title>
<g id="a_node7"><a xlink:title="Removes low&#45;quality, duplicated, or harmful text before training. Better filtering usually increases effective data quality without increasing parameters.">
<path fill="#e7f5ff" stroke="#1971c2" stroke-width="1.4" d="M199.05,-694C199.05,-694 114.15,-694 114.15,-694 108.15,-694 102.15,-688 102.15,-682 102.15,-682 102.15,-670 102.15,-670 102.15,-664 108.15,-658 114.15,-658 114.15,-658 199.05,-658 199.05,-658 205.05,-658 211.05,-664 211.05,-670 211.05,-670 211.05,-682 211.05,-682 211.05,-688 205.05,-694 199.05,-694"/>
<text xml:space="preserve" text-anchor="start" x="109.35" y="-673.12" font-family="Helvetica,sans-Serif" font-weight="bold" font-size="10.00" fill="#212529">Cleaning &amp; Filtering</text>
</a>
</g>
</g>
<!-- node_root_data_pipeline&#45;&gt;node_data_cleaning -->
<g id="edge6" class="edge">
<title>node_root_data_pipeline&#45;&gt;node_data_cleaning</title>
<path fill="none" stroke="#adb5bd" d="M37.85,-388.68C37.85,-455.12 37.85,-676 37.85,-676 37.85,-676 94.23,-676 94.23,-676"/>
<polygon fill="#adb5bd" stroke="#adb5bd" points="94.23,-678.1 100.23,-676 94.23,-673.9 94.23,-678.1"/>
</g>
<!-- node_data_tokenization -->
<g id="node12" class="node">
<title>node_data_tokenization</title>
<g id="a_node12"><a xlink:title="Maps text into discrete tokens that define the model&#39;s input/output alphabet. Token choices affect sequence lengths, embedding size, and downstream memory/parameter budgets.">
<path fill="#e7f5ff" stroke="#1971c2" stroke-width="1.4" d="M181.8,-506C181.8,-506 131.4,-506 131.4,-506 125.4,-506 119.4,-500 119.4,-494 119.4,-494 119.4,-482 119.4,-482 119.4,-476 125.4,-470 131.4,-470 131.4,-470 181.8,-470 181.8,-470 187.8,-470 193.8,-476 193.8,-482 193.8,-482 193.8,-494 193.8,-494 193.8,-500 187.8,-506 181.8,-506"/>
<text xml:space="preserve" text-anchor="start" x="126.6" y="-485.12" font-family="Helvetica,sans-Serif" font-weight="bold" font-size="10.00" fill="#212529">Tokenization</text>
</a>
</g>
</g>
<!-- node_root_data_pipeline&#45;&gt;node_data_tokenization -->
<g id="edge11" class="edge">
<title>node_root_data_pipeline&#45;&gt;node_data_tokenization</title>
<path fill="none" stroke="#adb5bd" d="M57.85,-388.96C57.85,-422.31 57.85,-488 57.85,-488 57.85,-488 111.19,-488 111.19,-488"/>
<polygon fill="#adb5bd" stroke="#adb5bd" points="111.19,-490.1 117.19,-488 111.19,-485.9 111.19,-490.1"/>
</g>
<!-- node_data_sequence_construction -->
<g id="node17" class="node">
<title>node_data_sequence_construction</title>
<g id="a_node17"><a xlink:title="Defines how tokens are packed into fixed&#45;length training sequences. Packing strategy changes utilization, padding waste, and effective batch size under memory limits.">
<path fill="#e7f5ff" stroke="#1971c2" stroke-width="1.4" d="M206.55,-388C206.55,-388 106.65,-388 106.65,-388 100.65,-388 94.65,-382 94.65,-376 94.65,-376 94.65,-364 94.65,-364 94.65,-358 100.65,-352 106.65,-352 106.65,-352 206.55,-352 206.55,-352 212.55,-352 218.55,-358 218.55,-364 218.55,-364 218.55,-376 218.55,-376 218.55,-382 212.55,-388 206.55,-388"/>
<text xml:space="preserve" text-anchor="start" x="101.85" y="-367.12" font-family="Helvetica,sans-Serif" font-weight="bold" font-size="10.00" fill="#212529">Sequence Construction</text>
</a>
</g>
</g>
<!-- node_root_data_pipeline&#45;&gt;node_data_sequence_construction -->
<g id="edge16" class="edge">
<title>node_root_data_pipeline&#45;&gt;node_data_sequence_construction</title>
<path fill="none" stroke="#adb5bd" d="M77.38,-370C77.38,-370 86.56,-370 86.56,-370"/>
<polygon fill="#adb5bd" stroke="#adb5bd" points="86.56,-372.1 92.56,-370 86.56,-367.9 86.56,-372.1"/>
</g>
<!-- node_data_sampling_batching -->
<g id="node25" class="node">
<title>node_data_sampling_batching</title>
<g id="a_node25"><a xlink:title="Determines how examples are selected and grouped into batches. Batching decisions affect gradient noise, throughput, and peak memory during training.">
<path fill="#e7f5ff" stroke="#1971c2" stroke-width="1.4" d="M202.05,-318C202.05,-318 111.15,-318 111.15,-318 105.15,-318 99.15,-312 99.15,-306 99.15,-306 99.15,-294 99.15,-294 99.15,-288 105.15,-282 111.15,-282 111.15,-282 202.05,-282 202.05,-282 208.05,-282 214.05,-288 214.05,-294 214.05,-294 214.05,-306 214.05,-306 214.05,-312 208.05,-318 202.05,-318"/>
<text xml:space="preserve" text-anchor="start" x="106.35" y="-297.12" font-family="Helvetica,sans-Serif" font-weight="bold" font-size="10.00" fill="#212529">Sampling &amp; Batching</text>
</a>
</g>
</g>
<!-- node_root_data_pipeline&#45;&gt;node_data_sampling_batching -->
<g id="edge24" class="edge">
<title>node_root_data_pipeline&#45;&gt;node_data_sampling_batching</title>
<path fill="none" stroke="#adb5bd" d="M57.85,-351.24C57.85,-330.51 57.85,-300 57.85,-300 57.85,-300 91.07,-300 91.07,-300"/>
<polygon fill="#adb5bd" stroke="#adb5bd" points="91.07,-302.1 97.07,-300 91.07,-297.9 91.07,-302.1"/>
</g>
<!-- node_data_augmentation -->
<g id="node28" class="node">
<title>node_data_augmentation</title>
<g id="a_node28"><a xlink:title="Applies transformations that change the training distribution without adding parameters. Augmentation can improve robustness but must preserve label semantics for next&#45;token prediction.">
<path fill="#e7f5ff" stroke="#1971c2" stroke-width="1.4" d="M196.05,-201C196.05,-201 117.15,-201 117.15,-201 111.15,-201 105.15,-195 105.15,-189 105.15,-189 105.15,-177 105.15,-177 105.15,-171 111.15,-165 117.15,-165 117.15,-165 196.05,-165 196.05,-165 202.05,-165 208.05,-171 208.05,-177 208.05,-177 208.05,-189 208.05,-189 208.05,-195 202.05,-201 196.05,-201"/>
<text xml:space="preserve" text-anchor="start" x="112.35" y="-180.12" font-family="Helvetica,sans-Serif" font-weight="bold" font-size="10.00" fill="#212529">Data Augmentation</text>
</a>
</g>
</g>
<!-- node_root_data_pipeline&#45;&gt;node_data_augmentation -->
<g id="edge27" class="edge">
<title>node_root_data_pipeline&#45;&gt;node_data_augmentation</title>
<path fill="none" stroke="#adb5bd" d="M37.85,-351.04C37.85,-303.5 37.85,-183 37.85,-183 37.85,-183 97,-183 97,-183"/>
<polygon fill="#adb5bd" stroke="#adb5bd" points="97,-185.1 103,-183 97,-180.9 97,-185.1"/>
</g>
<!-- node_data_curriculum_mixing -->
<g id="node32" class="node">
<title>node_data_curriculum_mixing</title>
<g id="a_node32"><a xlink:title="Controls how different data types or difficulties are scheduled over training. Curricula can improve convergence and sample&#45;efficiency without increasing parameters.">
<path fill="#e7f5ff" stroke="#1971c2" stroke-width="1.4" d="M200.93,-83C200.93,-83 112.28,-83 112.28,-83 106.28,-83 100.28,-77 100.28,-71 100.28,-71 100.28,-59 100.28,-59 100.28,-53 106.28,-47 112.28,-47 112.28,-47 200.93,-47 200.93,-47 206.93,-47 212.93,-53 212.93,-59 212.93,-59 212.93,-71 212.93,-71 212.93,-77 206.93,-83 200.93,-83"/>
<text xml:space="preserve" text-anchor="start" x="107.48" y="-62.12" font-family="Helvetica,sans-Serif" font-weight="bold" font-size="10.00" fill="#212529">Curriculum &amp; Mixing</text>
</a>
</g>
</g>
<!-- node_root_data_pipeline&#45;&gt;node_data_curriculum_mixing -->
<g id="edge31" class="edge">
<title>node_root_data_pipeline&#45;&gt;node_data_curriculum_mixing</title>
<path fill="none" stroke="#adb5bd" d="M18.85,-351.38C18.85,-285.16 18.85,-65 18.85,-65 18.85,-65 92.26,-65 92.26,-65"/>
<polygon fill="#adb5bd" stroke="#adb5bd" points="92.26,-67.1 98.26,-65 92.26,-62.9 92.26,-67.1"/>
</g>
<!-- node_data_source_web_text -->
<g id="node3" class="node">
<title>node_data_source_web_text</title>
<g id="a_node3"><a xlink:title="Broad natural&#45;language text from the web provides diverse topics and writing styles. It tends to increase general knowledge but can introduce noise and duplication.">
<path fill="#f8f9fa" stroke="#495057" d="M326.32,-976C326.32,-976 287.18,-976 287.18,-976 281.18,-976 275.18,-970 275.18,-964 275.18,-964 275.18,-952 275.18,-952 275.18,-946 281.18,-940 287.18,-940 287.18,-940 326.32,-940 326.32,-940 332.32,-940 338.32,-946 338.32,-952 338.32,-952 338.32,-964 338.32,-964 338.32,-970 332.32,-976 326.32,-976"/>
<text xml:space="preserve" text-anchor="start" x="285.38" y="-959" font-family="Helvetica,sans-Serif" font-weight="bold" font-size="10.00" fill="#212529">Web Text</text>
<text xml:space="preserve" text-anchor="start" x="282.38" y="-949.95" font-family="Helvetica,sans-Serif" font-size="9.00" fill="#212529">Mem:0.2MB</text>
</a>
</g>
</g>
<!-- node_data_sources&#45;&gt;node_data_source_web_text -->
<g id="edge2" class="edge">
<title>node_data_sources&#45;&gt;node_data_source_web_text</title>
<path fill="none" stroke="#adb5bd" d="M143.85,-882.57C143.85,-909.97 143.85,-958 143.85,-958 143.85,-958 267.44,-958 267.44,-958"/>
<polygon fill="#adb5bd" stroke="#adb5bd" points="267.44,-960.1 273.44,-958 267.44,-955.9 267.44,-960.1"/>
</g>
<!-- node_data_source_code -->
<g id="node4" class="node">
<title>node_data_source_code</title>
<g id="a_node4"><a xlink:title="Programming language corpora emphasize syntax, long&#45;range dependencies, and precise token patterns. Code data often improves reasoning&#45;like behaviors at small model sizes.">
<path fill="#f8f9fa" stroke="#495057" d="M326.32,-929C326.32,-929 287.18,-929 287.18,-929 281.18,-929 275.18,-923 275.18,-917 275.18,-917 275.18,-905 275.18,-905 275.18,-899 281.18,-893 287.18,-893 287.18,-893 326.32,-893 326.32,-893 332.32,-893 338.32,-899 338.32,-905 338.32,-905 338.32,-917 338.32,-917 338.32,-923 332.32,-929 326.32,-929"/>
<text xml:space="preserve" text-anchor="start" x="294.38" y="-912" font-family="Helvetica,sans-Serif" font-weight="bold" font-size="10.00" fill="#212529">Code</text>
<text xml:space="preserve" text-anchor="start" x="282.38" y="-902.95" font-family="Helvetica,sans-Serif" font-size="9.00" fill="#212529">Mem:0.2MB</text>
</a>
</g>
</g>
<!-- node_data_sources&#45;&gt;node_data_source_code -->
<g id="edge3" class="edge">
<title>node_data_sources&#45;&gt;node_data_source_code</title>
<path fill="none" stroke="#adb5bd" d="M169.85,-882.58C169.85,-895.71 169.85,-911 169.85,-911 169.85,-911 267.48,-911 267.48,-911"/>
<polygon fill="#adb5bd" stroke="#adb5bd" points="267.48,-913.1 273.48,-911 267.48,-908.9 267.48,-913.1"/>
</g>
<!-- node_data_source_books -->
<g id="node5" class="node">
<title>node_data_source_books</title>
<g id="a_node5"><a xlink:title="Long&#45;form text increases exposure to extended discourse structure and narrative coherence. It can help models learn longer&#45;context patterns even with limited context windows.">
<path fill="#f8f9fa" stroke="#495057" d="M347.32,-882C347.32,-882 266.18,-882 266.18,-882 260.18,-882 254.18,-876 254.18,-870 254.18,-870 254.18,-858 254.18,-858 254.18,-852 260.18,-846 266.18,-846 266.18,-846 347.32,-846 347.32,-846 353.32,-846 359.32,-852 359.32,-858 359.32,-858 359.32,-870 359.32,-870 359.32,-876 353.32,-882 347.32,-882"/>
<text xml:space="preserve" text-anchor="start" x="261.38" y="-865" font-family="Helvetica,sans-Serif" font-weight="bold" font-size="10.00" fill="#212529">Books / Long&#45;Form</text>
<text xml:space="preserve" text-anchor="start" x="282.38" y="-855.95" font-family="Helvetica,sans-Serif" font-size="9.00" fill="#212529">Mem:0.2MB</text>
</a>
</g>
</g>
<!-- node_data_sources&#45;&gt;node_data_source_books -->
<g id="edge4" class="edge">
<title>node_data_sources&#45;&gt;node_data_source_books</title>
<path fill="none" stroke="#adb5bd" d="M195.27,-870C195.27,-870 246.27,-870 246.27,-870"/>
<polygon fill="#adb5bd" stroke="#adb5bd" points="246.27,-872.1 252.27,-870 246.27,-867.9 246.27,-872.1"/>
</g>
<!-- node_data_source_synthetic -->
<g id="node6" class="node">
<title>node_data_source_synthetic</title>
<g id="a_node6"><a xlink:title="Synthetic data can target specific skills or failure modes by generating curated examples. It risks distribution shift or error amplification if generation quality is low.">
<path fill="#f8f9fa" stroke="#495057" d="M363.82,-835C363.82,-835 249.68,-835 249.68,-835 243.68,-835 237.68,-829 237.68,-823 237.68,-823 237.68,-811 237.68,-811 237.68,-805 243.68,-799 249.68,-799 249.68,-799 363.82,-799 363.82,-799 369.82,-799 375.82,-805 375.82,-811 375.82,-811 375.82,-823 375.82,-823 375.82,-829 369.82,-835 363.82,-835"/>
<text xml:space="preserve" text-anchor="start" x="244.88" y="-818" font-family="Helvetica,sans-Serif" font-weight="bold" font-size="10.00" fill="#212529">Synthetic / Generated Data</text>
<text xml:space="preserve" text-anchor="start" x="282.38" y="-808.95" font-family="Helvetica,sans-Serif" font-size="9.00" fill="#212529">Mem:0.3MB</text>
</a>
</g>
</g>
<!-- node_data_sources&#45;&gt;node_data_source_synthetic -->
<g id="edge5" class="edge">
<title>node_data_sources&#45;&gt;node_data_source_synthetic</title>
<path fill="none" stroke="#adb5bd" d="M195.49,-858C219.54,-858 245.85,-858 245.85,-858 245.85,-858 245.85,-842.62 245.85,-842.62"/>
<polygon fill="#adb5bd" stroke="#adb5bd" points="247.95,-842.62 245.85,-836.62 243.75,-842.62 247.95,-842.62"/>
</g>
<!-- node_data_dedup -->
<g id="node8" class="node">
<title>node_data_dedup</title>
<g id="a_node8"><a xlink:title="Detects and removes near&#45;duplicate documents or passages to reduce memorization and wasted steps. This increases data efficiency at fixed compute.">
<path fill="#f8f9fa" stroke="#495057" d="M334.57,-788C334.57,-788 278.93,-788 278.93,-788 272.93,-788 266.93,-782 266.93,-776 266.93,-776 266.93,-764 266.93,-764 266.93,-758 272.93,-752 278.93,-752 278.93,-752 334.57,-752 334.57,-752 340.57,-752 346.57,-758 346.57,-764 346.57,-764 346.57,-776 346.57,-776 346.57,-782 340.57,-788 334.57,-788"/>
<text xml:space="preserve" text-anchor="start" x="274.12" y="-771" font-family="Helvetica,sans-Serif" font-weight="bold" font-size="10.00" fill="#212529">Deduplication</text>
<text xml:space="preserve" text-anchor="start" x="282.38" y="-761.95" font-family="Helvetica,sans-Serif" font-size="9.00" fill="#212529">Mem:0.1MB</text>
</a>
</g>
</g>
<!-- node_data_cleaning&#45;&gt;node_data_dedup -->
<g id="edge7" class="edge">
<title>node_data_cleaning&#45;&gt;node_data_dedup</title>
<path fill="none" stroke="#adb5bd" d="M199.85,-694.57C199.85,-721.97 199.85,-770 199.85,-770 199.85,-770 259.13,-770 259.13,-770"/>
<polygon fill="#adb5bd" stroke="#adb5bd" points="259.13,-772.1 265.13,-770 259.13,-767.9 259.13,-772.1"/>
</g>
<!-- node_data_language_id -->
<g id="node9" class="node">
<title>node_data_language_id</title>
<g id="a_node9"><a xlink:title="Keeps only target languages (or mixes them deliberately) to control distribution. It reduces accidental multilingual drift in a tiny model.">
<path fill="#f8f9fa" stroke="#495057" d="M345.07,-741C345.07,-741 268.43,-741 268.43,-741 262.43,-741 256.43,-735 256.43,-729 256.43,-729 256.43,-717 256.43,-717 256.43,-711 262.43,-705 268.43,-705 268.43,-705 345.07,-705 345.07,-705 351.07,-705 357.07,-711 357.07,-717 357.07,-717 357.07,-729 357.07,-729 357.07,-735 351.07,-741 345.07,-741"/>
<text xml:space="preserve" text-anchor="start" x="263.62" y="-724" font-family="Helvetica,sans-Serif" font-weight="bold" font-size="10.00" fill="#212529">Language ID Filter</text>
<text xml:space="preserve" text-anchor="start" x="282.38" y="-714.95" font-family="Helvetica,sans-Serif" font-size="9.00" fill="#212529">Mem:0.1MB</text>
</a>
</g>
</g>
<!-- node_data_cleaning&#45;&gt;node_data_language_id -->
<g id="edge8" class="edge">
<title>node_data_cleaning&#45;&gt;node_data_language_id</title>
<path fill="none" stroke="#adb5bd" d="M205.85,-694.58C205.85,-707.71 205.85,-723 205.85,-723 205.85,-723 248.49,-723 248.49,-723"/>
<polygon fill="#adb5bd" stroke="#adb5bd" points="248.49,-725.1 254.49,-723 248.49,-720.9 248.49,-725.1"/>
</g>
<!-- node_data_quality_filter -->
<g id="node10" class="node">
<title>node_data_quality_filter</title>
<g id="a_node10"><a xlink:title="Uses heuristics or learned scoring to prioritize coherent, information&#45;dense text. It effectively increases signal&#45;to&#45;noise ratio without changing architecture.">
<path fill="#f8f9fa" stroke="#495057" d="M351.82,-694C351.82,-694 261.68,-694 261.68,-694 255.68,-694 249.68,-688 249.68,-682 249.68,-682 249.68,-670 249.68,-670 249.68,-664 255.68,-658 261.68,-658 261.68,-658 351.82,-658 351.82,-658 357.82,-658 363.82,-664 363.82,-670 363.82,-670 363.82,-682 363.82,-682 363.82,-688 357.82,-694 351.82,-694"/>
<text xml:space="preserve" text-anchor="start" x="256.88" y="-677" font-family="Helvetica,sans-Serif" font-weight="bold" font-size="10.00" fill="#212529">Quality Scoring Filter</text>
<text xml:space="preserve" text-anchor="start" x="282.38" y="-667.95" font-family="Helvetica,sans-Serif" font-size="9.00" fill="#212529">Mem:0.1MB</text>
</a>
</g>
</g>
<!-- node_data_cleaning&#45;&gt;node_data_quality_filter -->
<g id="edge9" class="edge">
<title>node_data_cleaning&#45;&gt;node_data_quality_filter</title>
<path fill="none" stroke="#adb5bd" d="M211.66,-676C211.66,-676 241.66,-676 241.66,-676"/>
<polygon fill="#adb5bd" stroke="#adb5bd" points="241.66,-678.1 247.66,-676 241.66,-673.9 241.66,-678.1"/>
</g>
<!-- node_data_toxicity_filter -->
<g id="node11" class="node">
<title>node_data_toxicity_filter</title>
<g id="a_node11"><a xlink:title="Removes or down&#45;weights content associated with harmful or toxic language. It improves behavioral robustness with negligible model&#45;side cost.">
<path fill="#f8f9fa" stroke="#495057" d="M352.57,-647C352.57,-647 260.93,-647 260.93,-647 254.93,-647 248.93,-641 248.93,-635 248.93,-635 248.93,-623 248.93,-623 248.93,-617 254.93,-611 260.93,-611 260.93,-611 352.57,-611 352.57,-611 358.57,-611 364.57,-617 364.57,-623 364.57,-623 364.57,-635 364.57,-635 364.57,-641 358.57,-647 352.57,-647"/>
<text xml:space="preserve" text-anchor="start" x="256.12" y="-630" font-family="Helvetica,sans-Serif" font-weight="bold" font-size="10.00" fill="#212529">Safety / Toxicity Filter</text>
<text xml:space="preserve" text-anchor="start" x="282.38" y="-620.95" font-family="Helvetica,sans-Serif" font-size="9.00" fill="#212529">Mem:0.1MB</text>
</a>
</g>
</g>
<!-- node_data_cleaning&#45;&gt;node_data_toxicity_filter -->
<g id="edge10" class="edge">
<title>node_data_cleaning&#45;&gt;node_data_toxicity_filter</title>
<path fill="none" stroke="#adb5bd" d="M202.85,-657.42C202.85,-644.29 202.85,-629 202.85,-629 202.85,-629 241.21,-629 241.21,-629"/>
<polygon fill="#adb5bd" stroke="#adb5bd" points="241.21,-631.1 247.21,-629 241.21,-626.9 241.21,-631.1"/>
</g>
<!-- node_tokenizer_bpe -->
<g id="node13" class="node">
<title>node_tokenizer_bpe</title>
<g id="a_node13"><a xlink:title="Byte Pair Encoding learns a subword vocabulary that balances token count and coverage. It is a standard choice for compact tokenization at scale.">
<path fill="#f8f9fa" stroke="#495057" d="M337.95,-600C337.95,-600 275.55,-600 275.55,-600 269.55,-600 263.55,-594 263.55,-588 263.55,-588 263.55,-576 263.55,-576 263.55,-570 269.55,-564 275.55,-564 275.55,-564 337.95,-564 337.95,-564 343.95,-564 349.95,-570 349.95,-576 349.95,-576 349.95,-588 349.95,-588 349.95,-594 343.95,-600 337.95,-600"/>
<text xml:space="preserve" text-anchor="start" x="270.75" y="-583" font-family="Helvetica,sans-Serif" font-weight="bold" font-size="10.00" fill="#212529">BPE (Subword)</text>
<text xml:space="preserve" text-anchor="start" x="282.38" y="-573.95" font-family="Helvetica,sans-Serif" font-size="9.00" fill="#212529">Mem:0.2MB</text>
</a>
</g>
</g>
<!-- node_data_tokenization&#45;&gt;node_tokenizer_bpe -->
<g id="edge12" class="edge">
<title>node_data_tokenization&#45;&gt;node_tokenizer_bpe</title>
<path fill="none" stroke="#adb5bd" d="M156.85,-506.57C156.85,-533.97 156.85,-582 156.85,-582 156.85,-582 255.88,-582 255.88,-582"/>
<polygon fill="#adb5bd" stroke="#adb5bd" points="255.88,-584.1 261.88,-582 255.88,-579.9 255.88,-584.1"/>
</g>
<!-- node_tokenizer_unigram -->
<g id="node14" class="node">
<title>node_tokenizer_unigram</title>
<g id="a_node14"><a xlink:title="Unigram tokenization chooses tokens via a probabilistic model, often yielding more flexible segmentations. It can reduce brittleness to rare substrings.">
<path fill="#f8f9fa" stroke="#495057" d="M360.82,-553C360.82,-553 252.68,-553 252.68,-553 246.68,-553 240.68,-547 240.68,-541 240.68,-541 240.68,-529 240.68,-529 240.68,-523 246.68,-517 252.68,-517 252.68,-517 360.82,-517 360.82,-517 366.82,-517 372.82,-523 372.82,-529 372.82,-529 372.82,-541 372.82,-541 372.82,-547 366.82,-553 360.82,-553"/>
<text xml:space="preserve" text-anchor="start" x="247.88" y="-536" font-family="Helvetica,sans-Serif" font-weight="bold" font-size="10.00" fill="#212529">Unigram (SentencePiece)</text>
<text xml:space="preserve" text-anchor="start" x="282.38" y="-526.95" font-family="Helvetica,sans-Serif" font-size="9.00" fill="#212529">Mem:0.2MB</text>
</a>
</g>
</g>
<!-- node_data_tokenization&#45;&gt;node_tokenizer_unigram -->
<g id="edge13" class="edge">
<title>node_data_tokenization&#45;&gt;node_tokenizer_unigram</title>
<path fill="none" stroke="#adb5bd" d="M194.39,-494C220.61,-494 250.85,-494 250.85,-494 250.85,-494 250.85,-509.38 250.85,-509.38"/>
<polygon fill="#adb5bd" stroke="#adb5bd" points="248.75,-509.38 250.85,-515.38 252.95,-509.38 248.75,-509.38"/>
</g>
<!-- node_tokenizer_bytelevel_bpe -->
<g id="node15" class="node">
<title>node_tokenizer_bytelevel_bpe</title>
<g id="a_node15"><a xlink:title="Operates on bytes before merging into subwords, ensuring full coverage of arbitrary text. It often increases sequence length slightly but avoids unknown tokens.">
<path fill="#f8f9fa" stroke="#495057" d="M336.82,-506C336.82,-506 276.68,-506 276.68,-506 270.68,-506 264.68,-500 264.68,-494 264.68,-494 264.68,-482 264.68,-482 264.68,-476 270.68,-470 276.68,-470 276.68,-470 336.82,-470 336.82,-470 342.82,-470 348.82,-476 348.82,-482 348.82,-482 348.82,-494 348.82,-494 348.82,-500 342.82,-506 336.82,-506"/>
<text xml:space="preserve" text-anchor="start" x="271.88" y="-489" font-family="Helvetica,sans-Serif" font-weight="bold" font-size="10.00" fill="#212529">Byte&#45;level BPE</text>
<text xml:space="preserve" text-anchor="start" x="279.75" y="-479.95" font-family="Helvetica,sans-Serif" font-size="9.00" fill="#212529">Mem:0.25MB</text>
</a>
</g>
</g>
<!-- node_data_tokenization&#45;&gt;node_tokenizer_bytelevel_bpe -->
<g id="edge14" class="edge">
<title>node_data_tokenization&#45;&gt;node_tokenizer_bytelevel_bpe</title>
<path fill="none" stroke="#adb5bd" d="M194.49,-482C194.49,-482 256.86,-482 256.86,-482"/>
<polygon fill="#adb5bd" stroke="#adb5bd" points="256.86,-484.1 262.86,-482 256.86,-479.9 256.86,-484.1"/>
</g>
<!-- node_tokenizer_character -->
<g id="node16" class="node">
<title>node_tokenizer_character</title>
<g id="a_node16"><a xlink:title="Uses characters as tokens, guaranteeing coverage but producing much longer sequences. This typically increases activation/KV&#45;cache memory for a fixed context length.">
<path fill="#f8f9fa" stroke="#495057" d="M336.82,-459C336.82,-459 276.68,-459 276.68,-459 270.68,-459 264.68,-453 264.68,-447 264.68,-447 264.68,-435 264.68,-435 264.68,-429 270.68,-423 276.68,-423 276.68,-423 336.82,-423 336.82,-423 342.82,-423 348.82,-429 348.82,-435 348.82,-435 348.82,-447 348.82,-447 348.82,-453 342.82,-459 336.82,-459"/>
<text xml:space="preserve" text-anchor="start" x="271.88" y="-442" font-family="Helvetica,sans-Serif" font-weight="bold" font-size="10.00" fill="#212529">Character&#45;level</text>
<text xml:space="preserve" text-anchor="start" x="282.38" y="-432.95" font-family="Helvetica,sans-Serif" font-size="9.00" fill="#212529">Mem:0.3MB</text>
</a>
</g>
</g>
<!-- node_data_tokenization&#45;&gt;node_tokenizer_character -->
<g id="edge15" class="edge">
<title>node_data_tokenization&#45;&gt;node_tokenizer_character</title>
<path fill="none" stroke="#adb5bd" d="M156.85,-469.42C156.85,-456.29 156.85,-441 156.85,-441 156.85,-441 256.68,-441 256.68,-441"/>
<polygon fill="#adb5bd" stroke="#adb5bd" points="256.68,-443.1 262.68,-441 256.68,-438.9 256.68,-443.1"/>
</g>
<!-- node_sequence_packing -->
<g id="node18" class="node">
<title>node_sequence_packing</title>
<g id="a_node18"><a xlink:title="Controls how multiple documents are concatenated or separated to fill context windows. Better packing increases tokens&#45;per&#45;step at the same memory cost.">
<path fill="#e7f5ff" stroke="#1971c2" stroke-width="1.4" d="M341.32,-412C341.32,-412 272.18,-412 272.18,-412 266.18,-412 260.18,-406 260.18,-400 260.18,-400 260.18,-388 260.18,-388 260.18,-382 266.18,-376 272.18,-376 272.18,-376 341.32,-376 341.32,-376 347.32,-376 353.32,-382 353.32,-388 353.32,-388 353.32,-400 353.32,-400 353.32,-406 347.32,-412 341.32,-412"/>
<text xml:space="preserve" text-anchor="start" x="267.38" y="-391.12" font-family="Helvetica,sans-Serif" font-weight="bold" font-size="10.00" fill="#212529">Packing Strategy</text>
</a>
</g>
</g>
<!-- node_data_sequence_construction&#45;&gt;node_sequence_packing -->
<g id="edge17" class="edge">
<title>node_data_sequence_construction&#45;&gt;node_sequence_packing</title>
<path fill="none" stroke="#adb5bd" d="M218.97,-382C218.97,-382 252.4,-382 252.4,-382"/>
<polygon fill="#adb5bd" stroke="#adb5bd" points="252.4,-384.1 258.4,-382 252.4,-379.9 252.4,-384.1"/>
</g>
<!-- node_context_length -->
<g id="node21" class="node">
<title>node_context_length</title>
<g id="a_node21"><a xlink:title="Sets the maximum number of tokens processed per forward pass. Memory scales roughly linearly for activations and KV cache, making this a key Parameter Golf lever.">
<path fill="#e7f5ff" stroke="#1971c2" stroke-width="1.4" d="M337.57,-365C337.57,-365 275.93,-365 275.93,-365 269.93,-365 263.93,-359 263.93,-353 263.93,-353 263.93,-341 263.93,-341 263.93,-335 269.93,-329 275.93,-329 275.93,-329 337.57,-329 337.57,-329 343.57,-329 349.57,-335 349.57,-341 349.57,-341 349.57,-353 349.57,-353 349.57,-359 343.57,-365 337.57,-365"/>
<text xml:space="preserve" text-anchor="start" x="271.12" y="-344.12" font-family="Helvetica,sans-Serif" font-weight="bold" font-size="10.00" fill="#212529">Context Length</text>
</a>
</g>
</g>
<!-- node_data_sequence_construction&#45;&gt;node_context_length -->
<g id="edge20" class="edge">
<title>node_data_sequence_construction&#45;&gt;node_context_length</title>
<path fill="none" stroke="#adb5bd" d="M218.97,-358.5C218.97,-358.5 256.02,-358.5 256.02,-358.5"/>
<polygon fill="#adb5bd" stroke="#adb5bd" points="256.02,-360.6 262.02,-358.5 256.02,-356.4 256.02,-360.6"/>
</g>
<!-- node_packing_concat_fixed -->
<g id="node19" class="node">
<title>node_packing_concat_fixed</title>
<g id="a_node19"><a xlink:title="Concatenates samples into fixed&#45;size blocks with padding where needed. Simple to implement but can waste compute on padding tokens.">
<path fill="#f8f9fa" stroke="#495057" d="M509.85,-459C509.85,-459 406.95,-459 406.95,-459 400.95,-459 394.95,-453 394.95,-447 394.95,-447 394.95,-435 394.95,-435 394.95,-429 400.95,-423 406.95,-423 406.95,-423 509.85,-423 509.85,-423 515.85,-423 521.85,-429 521.85,-435 521.85,-435 521.85,-447 521.85,-447 521.85,-453 515.85,-459 509.85,-459"/>
<text xml:space="preserve" text-anchor="start" x="402.15" y="-442" font-family="Helvetica,sans-Serif" font-weight="bold" font-size="10.00" fill="#212529">Fixed Concat + Padding</text>
<text xml:space="preserve" text-anchor="start" x="434.03" y="-432.95" font-family="Helvetica,sans-Serif" font-size="9.00" fill="#212529">Mem:0.1MB</text>
</a>
</g>
</g>
<!-- node_sequence_packing&#45;&gt;node_packing_concat_fixed -->
<g id="edge18" class="edge">
<title>node_sequence_packing&#45;&gt;node_packing_concat_fixed</title>
<path fill="none" stroke="#adb5bd" d="M353.79,-400C378.97,-400 404.85,-400 404.85,-400 404.85,-400 404.85,-415.38 404.85,-415.38"/>
<polygon fill="#adb5bd" stroke="#adb5bd" points="402.75,-415.38 404.85,-421.38 406.95,-415.38 402.75,-415.38"/>
</g>
<!-- node_packing_dynamic -->
<g id="node20" class="node">
<title>node_packing_dynamic</title>
<g id="a_node20"><a xlink:title="Dynamically packs variable&#45;length samples to minimize padding and maximize real tokens per batch. This improves throughput under strict memory budgets.">
<path fill="#f8f9fa" stroke="#495057" d="M494.48,-412C494.48,-412 422.33,-412 422.33,-412 416.33,-412 410.33,-406 410.33,-400 410.33,-400 410.33,-388 410.33,-388 410.33,-382 416.33,-376 422.33,-376 422.33,-376 494.48,-376 494.48,-376 500.48,-376 506.48,-382 506.48,-388 506.48,-388 506.48,-400 506.48,-400 506.48,-406 500.48,-412 494.48,-412"/>
<text xml:space="preserve" text-anchor="start" x="417.53" y="-395" font-family="Helvetica,sans-Serif" font-weight="bold" font-size="10.00" fill="#212529">Dynamic Packing</text>
<text xml:space="preserve" text-anchor="start" x="431.4" y="-385.95" font-family="Helvetica,sans-Serif" font-size="9.00" fill="#212529">Mem:0.15MB</text>
</a>
</g>
</g>
<!-- node_sequence_packing&#45;&gt;node_packing_dynamic -->
<g id="edge19" class="edge">
<title>node_sequence_packing&#45;&gt;node_packing_dynamic</title>
<path fill="none" stroke="#adb5bd" d="M353.9,-388C353.9,-388 402.46,-388 402.46,-388"/>
<polygon fill="#adb5bd" stroke="#adb5bd" points="402.46,-390.1 408.46,-388 402.46,-385.9 402.46,-390.1"/>
</g>
<!-- node_context_256 -->
<g id="node22" class="node">
<title>node_context_256</title>
<g id="a_node22"><a xlink:title="Short context reduces activation and KV&#45;cache memory, enabling larger batch sizes or wider models. It can hurt tasks requiring long&#45;range dependencies.">
<path fill="#f8f9fa" stroke="#495057" d="M479.85,-365C479.85,-365 436.95,-365 436.95,-365 430.95,-365 424.95,-359 424.95,-353 424.95,-353 424.95,-341 424.95,-341 424.95,-335 430.95,-329 436.95,-329 436.95,-329 479.85,-329 479.85,-329 485.85,-329 491.85,-335 491.85,-341 491.85,-341 491.85,-353 491.85,-353 491.85,-359 485.85,-365 479.85,-365"/>
<text xml:space="preserve" text-anchor="start" x="432.15" y="-348" font-family="Helvetica,sans-Serif" font-weight="bold" font-size="10.00" fill="#212529">256 Tokens</text>
<text xml:space="preserve" text-anchor="start" x="435.15" y="-338.95" font-family="Helvetica,sans-Serif" font-size="9.00" fill="#212529">Mem:40MB</text>
</a>
</g>
</g>
<!-- node_context_length&#45;&gt;node_context_256 -->
<g id="edge21" class="edge">
<title>node_context_length&#45;&gt;node_context_256</title>
<path fill="none" stroke="#adb5bd" d="M350.21,-356C350.21,-356 417.06,-356 417.06,-356"/>
<polygon fill="#adb5bd" stroke="#adb5bd" points="417.06,-358.1 423.06,-356 417.06,-353.9 417.06,-358.1"/>
</g>
<!-- node_context_512 -->
<g id="node23" class="node">
<title>node_context_512</title>
<g id="a_node23"><a xlink:title="Moderate context is a common tradeoff between long&#45;range modeling and memory cost. It keeps KV cache manageable while retaining some long&#45;context capacity.">
<path fill="#f8f9fa" stroke="#495057" d="M479.85,-318C479.85,-318 436.95,-318 436.95,-318 430.95,-318 424.95,-312 424.95,-306 424.95,-306 424.95,-294 424.95,-294 424.95,-288 430.95,-282 436.95,-282 436.95,-282 479.85,-282 479.85,-282 485.85,-282 491.85,-288 491.85,-294 491.85,-294 491.85,-306 491.85,-306 491.85,-312 485.85,-318 479.85,-318"/>
<text xml:space="preserve" text-anchor="start" x="432.15" y="-301" font-family="Helvetica,sans-Serif" font-weight="bold" font-size="10.00" fill="#212529">512 Tokens</text>
<text xml:space="preserve" text-anchor="start" x="435.15" y="-291.95" font-family="Helvetica,sans-Serif" font-size="9.00" fill="#212529">Mem:80MB</text>
</a>
</g>
</g>
<!-- node_context_length&#45;&gt;node_context_512 -->
<g id="edge22" class="edge">
<title>node_context_length&#45;&gt;node_context_512</title>
<path fill="none" stroke="#adb5bd" d="M350.19,-338C358.59,-338 364.85,-338 364.85,-338 364.85,-338 364.85,-300 364.85,-300 364.85,-300 417.11,-300 417.11,-300"/>
<polygon fill="#adb5bd" stroke="#adb5bd" points="417.11,-302.1 423.11,-300 417.11,-297.9 417.11,-302.1"/>
</g>
<!-- node_context_1024 -->
<g id="node24" class="node">
<title>node_context_1024</title>
<g id="a_node24"><a xlink:title="Long context increases both activation memory and KV cache substantially. This often forces reductions in model width/depth under a fixed memory ceiling.">
<path fill="#f8f9fa" stroke="#495057" d="M482.48,-271C482.48,-271 434.33,-271 434.33,-271 428.33,-271 422.33,-265 422.33,-259 422.33,-259 422.33,-247 422.33,-247 422.33,-241 428.33,-235 434.33,-235 434.33,-235 482.48,-235 482.48,-235 488.48,-235 494.48,-241 494.48,-247 494.48,-247 494.48,-259 494.48,-259 494.48,-265 488.48,-271 482.48,-271"/>
<text xml:space="preserve" text-anchor="start" x="429.53" y="-254" font-family="Helvetica,sans-Serif" font-weight="bold" font-size="10.00" fill="#212529">1024 Tokens</text>
<text xml:space="preserve" text-anchor="start" x="432.53" y="-244.95" font-family="Helvetica,sans-Serif" font-size="9.00" fill="#212529">Mem:160MB</text>
</a>
</g>
</g>
<!-- node_context_length&#45;&gt;node_context_1024 -->
<g id="edge23" class="edge">
<title>node_context_length&#45;&gt;node_context_1024</title>
<path fill="none" stroke="#adb5bd" d="M350.03,-347C374.34,-347 399.85,-347 399.85,-347 399.85,-347 399.85,-253 399.85,-253 399.85,-253 414.47,-253 414.47,-253"/>
<polygon fill="#adb5bd" stroke="#adb5bd" points="414.47,-255.1 420.47,-253 414.47,-250.9 414.47,-255.1"/>
</g>
<!-- node_batching_random -->
<g id="node26" class="node">
<title>node_batching_random</title>
<g id="a_node26"><a xlink:title="Samples sequences uniformly or with simple weights, producing diverse batches. It is robust but can incur padding inefficiency with variable lengths.">
<path fill="#f8f9fa" stroke="#495057" d="M345.82,-318C345.82,-318 267.68,-318 267.68,-318 261.68,-318 255.68,-312 255.68,-306 255.68,-306 255.68,-294 255.68,-294 255.68,-288 261.68,-282 267.68,-282 267.68,-282 345.82,-282 345.82,-282 351.82,-282 357.82,-288 357.82,-294 357.82,-294 357.82,-306 357.82,-306 357.82,-312 351.82,-318 345.82,-318"/>
<text xml:space="preserve" text-anchor="start" x="262.88" y="-301" font-family="Helvetica,sans-Serif" font-weight="bold" font-size="10.00" fill="#212529">Random Sampling</text>
<text xml:space="preserve" text-anchor="start" x="282.38" y="-291.95" font-family="Helvetica,sans-Serif" font-size="9.00" fill="#212529">Mem:0.1MB</text>
</a>
</g>
</g>
<!-- node_data_sampling_batching&#45;&gt;node_batching_random -->
<g id="edge25" class="edge">
<title>node_data_sampling_batching&#45;&gt;node_batching_random</title>
<path fill="none" stroke="#adb5bd" d="M214.65,-306C214.65,-306 247.71,-306 247.71,-306"/>
<polygon fill="#adb5bd" stroke="#adb5bd" points="247.71,-308.1 253.71,-306 247.71,-303.9 247.71,-308.1"/>
</g>
<!-- node_batching_length_bucketed -->
<g id="node27" class="node">
<title>node_batching_length_bucketed</title>
<g id="a_node27"><a xlink:title="Groups sequences of similar length to minimize padding and wasted compute. This increases effective tokens&#45;per&#45;step under a fixed memory budget.">
<path fill="#f8f9fa" stroke="#495057" d="M363.07,-271C363.07,-271 250.43,-271 250.43,-271 244.43,-271 238.43,-265 238.43,-259 238.43,-259 238.43,-247 238.43,-247 238.43,-241 244.43,-235 250.43,-235 250.43,-235 363.07,-235 363.07,-235 369.07,-235 375.07,-241 375.07,-247 375.07,-247 375.07,-259 375.07,-259 375.07,-265 369.07,-271 363.07,-271"/>
<text xml:space="preserve" text-anchor="start" x="245.62" y="-254" font-family="Helvetica,sans-Serif" font-weight="bold" font-size="10.00" fill="#212529">Length&#45;bucketed Batching</text>
<text xml:space="preserve" text-anchor="start" x="279.75" y="-244.95" font-family="Helvetica,sans-Serif" font-size="9.00" fill="#212529">Mem:0.15MB</text>
</a>
</g>
</g>
<!-- node_data_sampling_batching&#45;&gt;node_batching_length_bucketed -->
<g id="edge26" class="edge">
<title>node_data_sampling_batching&#45;&gt;node_batching_length_bucketed</title>
<path fill="none" stroke="#adb5bd" d="M214.63,-294C231.68,-294 245.85,-294 245.85,-294 245.85,-294 245.85,-278.62 245.85,-278.62"/>
<polygon fill="#adb5bd" stroke="#adb5bd" points="247.95,-278.62 245.85,-272.62 243.75,-278.62 247.95,-278.62"/>
</g>
<!-- node_aug_span_corruption -->
<g id="node29" class="node">
<title>node_aug_span_corruption</title>
<g id="a_node29"><a xlink:title="Randomly masks contiguous spans and trains the model to predict missing tokens. This can encourage modeling longer dependencies and reduce overfitting.">
<path fill="#f8f9fa" stroke="#495057" d="M364.95,-224C364.95,-224 248.55,-224 248.55,-224 242.55,-224 236.55,-218 236.55,-212 236.55,-212 236.55,-200 236.55,-200 236.55,-194 242.55,-188 248.55,-188 248.55,-188 364.95,-188 364.95,-188 370.95,-188 376.95,-194 376.95,-200 376.95,-200 376.95,-212 376.95,-212 376.95,-218 370.95,-224 364.95,-224"/>
<text xml:space="preserve" text-anchor="start" x="243.75" y="-207" font-family="Helvetica,sans-Serif" font-weight="bold" font-size="10.00" fill="#212529">Span Corruption / Masking</text>
<text xml:space="preserve" text-anchor="start" x="282.38" y="-197.95" font-family="Helvetica,sans-Serif" font-size="9.00" fill="#212529">Mem:0.2MB</text>
</a>
</g>
</g>
<!-- node_data_augmentation&#45;&gt;node_aug_span_corruption -->
<g id="edge28" class="edge">
<title>node_data_augmentation&#45;&gt;node_aug_span_corruption</title>
<path fill="none" stroke="#adb5bd" d="M208.69,-194.5C208.69,-194.5 228.72,-194.5 228.72,-194.5"/>
<polygon fill="#adb5bd" stroke="#adb5bd" points="228.72,-196.6 234.72,-194.5 228.72,-192.4 228.72,-196.6"/>
</g>
<!-- node_aug_token_dropout -->
<g id="node30" class="node">
<title>node_aug_token_dropout</title>
<g id="a_node30"><a xlink:title="Randomly drops or replaces tokens during training to discourage reliance on brittle cues. It is a lightweight way to increase robustness at tiny scale.">
<path fill="#f8f9fa" stroke="#495057" d="M336.82,-177C336.82,-177 276.68,-177 276.68,-177 270.68,-177 264.68,-171 264.68,-165 264.68,-165 264.68,-153 264.68,-153 264.68,-147 270.68,-141 276.68,-141 276.68,-141 336.82,-141 336.82,-141 342.82,-141 348.82,-147 348.82,-153 348.82,-153 348.82,-165 348.82,-165 348.82,-171 342.82,-177 336.82,-177"/>
<text xml:space="preserve" text-anchor="start" x="271.88" y="-160" font-family="Helvetica,sans-Serif" font-weight="bold" font-size="10.00" fill="#212529">Token Dropout</text>
<text xml:space="preserve" text-anchor="start" x="279.75" y="-150.95" font-family="Helvetica,sans-Serif" font-size="9.00" fill="#212529">Mem:0.15MB</text>
</a>
</g>
</g>
<!-- node_data_augmentation&#45;&gt;node_aug_token_dropout -->
<g id="edge29" class="edge">
<title>node_data_augmentation&#45;&gt;node_aug_token_dropout</title>
<path fill="none" stroke="#adb5bd" d="M208.69,-173C208.69,-173 256.67,-173 256.67,-173"/>
<polygon fill="#adb5bd" stroke="#adb5bd" points="256.67,-175.1 262.67,-173 256.67,-170.9 256.67,-175.1"/>
</g>
<!-- node_aug_contrastive_crop -->
<g id="node31" class="node">
<title>node_aug_contrastive_crop</title>
<g id="a_node31"><a xlink:title="Creates multiple cropped views of the same document to encourage consistent representations. It can help compact models learn invariances but adds pipeline complexity.">
<path fill="#f8f9fa" stroke="#495057" d="M352.2,-130C352.2,-130 261.3,-130 261.3,-130 255.3,-130 249.3,-124 249.3,-118 249.3,-118 249.3,-106 249.3,-106 249.3,-100 255.3,-94 261.3,-94 261.3,-94 352.2,-94 352.2,-94 358.2,-94 364.2,-100 364.2,-106 364.2,-106 364.2,-118 364.2,-118 364.2,-124 358.2,-130 352.2,-130"/>
<text xml:space="preserve" text-anchor="start" x="256.5" y="-113" font-family="Helvetica,sans-Serif" font-weight="bold" font-size="10.00" fill="#212529">Contrastive Cropping</text>
<text xml:space="preserve" text-anchor="start" x="279.75" y="-103.95" font-family="Helvetica,sans-Serif" font-size="9.00" fill="#212529">Mem:0.25MB</text>
</a>
</g>
</g>
<!-- node_data_augmentation&#45;&gt;node_aug_contrastive_crop -->
<g id="edge30" class="edge">
<title>node_data_augmentation&#45;&gt;node_aug_contrastive_crop</title>
<path fill="none" stroke="#adb5bd" d="M208.49,-169C232.95,-169 256.85,-169 256.85,-169 256.85,-169 256.85,-137.86 256.85,-137.86"/>
<polygon fill="#adb5bd" stroke="#adb5bd" points="258.95,-137.86 256.85,-131.86 254.75,-137.86 258.95,-137.86"/>
</g>
<!-- node_curriculum_length -->
<g id="node33" class="node">
<title>node_curriculum_length</title>
<g id="a_node33"><a xlink:title="Starts with shorter sequences and gradually increases context length. This can stabilize early training and manage memory usage over time.">
<path fill="#f8f9fa" stroke="#495057" d="M346.2,-83C346.2,-83 267.3,-83 267.3,-83 261.3,-83 255.3,-77 255.3,-71 255.3,-71 255.3,-59 255.3,-59 255.3,-53 261.3,-47 267.3,-47 267.3,-47 346.2,-47 346.2,-47 352.2,-47 358.2,-53 358.2,-59 358.2,-59 358.2,-71 358.2,-71 358.2,-77 352.2,-83 346.2,-83"/>
<text xml:space="preserve" text-anchor="start" x="262.5" y="-66" font-family="Helvetica,sans-Serif" font-weight="bold" font-size="10.00" fill="#212529">Length Curriculum</text>
<text xml:space="preserve" text-anchor="start" x="279.75" y="-56.95" font-family="Helvetica,sans-Serif" font-size="9.00" fill="#212529">Mem:0.15MB</text>
</a>
</g>
</g>
<!-- node_data_curriculum_mixing&#45;&gt;node_curriculum_length -->
<g id="edge32" class="edge">
<title>node_data_curriculum_mixing&#45;&gt;node_curriculum_length</title>
<path fill="none" stroke="#adb5bd" d="M213.37,-65C213.37,-65 247.33,-65 247.33,-65"/>
<polygon fill="#adb5bd" stroke="#adb5bd" points="247.33,-67.1 253.33,-65 247.33,-62.9 247.33,-67.1"/>
</g>
<!-- node_mix_dataset_sampling -->
<g id="node34" class="node">
<title>node_mix_dataset_sampling</title>
<g id="a_node34"><a xlink:title="Adjusts sampling probabilities across corpora to control the effective training distribution. Mixing is a powerful lever for tiny models where capacity is limited.">
<path fill="#f8f9fa" stroke="#495057" d="M356.7,-36C356.7,-36 256.8,-36 256.8,-36 250.8,-36 244.8,-30 244.8,-24 244.8,-24 244.8,-12 244.8,-12 244.8,-6 250.8,0 256.8,0 256.8,0 356.7,0 356.7,0 362.7,0 368.7,-6 368.7,-12 368.7,-12 368.7,-24 368.7,-24 368.7,-30 362.7,-36 356.7,-36"/>
<text xml:space="preserve" text-anchor="start" x="252" y="-19" font-family="Helvetica,sans-Serif" font-weight="bold" font-size="10.00" fill="#212529">Dataset Mixing Weights</text>
<text xml:space="preserve" text-anchor="start" x="282.38" y="-9.95" font-family="Helvetica,sans-Serif" font-size="9.00" fill="#212529">Mem:0.1MB</text>
</a>
</g>
</g>
<!-- node_data_curriculum_mixing&#45;&gt;node_mix_dataset_sampling -->
<g id="edge33" class="edge">
<title>node_data_curriculum_mixing&#45;&gt;node_mix_dataset_sampling</title>
<path fill="none" stroke="#adb5bd" d="M156.85,-46.42C156.85,-33.29 156.85,-18 156.85,-18 156.85,-18 236.97,-18 236.97,-18"/>
<polygon fill="#adb5bd" stroke="#adb5bd" points="236.97,-20.1 242.97,-18 236.97,-15.9 236.97,-20.1"/>
</g>
</g>
</svg>
